G04 EAGLE Gerber RS-274X export*
G75*
%MOMM*%
%FSLAX34Y34*%
%LPD*%
%INSoldermask Bottom*%
%IPPOS*%
%AMOC8*
5,1,8,0,0,1.08239X$1,22.5*%
G01*
%ADD10C,3.505200*%
%ADD11C,2.003200*%
%ADD12C,1.473200*%
%ADD13C,2.235200*%
%ADD14R,1.473200X0.838200*%
%ADD15C,1.203200*%
%ADD16C,1.270000*%
%ADD17C,1.703200*%

G36*
X2056195Y1197622D02*
X2056195Y1197622D01*
X2056261Y1197624D01*
X2056304Y1197642D01*
X2056351Y1197650D01*
X2056408Y1197684D01*
X2056468Y1197709D01*
X2056503Y1197740D01*
X2056544Y1197765D01*
X2056586Y1197816D01*
X2056634Y1197860D01*
X2056656Y1197902D01*
X2056685Y1197939D01*
X2056706Y1198001D01*
X2056737Y1198060D01*
X2056745Y1198114D01*
X2056757Y1198151D01*
X2056756Y1198191D01*
X2056764Y1198245D01*
X2056764Y1202055D01*
X2056753Y1202120D01*
X2056751Y1202186D01*
X2056733Y1202229D01*
X2056725Y1202276D01*
X2056691Y1202333D01*
X2056666Y1202393D01*
X2056635Y1202428D01*
X2056610Y1202469D01*
X2056559Y1202511D01*
X2056515Y1202559D01*
X2056473Y1202581D01*
X2056436Y1202610D01*
X2056374Y1202631D01*
X2056315Y1202662D01*
X2056261Y1202670D01*
X2056224Y1202682D01*
X2056184Y1202681D01*
X2056130Y1202689D01*
X2053590Y1202689D01*
X2053525Y1202678D01*
X2053459Y1202676D01*
X2053416Y1202658D01*
X2053369Y1202650D01*
X2053312Y1202616D01*
X2053252Y1202591D01*
X2053217Y1202560D01*
X2053176Y1202535D01*
X2053135Y1202484D01*
X2053086Y1202440D01*
X2053064Y1202398D01*
X2053035Y1202361D01*
X2053014Y1202299D01*
X2052983Y1202240D01*
X2052975Y1202186D01*
X2052963Y1202149D01*
X2052963Y1202145D01*
X2052963Y1202144D01*
X2052964Y1202109D01*
X2052956Y1202055D01*
X2052956Y1198245D01*
X2052967Y1198180D01*
X2052969Y1198114D01*
X2052987Y1198071D01*
X2052995Y1198024D01*
X2053029Y1197967D01*
X2053054Y1197907D01*
X2053085Y1197872D01*
X2053110Y1197831D01*
X2053161Y1197790D01*
X2053205Y1197741D01*
X2053247Y1197719D01*
X2053284Y1197690D01*
X2053346Y1197669D01*
X2053405Y1197638D01*
X2053459Y1197630D01*
X2053496Y1197618D01*
X2053536Y1197619D01*
X2053590Y1197611D01*
X2056130Y1197611D01*
X2056195Y1197622D01*
G37*
G36*
X2683575Y1197622D02*
X2683575Y1197622D01*
X2683641Y1197624D01*
X2683684Y1197642D01*
X2683731Y1197650D01*
X2683788Y1197684D01*
X2683848Y1197709D01*
X2683883Y1197740D01*
X2683924Y1197765D01*
X2683966Y1197816D01*
X2684014Y1197860D01*
X2684036Y1197902D01*
X2684065Y1197939D01*
X2684086Y1198001D01*
X2684117Y1198060D01*
X2684125Y1198114D01*
X2684137Y1198151D01*
X2684136Y1198191D01*
X2684144Y1198245D01*
X2684144Y1202055D01*
X2684133Y1202120D01*
X2684131Y1202186D01*
X2684113Y1202229D01*
X2684105Y1202276D01*
X2684071Y1202333D01*
X2684046Y1202393D01*
X2684015Y1202428D01*
X2683990Y1202469D01*
X2683939Y1202511D01*
X2683895Y1202559D01*
X2683853Y1202581D01*
X2683816Y1202610D01*
X2683754Y1202631D01*
X2683695Y1202662D01*
X2683641Y1202670D01*
X2683604Y1202682D01*
X2683564Y1202681D01*
X2683510Y1202689D01*
X2680970Y1202689D01*
X2680905Y1202678D01*
X2680839Y1202676D01*
X2680796Y1202658D01*
X2680749Y1202650D01*
X2680692Y1202616D01*
X2680632Y1202591D01*
X2680597Y1202560D01*
X2680556Y1202535D01*
X2680515Y1202484D01*
X2680466Y1202440D01*
X2680444Y1202398D01*
X2680415Y1202361D01*
X2680394Y1202299D01*
X2680363Y1202240D01*
X2680355Y1202186D01*
X2680343Y1202149D01*
X2680343Y1202145D01*
X2680343Y1202144D01*
X2680344Y1202109D01*
X2680336Y1202055D01*
X2680336Y1198245D01*
X2680347Y1198180D01*
X2680349Y1198114D01*
X2680367Y1198071D01*
X2680375Y1198024D01*
X2680409Y1197967D01*
X2680434Y1197907D01*
X2680465Y1197872D01*
X2680490Y1197831D01*
X2680541Y1197790D01*
X2680585Y1197741D01*
X2680627Y1197719D01*
X2680664Y1197690D01*
X2680726Y1197669D01*
X2680785Y1197638D01*
X2680839Y1197630D01*
X2680876Y1197618D01*
X2680916Y1197619D01*
X2680970Y1197611D01*
X2683510Y1197611D01*
X2683575Y1197622D01*
G37*
G36*
X534735Y1197622D02*
X534735Y1197622D01*
X534801Y1197624D01*
X534844Y1197642D01*
X534891Y1197650D01*
X534948Y1197684D01*
X535008Y1197709D01*
X535043Y1197740D01*
X535084Y1197765D01*
X535126Y1197816D01*
X535174Y1197860D01*
X535196Y1197902D01*
X535225Y1197939D01*
X535246Y1198001D01*
X535277Y1198060D01*
X535285Y1198114D01*
X535297Y1198151D01*
X535296Y1198191D01*
X535304Y1198245D01*
X535304Y1202055D01*
X535293Y1202120D01*
X535291Y1202186D01*
X535273Y1202229D01*
X535265Y1202276D01*
X535231Y1202333D01*
X535206Y1202393D01*
X535175Y1202428D01*
X535150Y1202469D01*
X535099Y1202511D01*
X535055Y1202559D01*
X535013Y1202581D01*
X534976Y1202610D01*
X534914Y1202631D01*
X534855Y1202662D01*
X534801Y1202670D01*
X534764Y1202682D01*
X534724Y1202681D01*
X534670Y1202689D01*
X532130Y1202689D01*
X532065Y1202678D01*
X531999Y1202676D01*
X531956Y1202658D01*
X531909Y1202650D01*
X531852Y1202616D01*
X531792Y1202591D01*
X531757Y1202560D01*
X531716Y1202535D01*
X531675Y1202484D01*
X531626Y1202440D01*
X531604Y1202398D01*
X531575Y1202361D01*
X531554Y1202299D01*
X531523Y1202240D01*
X531515Y1202186D01*
X531503Y1202149D01*
X531503Y1202145D01*
X531503Y1202144D01*
X531504Y1202109D01*
X531496Y1202055D01*
X531496Y1198245D01*
X531507Y1198180D01*
X531509Y1198114D01*
X531527Y1198071D01*
X531535Y1198024D01*
X531569Y1197967D01*
X531594Y1197907D01*
X531625Y1197872D01*
X531650Y1197831D01*
X531701Y1197790D01*
X531745Y1197741D01*
X531787Y1197719D01*
X531824Y1197690D01*
X531886Y1197669D01*
X531945Y1197638D01*
X531999Y1197630D01*
X532036Y1197618D01*
X532076Y1197619D01*
X532130Y1197611D01*
X534670Y1197611D01*
X534735Y1197622D01*
G37*
G36*
X3399855Y1197622D02*
X3399855Y1197622D01*
X3399921Y1197624D01*
X3399964Y1197642D01*
X3400011Y1197650D01*
X3400068Y1197684D01*
X3400128Y1197709D01*
X3400163Y1197740D01*
X3400204Y1197765D01*
X3400246Y1197816D01*
X3400294Y1197860D01*
X3400316Y1197902D01*
X3400345Y1197939D01*
X3400366Y1198001D01*
X3400397Y1198060D01*
X3400405Y1198114D01*
X3400417Y1198151D01*
X3400416Y1198191D01*
X3400424Y1198245D01*
X3400424Y1202055D01*
X3400413Y1202120D01*
X3400411Y1202186D01*
X3400393Y1202229D01*
X3400385Y1202276D01*
X3400351Y1202333D01*
X3400326Y1202393D01*
X3400295Y1202428D01*
X3400270Y1202469D01*
X3400219Y1202511D01*
X3400175Y1202559D01*
X3400133Y1202581D01*
X3400096Y1202610D01*
X3400034Y1202631D01*
X3399975Y1202662D01*
X3399921Y1202670D01*
X3399884Y1202682D01*
X3399844Y1202681D01*
X3399790Y1202689D01*
X3397250Y1202689D01*
X3397185Y1202678D01*
X3397119Y1202676D01*
X3397076Y1202658D01*
X3397029Y1202650D01*
X3396972Y1202616D01*
X3396912Y1202591D01*
X3396877Y1202560D01*
X3396836Y1202535D01*
X3396795Y1202484D01*
X3396746Y1202440D01*
X3396724Y1202398D01*
X3396695Y1202361D01*
X3396674Y1202299D01*
X3396643Y1202240D01*
X3396635Y1202186D01*
X3396623Y1202149D01*
X3396623Y1202145D01*
X3396623Y1202144D01*
X3396624Y1202109D01*
X3396616Y1202055D01*
X3396616Y1198245D01*
X3396627Y1198180D01*
X3396629Y1198114D01*
X3396647Y1198071D01*
X3396655Y1198024D01*
X3396689Y1197967D01*
X3396714Y1197907D01*
X3396745Y1197872D01*
X3396770Y1197831D01*
X3396821Y1197790D01*
X3396865Y1197741D01*
X3396907Y1197719D01*
X3396944Y1197690D01*
X3397006Y1197669D01*
X3397065Y1197638D01*
X3397119Y1197630D01*
X3397156Y1197618D01*
X3397196Y1197619D01*
X3397250Y1197611D01*
X3399790Y1197611D01*
X3399855Y1197622D01*
G37*
G36*
X3488755Y1197622D02*
X3488755Y1197622D01*
X3488821Y1197624D01*
X3488864Y1197642D01*
X3488911Y1197650D01*
X3488968Y1197684D01*
X3489028Y1197709D01*
X3489063Y1197740D01*
X3489104Y1197765D01*
X3489146Y1197816D01*
X3489194Y1197860D01*
X3489216Y1197902D01*
X3489245Y1197939D01*
X3489266Y1198001D01*
X3489297Y1198060D01*
X3489305Y1198114D01*
X3489317Y1198151D01*
X3489316Y1198191D01*
X3489324Y1198245D01*
X3489324Y1202055D01*
X3489313Y1202120D01*
X3489311Y1202186D01*
X3489293Y1202229D01*
X3489285Y1202276D01*
X3489251Y1202333D01*
X3489226Y1202393D01*
X3489195Y1202428D01*
X3489170Y1202469D01*
X3489119Y1202511D01*
X3489075Y1202559D01*
X3489033Y1202581D01*
X3488996Y1202610D01*
X3488934Y1202631D01*
X3488875Y1202662D01*
X3488821Y1202670D01*
X3488784Y1202682D01*
X3488744Y1202681D01*
X3488690Y1202689D01*
X3486150Y1202689D01*
X3486085Y1202678D01*
X3486019Y1202676D01*
X3485976Y1202658D01*
X3485929Y1202650D01*
X3485872Y1202616D01*
X3485812Y1202591D01*
X3485777Y1202560D01*
X3485736Y1202535D01*
X3485695Y1202484D01*
X3485646Y1202440D01*
X3485624Y1202398D01*
X3485595Y1202361D01*
X3485574Y1202299D01*
X3485543Y1202240D01*
X3485535Y1202186D01*
X3485523Y1202149D01*
X3485523Y1202145D01*
X3485523Y1202144D01*
X3485524Y1202109D01*
X3485516Y1202055D01*
X3485516Y1198245D01*
X3485527Y1198180D01*
X3485529Y1198114D01*
X3485547Y1198071D01*
X3485555Y1198024D01*
X3485589Y1197967D01*
X3485614Y1197907D01*
X3485645Y1197872D01*
X3485670Y1197831D01*
X3485721Y1197790D01*
X3485765Y1197741D01*
X3485807Y1197719D01*
X3485844Y1197690D01*
X3485906Y1197669D01*
X3485965Y1197638D01*
X3486019Y1197630D01*
X3486056Y1197618D01*
X3486096Y1197619D01*
X3486150Y1197611D01*
X3488690Y1197611D01*
X3488755Y1197622D01*
G37*
G36*
X623635Y1197622D02*
X623635Y1197622D01*
X623701Y1197624D01*
X623744Y1197642D01*
X623791Y1197650D01*
X623848Y1197684D01*
X623908Y1197709D01*
X623943Y1197740D01*
X623984Y1197765D01*
X624026Y1197816D01*
X624074Y1197860D01*
X624096Y1197902D01*
X624125Y1197939D01*
X624146Y1198001D01*
X624177Y1198060D01*
X624185Y1198114D01*
X624197Y1198151D01*
X624196Y1198191D01*
X624204Y1198245D01*
X624204Y1202055D01*
X624193Y1202120D01*
X624191Y1202186D01*
X624173Y1202229D01*
X624165Y1202276D01*
X624131Y1202333D01*
X624106Y1202393D01*
X624075Y1202428D01*
X624050Y1202469D01*
X623999Y1202511D01*
X623955Y1202559D01*
X623913Y1202581D01*
X623876Y1202610D01*
X623814Y1202631D01*
X623755Y1202662D01*
X623701Y1202670D01*
X623664Y1202682D01*
X623624Y1202681D01*
X623570Y1202689D01*
X621030Y1202689D01*
X620965Y1202678D01*
X620899Y1202676D01*
X620856Y1202658D01*
X620809Y1202650D01*
X620752Y1202616D01*
X620692Y1202591D01*
X620657Y1202560D01*
X620616Y1202535D01*
X620575Y1202484D01*
X620526Y1202440D01*
X620504Y1202398D01*
X620475Y1202361D01*
X620454Y1202299D01*
X620423Y1202240D01*
X620415Y1202186D01*
X620403Y1202149D01*
X620403Y1202145D01*
X620403Y1202144D01*
X620404Y1202109D01*
X620396Y1202055D01*
X620396Y1198245D01*
X620407Y1198180D01*
X620409Y1198114D01*
X620427Y1198071D01*
X620435Y1198024D01*
X620469Y1197967D01*
X620494Y1197907D01*
X620525Y1197872D01*
X620550Y1197831D01*
X620601Y1197790D01*
X620645Y1197741D01*
X620687Y1197719D01*
X620724Y1197690D01*
X620786Y1197669D01*
X620845Y1197638D01*
X620899Y1197630D01*
X620936Y1197618D01*
X620976Y1197619D01*
X621030Y1197611D01*
X623570Y1197611D01*
X623635Y1197622D01*
G37*
G36*
X1251015Y1197622D02*
X1251015Y1197622D01*
X1251081Y1197624D01*
X1251124Y1197642D01*
X1251171Y1197650D01*
X1251228Y1197684D01*
X1251288Y1197709D01*
X1251323Y1197740D01*
X1251364Y1197765D01*
X1251406Y1197816D01*
X1251454Y1197860D01*
X1251476Y1197902D01*
X1251505Y1197939D01*
X1251526Y1198001D01*
X1251557Y1198060D01*
X1251565Y1198114D01*
X1251577Y1198151D01*
X1251576Y1198191D01*
X1251584Y1198245D01*
X1251584Y1202055D01*
X1251573Y1202120D01*
X1251571Y1202186D01*
X1251553Y1202229D01*
X1251545Y1202276D01*
X1251511Y1202333D01*
X1251486Y1202393D01*
X1251455Y1202428D01*
X1251430Y1202469D01*
X1251379Y1202511D01*
X1251335Y1202559D01*
X1251293Y1202581D01*
X1251256Y1202610D01*
X1251194Y1202631D01*
X1251135Y1202662D01*
X1251081Y1202670D01*
X1251044Y1202682D01*
X1251004Y1202681D01*
X1250950Y1202689D01*
X1248410Y1202689D01*
X1248345Y1202678D01*
X1248279Y1202676D01*
X1248236Y1202658D01*
X1248189Y1202650D01*
X1248132Y1202616D01*
X1248072Y1202591D01*
X1248037Y1202560D01*
X1247996Y1202535D01*
X1247955Y1202484D01*
X1247906Y1202440D01*
X1247884Y1202398D01*
X1247855Y1202361D01*
X1247834Y1202299D01*
X1247803Y1202240D01*
X1247795Y1202186D01*
X1247783Y1202149D01*
X1247783Y1202145D01*
X1247783Y1202144D01*
X1247784Y1202109D01*
X1247776Y1202055D01*
X1247776Y1198245D01*
X1247787Y1198180D01*
X1247789Y1198114D01*
X1247807Y1198071D01*
X1247815Y1198024D01*
X1247849Y1197967D01*
X1247874Y1197907D01*
X1247905Y1197872D01*
X1247930Y1197831D01*
X1247981Y1197790D01*
X1248025Y1197741D01*
X1248067Y1197719D01*
X1248104Y1197690D01*
X1248166Y1197669D01*
X1248225Y1197638D01*
X1248279Y1197630D01*
X1248316Y1197618D01*
X1248356Y1197619D01*
X1248410Y1197611D01*
X1250950Y1197611D01*
X1251015Y1197622D01*
G37*
G36*
X1339915Y1197622D02*
X1339915Y1197622D01*
X1339981Y1197624D01*
X1340024Y1197642D01*
X1340071Y1197650D01*
X1340128Y1197684D01*
X1340188Y1197709D01*
X1340223Y1197740D01*
X1340264Y1197765D01*
X1340306Y1197816D01*
X1340354Y1197860D01*
X1340376Y1197902D01*
X1340405Y1197939D01*
X1340426Y1198001D01*
X1340457Y1198060D01*
X1340465Y1198114D01*
X1340477Y1198151D01*
X1340476Y1198191D01*
X1340484Y1198245D01*
X1340484Y1202055D01*
X1340473Y1202120D01*
X1340471Y1202186D01*
X1340453Y1202229D01*
X1340445Y1202276D01*
X1340411Y1202333D01*
X1340386Y1202393D01*
X1340355Y1202428D01*
X1340330Y1202469D01*
X1340279Y1202511D01*
X1340235Y1202559D01*
X1340193Y1202581D01*
X1340156Y1202610D01*
X1340094Y1202631D01*
X1340035Y1202662D01*
X1339981Y1202670D01*
X1339944Y1202682D01*
X1339904Y1202681D01*
X1339850Y1202689D01*
X1337310Y1202689D01*
X1337245Y1202678D01*
X1337179Y1202676D01*
X1337136Y1202658D01*
X1337089Y1202650D01*
X1337032Y1202616D01*
X1336972Y1202591D01*
X1336937Y1202560D01*
X1336896Y1202535D01*
X1336855Y1202484D01*
X1336806Y1202440D01*
X1336784Y1202398D01*
X1336755Y1202361D01*
X1336734Y1202299D01*
X1336703Y1202240D01*
X1336695Y1202186D01*
X1336683Y1202149D01*
X1336683Y1202145D01*
X1336683Y1202144D01*
X1336684Y1202109D01*
X1336676Y1202055D01*
X1336676Y1198245D01*
X1336687Y1198180D01*
X1336689Y1198114D01*
X1336707Y1198071D01*
X1336715Y1198024D01*
X1336749Y1197967D01*
X1336774Y1197907D01*
X1336805Y1197872D01*
X1336830Y1197831D01*
X1336881Y1197790D01*
X1336925Y1197741D01*
X1336967Y1197719D01*
X1337004Y1197690D01*
X1337066Y1197669D01*
X1337125Y1197638D01*
X1337179Y1197630D01*
X1337216Y1197618D01*
X1337256Y1197619D01*
X1337310Y1197611D01*
X1339850Y1197611D01*
X1339915Y1197622D01*
G37*
G36*
X2772475Y1197622D02*
X2772475Y1197622D01*
X2772541Y1197624D01*
X2772584Y1197642D01*
X2772631Y1197650D01*
X2772688Y1197684D01*
X2772748Y1197709D01*
X2772783Y1197740D01*
X2772824Y1197765D01*
X2772866Y1197816D01*
X2772914Y1197860D01*
X2772936Y1197902D01*
X2772965Y1197939D01*
X2772986Y1198001D01*
X2773017Y1198060D01*
X2773025Y1198114D01*
X2773037Y1198151D01*
X2773036Y1198191D01*
X2773044Y1198245D01*
X2773044Y1202055D01*
X2773033Y1202120D01*
X2773031Y1202186D01*
X2773013Y1202229D01*
X2773005Y1202276D01*
X2772971Y1202333D01*
X2772946Y1202393D01*
X2772915Y1202428D01*
X2772890Y1202469D01*
X2772839Y1202511D01*
X2772795Y1202559D01*
X2772753Y1202581D01*
X2772716Y1202610D01*
X2772654Y1202631D01*
X2772595Y1202662D01*
X2772541Y1202670D01*
X2772504Y1202682D01*
X2772464Y1202681D01*
X2772410Y1202689D01*
X2769870Y1202689D01*
X2769805Y1202678D01*
X2769739Y1202676D01*
X2769696Y1202658D01*
X2769649Y1202650D01*
X2769592Y1202616D01*
X2769532Y1202591D01*
X2769497Y1202560D01*
X2769456Y1202535D01*
X2769415Y1202484D01*
X2769366Y1202440D01*
X2769344Y1202398D01*
X2769315Y1202361D01*
X2769294Y1202299D01*
X2769263Y1202240D01*
X2769255Y1202186D01*
X2769243Y1202149D01*
X2769243Y1202145D01*
X2769243Y1202144D01*
X2769244Y1202109D01*
X2769236Y1202055D01*
X2769236Y1198245D01*
X2769247Y1198180D01*
X2769249Y1198114D01*
X2769267Y1198071D01*
X2769275Y1198024D01*
X2769309Y1197967D01*
X2769334Y1197907D01*
X2769365Y1197872D01*
X2769390Y1197831D01*
X2769441Y1197790D01*
X2769485Y1197741D01*
X2769527Y1197719D01*
X2769564Y1197690D01*
X2769626Y1197669D01*
X2769685Y1197638D01*
X2769739Y1197630D01*
X2769776Y1197618D01*
X2769816Y1197619D01*
X2769870Y1197611D01*
X2772410Y1197611D01*
X2772475Y1197622D01*
G37*
G36*
X1967295Y1197622D02*
X1967295Y1197622D01*
X1967361Y1197624D01*
X1967404Y1197642D01*
X1967451Y1197650D01*
X1967508Y1197684D01*
X1967568Y1197709D01*
X1967603Y1197740D01*
X1967644Y1197765D01*
X1967686Y1197816D01*
X1967734Y1197860D01*
X1967756Y1197902D01*
X1967785Y1197939D01*
X1967806Y1198001D01*
X1967837Y1198060D01*
X1967845Y1198114D01*
X1967857Y1198151D01*
X1967856Y1198191D01*
X1967864Y1198245D01*
X1967864Y1202055D01*
X1967853Y1202120D01*
X1967851Y1202186D01*
X1967833Y1202229D01*
X1967825Y1202276D01*
X1967791Y1202333D01*
X1967766Y1202393D01*
X1967735Y1202428D01*
X1967710Y1202469D01*
X1967659Y1202511D01*
X1967615Y1202559D01*
X1967573Y1202581D01*
X1967536Y1202610D01*
X1967474Y1202631D01*
X1967415Y1202662D01*
X1967361Y1202670D01*
X1967324Y1202682D01*
X1967284Y1202681D01*
X1967230Y1202689D01*
X1964690Y1202689D01*
X1964625Y1202678D01*
X1964559Y1202676D01*
X1964516Y1202658D01*
X1964469Y1202650D01*
X1964412Y1202616D01*
X1964352Y1202591D01*
X1964317Y1202560D01*
X1964276Y1202535D01*
X1964235Y1202484D01*
X1964186Y1202440D01*
X1964164Y1202398D01*
X1964135Y1202361D01*
X1964114Y1202299D01*
X1964083Y1202240D01*
X1964075Y1202186D01*
X1964063Y1202149D01*
X1964063Y1202145D01*
X1964063Y1202144D01*
X1964064Y1202109D01*
X1964056Y1202055D01*
X1964056Y1198245D01*
X1964067Y1198180D01*
X1964069Y1198114D01*
X1964087Y1198071D01*
X1964095Y1198024D01*
X1964129Y1197967D01*
X1964154Y1197907D01*
X1964185Y1197872D01*
X1964210Y1197831D01*
X1964261Y1197790D01*
X1964305Y1197741D01*
X1964347Y1197719D01*
X1964384Y1197690D01*
X1964446Y1197669D01*
X1964505Y1197638D01*
X1964559Y1197630D01*
X1964596Y1197618D01*
X1964636Y1197619D01*
X1964690Y1197611D01*
X1967230Y1197611D01*
X1967295Y1197622D01*
G37*
G36*
X2056195Y659142D02*
X2056195Y659142D01*
X2056261Y659144D01*
X2056304Y659162D01*
X2056351Y659170D01*
X2056408Y659204D01*
X2056468Y659229D01*
X2056503Y659260D01*
X2056544Y659285D01*
X2056586Y659336D01*
X2056634Y659380D01*
X2056656Y659422D01*
X2056685Y659459D01*
X2056706Y659521D01*
X2056737Y659580D01*
X2056745Y659634D01*
X2056757Y659671D01*
X2056756Y659711D01*
X2056764Y659765D01*
X2056764Y663575D01*
X2056753Y663640D01*
X2056751Y663706D01*
X2056733Y663749D01*
X2056725Y663796D01*
X2056691Y663853D01*
X2056666Y663913D01*
X2056635Y663948D01*
X2056610Y663989D01*
X2056559Y664031D01*
X2056515Y664079D01*
X2056473Y664101D01*
X2056436Y664130D01*
X2056374Y664151D01*
X2056315Y664182D01*
X2056261Y664190D01*
X2056224Y664202D01*
X2056184Y664201D01*
X2056130Y664209D01*
X2053590Y664209D01*
X2053525Y664198D01*
X2053459Y664196D01*
X2053416Y664178D01*
X2053369Y664170D01*
X2053312Y664136D01*
X2053252Y664111D01*
X2053217Y664080D01*
X2053176Y664055D01*
X2053135Y664004D01*
X2053086Y663960D01*
X2053064Y663918D01*
X2053035Y663881D01*
X2053014Y663819D01*
X2052983Y663760D01*
X2052975Y663706D01*
X2052963Y663669D01*
X2052963Y663665D01*
X2052963Y663664D01*
X2052964Y663629D01*
X2052956Y663575D01*
X2052956Y659765D01*
X2052967Y659700D01*
X2052969Y659634D01*
X2052987Y659591D01*
X2052995Y659544D01*
X2053029Y659487D01*
X2053054Y659427D01*
X2053085Y659392D01*
X2053110Y659351D01*
X2053161Y659310D01*
X2053205Y659261D01*
X2053247Y659239D01*
X2053284Y659210D01*
X2053346Y659189D01*
X2053405Y659158D01*
X2053459Y659150D01*
X2053496Y659138D01*
X2053536Y659139D01*
X2053590Y659131D01*
X2056130Y659131D01*
X2056195Y659142D01*
G37*
G36*
X1967295Y659142D02*
X1967295Y659142D01*
X1967361Y659144D01*
X1967404Y659162D01*
X1967451Y659170D01*
X1967508Y659204D01*
X1967568Y659229D01*
X1967603Y659260D01*
X1967644Y659285D01*
X1967686Y659336D01*
X1967734Y659380D01*
X1967756Y659422D01*
X1967785Y659459D01*
X1967806Y659521D01*
X1967837Y659580D01*
X1967845Y659634D01*
X1967857Y659671D01*
X1967856Y659711D01*
X1967864Y659765D01*
X1967864Y663575D01*
X1967853Y663640D01*
X1967851Y663706D01*
X1967833Y663749D01*
X1967825Y663796D01*
X1967791Y663853D01*
X1967766Y663913D01*
X1967735Y663948D01*
X1967710Y663989D01*
X1967659Y664031D01*
X1967615Y664079D01*
X1967573Y664101D01*
X1967536Y664130D01*
X1967474Y664151D01*
X1967415Y664182D01*
X1967361Y664190D01*
X1967324Y664202D01*
X1967284Y664201D01*
X1967230Y664209D01*
X1964690Y664209D01*
X1964625Y664198D01*
X1964559Y664196D01*
X1964516Y664178D01*
X1964469Y664170D01*
X1964412Y664136D01*
X1964352Y664111D01*
X1964317Y664080D01*
X1964276Y664055D01*
X1964235Y664004D01*
X1964186Y663960D01*
X1964164Y663918D01*
X1964135Y663881D01*
X1964114Y663819D01*
X1964083Y663760D01*
X1964075Y663706D01*
X1964063Y663669D01*
X1964063Y663665D01*
X1964063Y663664D01*
X1964064Y663629D01*
X1964056Y663575D01*
X1964056Y659765D01*
X1964067Y659700D01*
X1964069Y659634D01*
X1964087Y659591D01*
X1964095Y659544D01*
X1964129Y659487D01*
X1964154Y659427D01*
X1964185Y659392D01*
X1964210Y659351D01*
X1964261Y659310D01*
X1964305Y659261D01*
X1964347Y659239D01*
X1964384Y659210D01*
X1964446Y659189D01*
X1964505Y659158D01*
X1964559Y659150D01*
X1964596Y659138D01*
X1964636Y659139D01*
X1964690Y659131D01*
X1967230Y659131D01*
X1967295Y659142D01*
G37*
G36*
X623635Y659142D02*
X623635Y659142D01*
X623701Y659144D01*
X623744Y659162D01*
X623791Y659170D01*
X623848Y659204D01*
X623908Y659229D01*
X623943Y659260D01*
X623984Y659285D01*
X624026Y659336D01*
X624074Y659380D01*
X624096Y659422D01*
X624125Y659459D01*
X624146Y659521D01*
X624177Y659580D01*
X624185Y659634D01*
X624197Y659671D01*
X624196Y659711D01*
X624204Y659765D01*
X624204Y663575D01*
X624193Y663640D01*
X624191Y663706D01*
X624173Y663749D01*
X624165Y663796D01*
X624131Y663853D01*
X624106Y663913D01*
X624075Y663948D01*
X624050Y663989D01*
X623999Y664031D01*
X623955Y664079D01*
X623913Y664101D01*
X623876Y664130D01*
X623814Y664151D01*
X623755Y664182D01*
X623701Y664190D01*
X623664Y664202D01*
X623624Y664201D01*
X623570Y664209D01*
X621030Y664209D01*
X620965Y664198D01*
X620899Y664196D01*
X620856Y664178D01*
X620809Y664170D01*
X620752Y664136D01*
X620692Y664111D01*
X620657Y664080D01*
X620616Y664055D01*
X620575Y664004D01*
X620526Y663960D01*
X620504Y663918D01*
X620475Y663881D01*
X620454Y663819D01*
X620423Y663760D01*
X620415Y663706D01*
X620403Y663669D01*
X620403Y663665D01*
X620403Y663664D01*
X620404Y663629D01*
X620396Y663575D01*
X620396Y659765D01*
X620407Y659700D01*
X620409Y659634D01*
X620427Y659591D01*
X620435Y659544D01*
X620469Y659487D01*
X620494Y659427D01*
X620525Y659392D01*
X620550Y659351D01*
X620601Y659310D01*
X620645Y659261D01*
X620687Y659239D01*
X620724Y659210D01*
X620786Y659189D01*
X620845Y659158D01*
X620899Y659150D01*
X620936Y659138D01*
X620976Y659139D01*
X621030Y659131D01*
X623570Y659131D01*
X623635Y659142D01*
G37*
G36*
X2772475Y659142D02*
X2772475Y659142D01*
X2772541Y659144D01*
X2772584Y659162D01*
X2772631Y659170D01*
X2772688Y659204D01*
X2772748Y659229D01*
X2772783Y659260D01*
X2772824Y659285D01*
X2772866Y659336D01*
X2772914Y659380D01*
X2772936Y659422D01*
X2772965Y659459D01*
X2772986Y659521D01*
X2773017Y659580D01*
X2773025Y659634D01*
X2773037Y659671D01*
X2773036Y659711D01*
X2773044Y659765D01*
X2773044Y663575D01*
X2773033Y663640D01*
X2773031Y663706D01*
X2773013Y663749D01*
X2773005Y663796D01*
X2772971Y663853D01*
X2772946Y663913D01*
X2772915Y663948D01*
X2772890Y663989D01*
X2772839Y664031D01*
X2772795Y664079D01*
X2772753Y664101D01*
X2772716Y664130D01*
X2772654Y664151D01*
X2772595Y664182D01*
X2772541Y664190D01*
X2772504Y664202D01*
X2772464Y664201D01*
X2772410Y664209D01*
X2769870Y664209D01*
X2769805Y664198D01*
X2769739Y664196D01*
X2769696Y664178D01*
X2769649Y664170D01*
X2769592Y664136D01*
X2769532Y664111D01*
X2769497Y664080D01*
X2769456Y664055D01*
X2769415Y664004D01*
X2769366Y663960D01*
X2769344Y663918D01*
X2769315Y663881D01*
X2769294Y663819D01*
X2769263Y663760D01*
X2769255Y663706D01*
X2769243Y663669D01*
X2769243Y663665D01*
X2769243Y663664D01*
X2769244Y663629D01*
X2769236Y663575D01*
X2769236Y659765D01*
X2769247Y659700D01*
X2769249Y659634D01*
X2769267Y659591D01*
X2769275Y659544D01*
X2769309Y659487D01*
X2769334Y659427D01*
X2769365Y659392D01*
X2769390Y659351D01*
X2769441Y659310D01*
X2769485Y659261D01*
X2769527Y659239D01*
X2769564Y659210D01*
X2769626Y659189D01*
X2769685Y659158D01*
X2769739Y659150D01*
X2769776Y659138D01*
X2769816Y659139D01*
X2769870Y659131D01*
X2772410Y659131D01*
X2772475Y659142D01*
G37*
G36*
X534735Y659142D02*
X534735Y659142D01*
X534801Y659144D01*
X534844Y659162D01*
X534891Y659170D01*
X534948Y659204D01*
X535008Y659229D01*
X535043Y659260D01*
X535084Y659285D01*
X535126Y659336D01*
X535174Y659380D01*
X535196Y659422D01*
X535225Y659459D01*
X535246Y659521D01*
X535277Y659580D01*
X535285Y659634D01*
X535297Y659671D01*
X535296Y659711D01*
X535304Y659765D01*
X535304Y663575D01*
X535293Y663640D01*
X535291Y663706D01*
X535273Y663749D01*
X535265Y663796D01*
X535231Y663853D01*
X535206Y663913D01*
X535175Y663948D01*
X535150Y663989D01*
X535099Y664031D01*
X535055Y664079D01*
X535013Y664101D01*
X534976Y664130D01*
X534914Y664151D01*
X534855Y664182D01*
X534801Y664190D01*
X534764Y664202D01*
X534724Y664201D01*
X534670Y664209D01*
X532130Y664209D01*
X532065Y664198D01*
X531999Y664196D01*
X531956Y664178D01*
X531909Y664170D01*
X531852Y664136D01*
X531792Y664111D01*
X531757Y664080D01*
X531716Y664055D01*
X531675Y664004D01*
X531626Y663960D01*
X531604Y663918D01*
X531575Y663881D01*
X531554Y663819D01*
X531523Y663760D01*
X531515Y663706D01*
X531503Y663669D01*
X531503Y663665D01*
X531503Y663664D01*
X531504Y663629D01*
X531496Y663575D01*
X531496Y659765D01*
X531507Y659700D01*
X531509Y659634D01*
X531527Y659591D01*
X531535Y659544D01*
X531569Y659487D01*
X531594Y659427D01*
X531625Y659392D01*
X531650Y659351D01*
X531701Y659310D01*
X531745Y659261D01*
X531787Y659239D01*
X531824Y659210D01*
X531886Y659189D01*
X531945Y659158D01*
X531999Y659150D01*
X532036Y659138D01*
X532076Y659139D01*
X532130Y659131D01*
X534670Y659131D01*
X534735Y659142D01*
G37*
G36*
X1339915Y659142D02*
X1339915Y659142D01*
X1339981Y659144D01*
X1340024Y659162D01*
X1340071Y659170D01*
X1340128Y659204D01*
X1340188Y659229D01*
X1340223Y659260D01*
X1340264Y659285D01*
X1340306Y659336D01*
X1340354Y659380D01*
X1340376Y659422D01*
X1340405Y659459D01*
X1340426Y659521D01*
X1340457Y659580D01*
X1340465Y659634D01*
X1340477Y659671D01*
X1340476Y659711D01*
X1340484Y659765D01*
X1340484Y663575D01*
X1340473Y663640D01*
X1340471Y663706D01*
X1340453Y663749D01*
X1340445Y663796D01*
X1340411Y663853D01*
X1340386Y663913D01*
X1340355Y663948D01*
X1340330Y663989D01*
X1340279Y664031D01*
X1340235Y664079D01*
X1340193Y664101D01*
X1340156Y664130D01*
X1340094Y664151D01*
X1340035Y664182D01*
X1339981Y664190D01*
X1339944Y664202D01*
X1339904Y664201D01*
X1339850Y664209D01*
X1337310Y664209D01*
X1337245Y664198D01*
X1337179Y664196D01*
X1337136Y664178D01*
X1337089Y664170D01*
X1337032Y664136D01*
X1336972Y664111D01*
X1336937Y664080D01*
X1336896Y664055D01*
X1336855Y664004D01*
X1336806Y663960D01*
X1336784Y663918D01*
X1336755Y663881D01*
X1336734Y663819D01*
X1336703Y663760D01*
X1336695Y663706D01*
X1336683Y663669D01*
X1336683Y663665D01*
X1336683Y663664D01*
X1336684Y663629D01*
X1336676Y663575D01*
X1336676Y659765D01*
X1336687Y659700D01*
X1336689Y659634D01*
X1336707Y659591D01*
X1336715Y659544D01*
X1336749Y659487D01*
X1336774Y659427D01*
X1336805Y659392D01*
X1336830Y659351D01*
X1336881Y659310D01*
X1336925Y659261D01*
X1336967Y659239D01*
X1337004Y659210D01*
X1337066Y659189D01*
X1337125Y659158D01*
X1337179Y659150D01*
X1337216Y659138D01*
X1337256Y659139D01*
X1337310Y659131D01*
X1339850Y659131D01*
X1339915Y659142D01*
G37*
G36*
X2683575Y659142D02*
X2683575Y659142D01*
X2683641Y659144D01*
X2683684Y659162D01*
X2683731Y659170D01*
X2683788Y659204D01*
X2683848Y659229D01*
X2683883Y659260D01*
X2683924Y659285D01*
X2683966Y659336D01*
X2684014Y659380D01*
X2684036Y659422D01*
X2684065Y659459D01*
X2684086Y659521D01*
X2684117Y659580D01*
X2684125Y659634D01*
X2684137Y659671D01*
X2684136Y659711D01*
X2684144Y659765D01*
X2684144Y663575D01*
X2684133Y663640D01*
X2684131Y663706D01*
X2684113Y663749D01*
X2684105Y663796D01*
X2684071Y663853D01*
X2684046Y663913D01*
X2684015Y663948D01*
X2683990Y663989D01*
X2683939Y664031D01*
X2683895Y664079D01*
X2683853Y664101D01*
X2683816Y664130D01*
X2683754Y664151D01*
X2683695Y664182D01*
X2683641Y664190D01*
X2683604Y664202D01*
X2683564Y664201D01*
X2683510Y664209D01*
X2680970Y664209D01*
X2680905Y664198D01*
X2680839Y664196D01*
X2680796Y664178D01*
X2680749Y664170D01*
X2680692Y664136D01*
X2680632Y664111D01*
X2680597Y664080D01*
X2680556Y664055D01*
X2680515Y664004D01*
X2680466Y663960D01*
X2680444Y663918D01*
X2680415Y663881D01*
X2680394Y663819D01*
X2680363Y663760D01*
X2680355Y663706D01*
X2680343Y663669D01*
X2680343Y663665D01*
X2680343Y663664D01*
X2680344Y663629D01*
X2680336Y663575D01*
X2680336Y659765D01*
X2680347Y659700D01*
X2680349Y659634D01*
X2680367Y659591D01*
X2680375Y659544D01*
X2680409Y659487D01*
X2680434Y659427D01*
X2680465Y659392D01*
X2680490Y659351D01*
X2680541Y659310D01*
X2680585Y659261D01*
X2680627Y659239D01*
X2680664Y659210D01*
X2680726Y659189D01*
X2680785Y659158D01*
X2680839Y659150D01*
X2680876Y659138D01*
X2680916Y659139D01*
X2680970Y659131D01*
X2683510Y659131D01*
X2683575Y659142D01*
G37*
G36*
X3488755Y659142D02*
X3488755Y659142D01*
X3488821Y659144D01*
X3488864Y659162D01*
X3488911Y659170D01*
X3488968Y659204D01*
X3489028Y659229D01*
X3489063Y659260D01*
X3489104Y659285D01*
X3489146Y659336D01*
X3489194Y659380D01*
X3489216Y659422D01*
X3489245Y659459D01*
X3489266Y659521D01*
X3489297Y659580D01*
X3489305Y659634D01*
X3489317Y659671D01*
X3489316Y659711D01*
X3489324Y659765D01*
X3489324Y663575D01*
X3489313Y663640D01*
X3489311Y663706D01*
X3489293Y663749D01*
X3489285Y663796D01*
X3489251Y663853D01*
X3489226Y663913D01*
X3489195Y663948D01*
X3489170Y663989D01*
X3489119Y664031D01*
X3489075Y664079D01*
X3489033Y664101D01*
X3488996Y664130D01*
X3488934Y664151D01*
X3488875Y664182D01*
X3488821Y664190D01*
X3488784Y664202D01*
X3488744Y664201D01*
X3488690Y664209D01*
X3486150Y664209D01*
X3486085Y664198D01*
X3486019Y664196D01*
X3485976Y664178D01*
X3485929Y664170D01*
X3485872Y664136D01*
X3485812Y664111D01*
X3485777Y664080D01*
X3485736Y664055D01*
X3485695Y664004D01*
X3485646Y663960D01*
X3485624Y663918D01*
X3485595Y663881D01*
X3485574Y663819D01*
X3485543Y663760D01*
X3485535Y663706D01*
X3485523Y663669D01*
X3485523Y663665D01*
X3485523Y663664D01*
X3485524Y663629D01*
X3485516Y663575D01*
X3485516Y659765D01*
X3485527Y659700D01*
X3485529Y659634D01*
X3485547Y659591D01*
X3485555Y659544D01*
X3485589Y659487D01*
X3485614Y659427D01*
X3485645Y659392D01*
X3485670Y659351D01*
X3485721Y659310D01*
X3485765Y659261D01*
X3485807Y659239D01*
X3485844Y659210D01*
X3485906Y659189D01*
X3485965Y659158D01*
X3486019Y659150D01*
X3486056Y659138D01*
X3486096Y659139D01*
X3486150Y659131D01*
X3488690Y659131D01*
X3488755Y659142D01*
G37*
G36*
X1251015Y659142D02*
X1251015Y659142D01*
X1251081Y659144D01*
X1251124Y659162D01*
X1251171Y659170D01*
X1251228Y659204D01*
X1251288Y659229D01*
X1251323Y659260D01*
X1251364Y659285D01*
X1251406Y659336D01*
X1251454Y659380D01*
X1251476Y659422D01*
X1251505Y659459D01*
X1251526Y659521D01*
X1251557Y659580D01*
X1251565Y659634D01*
X1251577Y659671D01*
X1251576Y659711D01*
X1251584Y659765D01*
X1251584Y663575D01*
X1251573Y663640D01*
X1251571Y663706D01*
X1251553Y663749D01*
X1251545Y663796D01*
X1251511Y663853D01*
X1251486Y663913D01*
X1251455Y663948D01*
X1251430Y663989D01*
X1251379Y664031D01*
X1251335Y664079D01*
X1251293Y664101D01*
X1251256Y664130D01*
X1251194Y664151D01*
X1251135Y664182D01*
X1251081Y664190D01*
X1251044Y664202D01*
X1251004Y664201D01*
X1250950Y664209D01*
X1248410Y664209D01*
X1248345Y664198D01*
X1248279Y664196D01*
X1248236Y664178D01*
X1248189Y664170D01*
X1248132Y664136D01*
X1248072Y664111D01*
X1248037Y664080D01*
X1247996Y664055D01*
X1247955Y664004D01*
X1247906Y663960D01*
X1247884Y663918D01*
X1247855Y663881D01*
X1247834Y663819D01*
X1247803Y663760D01*
X1247795Y663706D01*
X1247783Y663669D01*
X1247783Y663665D01*
X1247783Y663664D01*
X1247784Y663629D01*
X1247776Y663575D01*
X1247776Y659765D01*
X1247787Y659700D01*
X1247789Y659634D01*
X1247807Y659591D01*
X1247815Y659544D01*
X1247849Y659487D01*
X1247874Y659427D01*
X1247905Y659392D01*
X1247930Y659351D01*
X1247981Y659310D01*
X1248025Y659261D01*
X1248067Y659239D01*
X1248104Y659210D01*
X1248166Y659189D01*
X1248225Y659158D01*
X1248279Y659150D01*
X1248316Y659138D01*
X1248356Y659139D01*
X1248410Y659131D01*
X1250950Y659131D01*
X1251015Y659142D01*
G37*
G36*
X3399855Y659142D02*
X3399855Y659142D01*
X3399921Y659144D01*
X3399964Y659162D01*
X3400011Y659170D01*
X3400068Y659204D01*
X3400128Y659229D01*
X3400163Y659260D01*
X3400204Y659285D01*
X3400246Y659336D01*
X3400294Y659380D01*
X3400316Y659422D01*
X3400345Y659459D01*
X3400366Y659521D01*
X3400397Y659580D01*
X3400405Y659634D01*
X3400417Y659671D01*
X3400416Y659711D01*
X3400424Y659765D01*
X3400424Y663575D01*
X3400413Y663640D01*
X3400411Y663706D01*
X3400393Y663749D01*
X3400385Y663796D01*
X3400351Y663853D01*
X3400326Y663913D01*
X3400295Y663948D01*
X3400270Y663989D01*
X3400219Y664031D01*
X3400175Y664079D01*
X3400133Y664101D01*
X3400096Y664130D01*
X3400034Y664151D01*
X3399975Y664182D01*
X3399921Y664190D01*
X3399884Y664202D01*
X3399844Y664201D01*
X3399790Y664209D01*
X3397250Y664209D01*
X3397185Y664198D01*
X3397119Y664196D01*
X3397076Y664178D01*
X3397029Y664170D01*
X3396972Y664136D01*
X3396912Y664111D01*
X3396877Y664080D01*
X3396836Y664055D01*
X3396795Y664004D01*
X3396746Y663960D01*
X3396724Y663918D01*
X3396695Y663881D01*
X3396674Y663819D01*
X3396643Y663760D01*
X3396635Y663706D01*
X3396623Y663669D01*
X3396623Y663665D01*
X3396623Y663664D01*
X3396624Y663629D01*
X3396616Y663575D01*
X3396616Y659765D01*
X3396627Y659700D01*
X3396629Y659634D01*
X3396647Y659591D01*
X3396655Y659544D01*
X3396689Y659487D01*
X3396714Y659427D01*
X3396745Y659392D01*
X3396770Y659351D01*
X3396821Y659310D01*
X3396865Y659261D01*
X3396907Y659239D01*
X3396944Y659210D01*
X3397006Y659189D01*
X3397065Y659158D01*
X3397119Y659150D01*
X3397156Y659138D01*
X3397196Y659139D01*
X3397250Y659131D01*
X3399790Y659131D01*
X3399855Y659142D01*
G37*
G36*
X2056195Y120662D02*
X2056195Y120662D01*
X2056261Y120664D01*
X2056304Y120682D01*
X2056351Y120690D01*
X2056408Y120724D01*
X2056468Y120749D01*
X2056503Y120780D01*
X2056544Y120805D01*
X2056586Y120856D01*
X2056634Y120900D01*
X2056656Y120942D01*
X2056685Y120979D01*
X2056706Y121041D01*
X2056737Y121100D01*
X2056745Y121154D01*
X2056757Y121191D01*
X2056756Y121231D01*
X2056764Y121285D01*
X2056764Y125095D01*
X2056753Y125160D01*
X2056751Y125226D01*
X2056733Y125269D01*
X2056725Y125316D01*
X2056691Y125373D01*
X2056666Y125433D01*
X2056635Y125468D01*
X2056610Y125509D01*
X2056559Y125551D01*
X2056515Y125599D01*
X2056473Y125621D01*
X2056436Y125650D01*
X2056374Y125671D01*
X2056315Y125702D01*
X2056261Y125710D01*
X2056224Y125722D01*
X2056184Y125721D01*
X2056130Y125729D01*
X2053590Y125729D01*
X2053525Y125718D01*
X2053459Y125716D01*
X2053416Y125698D01*
X2053369Y125690D01*
X2053312Y125656D01*
X2053252Y125631D01*
X2053217Y125600D01*
X2053176Y125575D01*
X2053135Y125524D01*
X2053086Y125480D01*
X2053064Y125438D01*
X2053035Y125401D01*
X2053014Y125339D01*
X2052983Y125280D01*
X2052975Y125226D01*
X2052963Y125189D01*
X2052963Y125185D01*
X2052963Y125184D01*
X2052964Y125149D01*
X2052956Y125095D01*
X2052956Y121285D01*
X2052967Y121220D01*
X2052969Y121154D01*
X2052987Y121111D01*
X2052995Y121064D01*
X2053029Y121007D01*
X2053054Y120947D01*
X2053085Y120912D01*
X2053110Y120871D01*
X2053161Y120830D01*
X2053205Y120781D01*
X2053247Y120759D01*
X2053284Y120730D01*
X2053346Y120709D01*
X2053405Y120678D01*
X2053459Y120670D01*
X2053496Y120658D01*
X2053536Y120659D01*
X2053590Y120651D01*
X2056130Y120651D01*
X2056195Y120662D01*
G37*
G36*
X2683575Y120662D02*
X2683575Y120662D01*
X2683641Y120664D01*
X2683684Y120682D01*
X2683731Y120690D01*
X2683788Y120724D01*
X2683848Y120749D01*
X2683883Y120780D01*
X2683924Y120805D01*
X2683966Y120856D01*
X2684014Y120900D01*
X2684036Y120942D01*
X2684065Y120979D01*
X2684086Y121041D01*
X2684117Y121100D01*
X2684125Y121154D01*
X2684137Y121191D01*
X2684136Y121231D01*
X2684144Y121285D01*
X2684144Y125095D01*
X2684133Y125160D01*
X2684131Y125226D01*
X2684113Y125269D01*
X2684105Y125316D01*
X2684071Y125373D01*
X2684046Y125433D01*
X2684015Y125468D01*
X2683990Y125509D01*
X2683939Y125551D01*
X2683895Y125599D01*
X2683853Y125621D01*
X2683816Y125650D01*
X2683754Y125671D01*
X2683695Y125702D01*
X2683641Y125710D01*
X2683604Y125722D01*
X2683564Y125721D01*
X2683510Y125729D01*
X2680970Y125729D01*
X2680905Y125718D01*
X2680839Y125716D01*
X2680796Y125698D01*
X2680749Y125690D01*
X2680692Y125656D01*
X2680632Y125631D01*
X2680597Y125600D01*
X2680556Y125575D01*
X2680515Y125524D01*
X2680466Y125480D01*
X2680444Y125438D01*
X2680415Y125401D01*
X2680394Y125339D01*
X2680363Y125280D01*
X2680355Y125226D01*
X2680343Y125189D01*
X2680343Y125185D01*
X2680343Y125184D01*
X2680344Y125149D01*
X2680336Y125095D01*
X2680336Y121285D01*
X2680347Y121220D01*
X2680349Y121154D01*
X2680367Y121111D01*
X2680375Y121064D01*
X2680409Y121007D01*
X2680434Y120947D01*
X2680465Y120912D01*
X2680490Y120871D01*
X2680541Y120830D01*
X2680585Y120781D01*
X2680627Y120759D01*
X2680664Y120730D01*
X2680726Y120709D01*
X2680785Y120678D01*
X2680839Y120670D01*
X2680876Y120658D01*
X2680916Y120659D01*
X2680970Y120651D01*
X2683510Y120651D01*
X2683575Y120662D01*
G37*
G36*
X1967295Y120662D02*
X1967295Y120662D01*
X1967361Y120664D01*
X1967404Y120682D01*
X1967451Y120690D01*
X1967508Y120724D01*
X1967568Y120749D01*
X1967603Y120780D01*
X1967644Y120805D01*
X1967686Y120856D01*
X1967734Y120900D01*
X1967756Y120942D01*
X1967785Y120979D01*
X1967806Y121041D01*
X1967837Y121100D01*
X1967845Y121154D01*
X1967857Y121191D01*
X1967856Y121231D01*
X1967864Y121285D01*
X1967864Y125095D01*
X1967853Y125160D01*
X1967851Y125226D01*
X1967833Y125269D01*
X1967825Y125316D01*
X1967791Y125373D01*
X1967766Y125433D01*
X1967735Y125468D01*
X1967710Y125509D01*
X1967659Y125551D01*
X1967615Y125599D01*
X1967573Y125621D01*
X1967536Y125650D01*
X1967474Y125671D01*
X1967415Y125702D01*
X1967361Y125710D01*
X1967324Y125722D01*
X1967284Y125721D01*
X1967230Y125729D01*
X1964690Y125729D01*
X1964625Y125718D01*
X1964559Y125716D01*
X1964516Y125698D01*
X1964469Y125690D01*
X1964412Y125656D01*
X1964352Y125631D01*
X1964317Y125600D01*
X1964276Y125575D01*
X1964235Y125524D01*
X1964186Y125480D01*
X1964164Y125438D01*
X1964135Y125401D01*
X1964114Y125339D01*
X1964083Y125280D01*
X1964075Y125226D01*
X1964063Y125189D01*
X1964063Y125185D01*
X1964063Y125184D01*
X1964064Y125149D01*
X1964056Y125095D01*
X1964056Y121285D01*
X1964067Y121220D01*
X1964069Y121154D01*
X1964087Y121111D01*
X1964095Y121064D01*
X1964129Y121007D01*
X1964154Y120947D01*
X1964185Y120912D01*
X1964210Y120871D01*
X1964261Y120830D01*
X1964305Y120781D01*
X1964347Y120759D01*
X1964384Y120730D01*
X1964446Y120709D01*
X1964505Y120678D01*
X1964559Y120670D01*
X1964596Y120658D01*
X1964636Y120659D01*
X1964690Y120651D01*
X1967230Y120651D01*
X1967295Y120662D01*
G37*
G36*
X3399855Y120662D02*
X3399855Y120662D01*
X3399921Y120664D01*
X3399964Y120682D01*
X3400011Y120690D01*
X3400068Y120724D01*
X3400128Y120749D01*
X3400163Y120780D01*
X3400204Y120805D01*
X3400246Y120856D01*
X3400294Y120900D01*
X3400316Y120942D01*
X3400345Y120979D01*
X3400366Y121041D01*
X3400397Y121100D01*
X3400405Y121154D01*
X3400417Y121191D01*
X3400416Y121231D01*
X3400424Y121285D01*
X3400424Y125095D01*
X3400413Y125160D01*
X3400411Y125226D01*
X3400393Y125269D01*
X3400385Y125316D01*
X3400351Y125373D01*
X3400326Y125433D01*
X3400295Y125468D01*
X3400270Y125509D01*
X3400219Y125551D01*
X3400175Y125599D01*
X3400133Y125621D01*
X3400096Y125650D01*
X3400034Y125671D01*
X3399975Y125702D01*
X3399921Y125710D01*
X3399884Y125722D01*
X3399844Y125721D01*
X3399790Y125729D01*
X3397250Y125729D01*
X3397185Y125718D01*
X3397119Y125716D01*
X3397076Y125698D01*
X3397029Y125690D01*
X3396972Y125656D01*
X3396912Y125631D01*
X3396877Y125600D01*
X3396836Y125575D01*
X3396795Y125524D01*
X3396746Y125480D01*
X3396724Y125438D01*
X3396695Y125401D01*
X3396674Y125339D01*
X3396643Y125280D01*
X3396635Y125226D01*
X3396623Y125189D01*
X3396623Y125185D01*
X3396623Y125184D01*
X3396624Y125149D01*
X3396616Y125095D01*
X3396616Y121285D01*
X3396627Y121220D01*
X3396629Y121154D01*
X3396647Y121111D01*
X3396655Y121064D01*
X3396689Y121007D01*
X3396714Y120947D01*
X3396745Y120912D01*
X3396770Y120871D01*
X3396821Y120830D01*
X3396865Y120781D01*
X3396907Y120759D01*
X3396944Y120730D01*
X3397006Y120709D01*
X3397065Y120678D01*
X3397119Y120670D01*
X3397156Y120658D01*
X3397196Y120659D01*
X3397250Y120651D01*
X3399790Y120651D01*
X3399855Y120662D01*
G37*
G36*
X1251015Y120662D02*
X1251015Y120662D01*
X1251081Y120664D01*
X1251124Y120682D01*
X1251171Y120690D01*
X1251228Y120724D01*
X1251288Y120749D01*
X1251323Y120780D01*
X1251364Y120805D01*
X1251406Y120856D01*
X1251454Y120900D01*
X1251476Y120942D01*
X1251505Y120979D01*
X1251526Y121041D01*
X1251557Y121100D01*
X1251565Y121154D01*
X1251577Y121191D01*
X1251576Y121231D01*
X1251584Y121285D01*
X1251584Y125095D01*
X1251573Y125160D01*
X1251571Y125226D01*
X1251553Y125269D01*
X1251545Y125316D01*
X1251511Y125373D01*
X1251486Y125433D01*
X1251455Y125468D01*
X1251430Y125509D01*
X1251379Y125551D01*
X1251335Y125599D01*
X1251293Y125621D01*
X1251256Y125650D01*
X1251194Y125671D01*
X1251135Y125702D01*
X1251081Y125710D01*
X1251044Y125722D01*
X1251004Y125721D01*
X1250950Y125729D01*
X1248410Y125729D01*
X1248345Y125718D01*
X1248279Y125716D01*
X1248236Y125698D01*
X1248189Y125690D01*
X1248132Y125656D01*
X1248072Y125631D01*
X1248037Y125600D01*
X1247996Y125575D01*
X1247955Y125524D01*
X1247906Y125480D01*
X1247884Y125438D01*
X1247855Y125401D01*
X1247834Y125339D01*
X1247803Y125280D01*
X1247795Y125226D01*
X1247783Y125189D01*
X1247783Y125185D01*
X1247783Y125184D01*
X1247784Y125149D01*
X1247776Y125095D01*
X1247776Y121285D01*
X1247787Y121220D01*
X1247789Y121154D01*
X1247807Y121111D01*
X1247815Y121064D01*
X1247849Y121007D01*
X1247874Y120947D01*
X1247905Y120912D01*
X1247930Y120871D01*
X1247981Y120830D01*
X1248025Y120781D01*
X1248067Y120759D01*
X1248104Y120730D01*
X1248166Y120709D01*
X1248225Y120678D01*
X1248279Y120670D01*
X1248316Y120658D01*
X1248356Y120659D01*
X1248410Y120651D01*
X1250950Y120651D01*
X1251015Y120662D01*
G37*
G36*
X1339915Y120662D02*
X1339915Y120662D01*
X1339981Y120664D01*
X1340024Y120682D01*
X1340071Y120690D01*
X1340128Y120724D01*
X1340188Y120749D01*
X1340223Y120780D01*
X1340264Y120805D01*
X1340306Y120856D01*
X1340354Y120900D01*
X1340376Y120942D01*
X1340405Y120979D01*
X1340426Y121041D01*
X1340457Y121100D01*
X1340465Y121154D01*
X1340477Y121191D01*
X1340476Y121231D01*
X1340484Y121285D01*
X1340484Y125095D01*
X1340473Y125160D01*
X1340471Y125226D01*
X1340453Y125269D01*
X1340445Y125316D01*
X1340411Y125373D01*
X1340386Y125433D01*
X1340355Y125468D01*
X1340330Y125509D01*
X1340279Y125551D01*
X1340235Y125599D01*
X1340193Y125621D01*
X1340156Y125650D01*
X1340094Y125671D01*
X1340035Y125702D01*
X1339981Y125710D01*
X1339944Y125722D01*
X1339904Y125721D01*
X1339850Y125729D01*
X1337310Y125729D01*
X1337245Y125718D01*
X1337179Y125716D01*
X1337136Y125698D01*
X1337089Y125690D01*
X1337032Y125656D01*
X1336972Y125631D01*
X1336937Y125600D01*
X1336896Y125575D01*
X1336855Y125524D01*
X1336806Y125480D01*
X1336784Y125438D01*
X1336755Y125401D01*
X1336734Y125339D01*
X1336703Y125280D01*
X1336695Y125226D01*
X1336683Y125189D01*
X1336683Y125185D01*
X1336683Y125184D01*
X1336684Y125149D01*
X1336676Y125095D01*
X1336676Y121285D01*
X1336687Y121220D01*
X1336689Y121154D01*
X1336707Y121111D01*
X1336715Y121064D01*
X1336749Y121007D01*
X1336774Y120947D01*
X1336805Y120912D01*
X1336830Y120871D01*
X1336881Y120830D01*
X1336925Y120781D01*
X1336967Y120759D01*
X1337004Y120730D01*
X1337066Y120709D01*
X1337125Y120678D01*
X1337179Y120670D01*
X1337216Y120658D01*
X1337256Y120659D01*
X1337310Y120651D01*
X1339850Y120651D01*
X1339915Y120662D01*
G37*
G36*
X3488755Y120662D02*
X3488755Y120662D01*
X3488821Y120664D01*
X3488864Y120682D01*
X3488911Y120690D01*
X3488968Y120724D01*
X3489028Y120749D01*
X3489063Y120780D01*
X3489104Y120805D01*
X3489146Y120856D01*
X3489194Y120900D01*
X3489216Y120942D01*
X3489245Y120979D01*
X3489266Y121041D01*
X3489297Y121100D01*
X3489305Y121154D01*
X3489317Y121191D01*
X3489316Y121231D01*
X3489324Y121285D01*
X3489324Y125095D01*
X3489313Y125160D01*
X3489311Y125226D01*
X3489293Y125269D01*
X3489285Y125316D01*
X3489251Y125373D01*
X3489226Y125433D01*
X3489195Y125468D01*
X3489170Y125509D01*
X3489119Y125551D01*
X3489075Y125599D01*
X3489033Y125621D01*
X3488996Y125650D01*
X3488934Y125671D01*
X3488875Y125702D01*
X3488821Y125710D01*
X3488784Y125722D01*
X3488744Y125721D01*
X3488690Y125729D01*
X3486150Y125729D01*
X3486085Y125718D01*
X3486019Y125716D01*
X3485976Y125698D01*
X3485929Y125690D01*
X3485872Y125656D01*
X3485812Y125631D01*
X3485777Y125600D01*
X3485736Y125575D01*
X3485695Y125524D01*
X3485646Y125480D01*
X3485624Y125438D01*
X3485595Y125401D01*
X3485574Y125339D01*
X3485543Y125280D01*
X3485535Y125226D01*
X3485523Y125189D01*
X3485523Y125185D01*
X3485523Y125184D01*
X3485524Y125149D01*
X3485516Y125095D01*
X3485516Y121285D01*
X3485527Y121220D01*
X3485529Y121154D01*
X3485547Y121111D01*
X3485555Y121064D01*
X3485589Y121007D01*
X3485614Y120947D01*
X3485645Y120912D01*
X3485670Y120871D01*
X3485721Y120830D01*
X3485765Y120781D01*
X3485807Y120759D01*
X3485844Y120730D01*
X3485906Y120709D01*
X3485965Y120678D01*
X3486019Y120670D01*
X3486056Y120658D01*
X3486096Y120659D01*
X3486150Y120651D01*
X3488690Y120651D01*
X3488755Y120662D01*
G37*
G36*
X2772475Y120662D02*
X2772475Y120662D01*
X2772541Y120664D01*
X2772584Y120682D01*
X2772631Y120690D01*
X2772688Y120724D01*
X2772748Y120749D01*
X2772783Y120780D01*
X2772824Y120805D01*
X2772866Y120856D01*
X2772914Y120900D01*
X2772936Y120942D01*
X2772965Y120979D01*
X2772986Y121041D01*
X2773017Y121100D01*
X2773025Y121154D01*
X2773037Y121191D01*
X2773036Y121231D01*
X2773044Y121285D01*
X2773044Y125095D01*
X2773033Y125160D01*
X2773031Y125226D01*
X2773013Y125269D01*
X2773005Y125316D01*
X2772971Y125373D01*
X2772946Y125433D01*
X2772915Y125468D01*
X2772890Y125509D01*
X2772839Y125551D01*
X2772795Y125599D01*
X2772753Y125621D01*
X2772716Y125650D01*
X2772654Y125671D01*
X2772595Y125702D01*
X2772541Y125710D01*
X2772504Y125722D01*
X2772464Y125721D01*
X2772410Y125729D01*
X2769870Y125729D01*
X2769805Y125718D01*
X2769739Y125716D01*
X2769696Y125698D01*
X2769649Y125690D01*
X2769592Y125656D01*
X2769532Y125631D01*
X2769497Y125600D01*
X2769456Y125575D01*
X2769415Y125524D01*
X2769366Y125480D01*
X2769344Y125438D01*
X2769315Y125401D01*
X2769294Y125339D01*
X2769263Y125280D01*
X2769255Y125226D01*
X2769243Y125189D01*
X2769243Y125185D01*
X2769243Y125184D01*
X2769244Y125149D01*
X2769236Y125095D01*
X2769236Y121285D01*
X2769247Y121220D01*
X2769249Y121154D01*
X2769267Y121111D01*
X2769275Y121064D01*
X2769309Y121007D01*
X2769334Y120947D01*
X2769365Y120912D01*
X2769390Y120871D01*
X2769441Y120830D01*
X2769485Y120781D01*
X2769527Y120759D01*
X2769564Y120730D01*
X2769626Y120709D01*
X2769685Y120678D01*
X2769739Y120670D01*
X2769776Y120658D01*
X2769816Y120659D01*
X2769870Y120651D01*
X2772410Y120651D01*
X2772475Y120662D01*
G37*
G36*
X534735Y120662D02*
X534735Y120662D01*
X534801Y120664D01*
X534844Y120682D01*
X534891Y120690D01*
X534948Y120724D01*
X535008Y120749D01*
X535043Y120780D01*
X535084Y120805D01*
X535126Y120856D01*
X535174Y120900D01*
X535196Y120942D01*
X535225Y120979D01*
X535246Y121041D01*
X535277Y121100D01*
X535285Y121154D01*
X535297Y121191D01*
X535296Y121231D01*
X535304Y121285D01*
X535304Y125095D01*
X535293Y125160D01*
X535291Y125226D01*
X535273Y125269D01*
X535265Y125316D01*
X535231Y125373D01*
X535206Y125433D01*
X535175Y125468D01*
X535150Y125509D01*
X535099Y125551D01*
X535055Y125599D01*
X535013Y125621D01*
X534976Y125650D01*
X534914Y125671D01*
X534855Y125702D01*
X534801Y125710D01*
X534764Y125722D01*
X534724Y125721D01*
X534670Y125729D01*
X532130Y125729D01*
X532065Y125718D01*
X531999Y125716D01*
X531956Y125698D01*
X531909Y125690D01*
X531852Y125656D01*
X531792Y125631D01*
X531757Y125600D01*
X531716Y125575D01*
X531675Y125524D01*
X531626Y125480D01*
X531604Y125438D01*
X531575Y125401D01*
X531554Y125339D01*
X531523Y125280D01*
X531515Y125226D01*
X531503Y125189D01*
X531503Y125185D01*
X531503Y125184D01*
X531504Y125149D01*
X531496Y125095D01*
X531496Y121285D01*
X531507Y121220D01*
X531509Y121154D01*
X531527Y121111D01*
X531535Y121064D01*
X531569Y121007D01*
X531594Y120947D01*
X531625Y120912D01*
X531650Y120871D01*
X531701Y120830D01*
X531745Y120781D01*
X531787Y120759D01*
X531824Y120730D01*
X531886Y120709D01*
X531945Y120678D01*
X531999Y120670D01*
X532036Y120658D01*
X532076Y120659D01*
X532130Y120651D01*
X534670Y120651D01*
X534735Y120662D01*
G37*
G36*
X623635Y120662D02*
X623635Y120662D01*
X623701Y120664D01*
X623744Y120682D01*
X623791Y120690D01*
X623848Y120724D01*
X623908Y120749D01*
X623943Y120780D01*
X623984Y120805D01*
X624026Y120856D01*
X624074Y120900D01*
X624096Y120942D01*
X624125Y120979D01*
X624146Y121041D01*
X624177Y121100D01*
X624185Y121154D01*
X624197Y121191D01*
X624196Y121231D01*
X624204Y121285D01*
X624204Y125095D01*
X624193Y125160D01*
X624191Y125226D01*
X624173Y125269D01*
X624165Y125316D01*
X624131Y125373D01*
X624106Y125433D01*
X624075Y125468D01*
X624050Y125509D01*
X623999Y125551D01*
X623955Y125599D01*
X623913Y125621D01*
X623876Y125650D01*
X623814Y125671D01*
X623755Y125702D01*
X623701Y125710D01*
X623664Y125722D01*
X623624Y125721D01*
X623570Y125729D01*
X621030Y125729D01*
X620965Y125718D01*
X620899Y125716D01*
X620856Y125698D01*
X620809Y125690D01*
X620752Y125656D01*
X620692Y125631D01*
X620657Y125600D01*
X620616Y125575D01*
X620575Y125524D01*
X620526Y125480D01*
X620504Y125438D01*
X620475Y125401D01*
X620454Y125339D01*
X620423Y125280D01*
X620415Y125226D01*
X620403Y125189D01*
X620403Y125185D01*
X620403Y125184D01*
X620404Y125149D01*
X620396Y125095D01*
X620396Y121285D01*
X620407Y121220D01*
X620409Y121154D01*
X620427Y121111D01*
X620435Y121064D01*
X620469Y121007D01*
X620494Y120947D01*
X620525Y120912D01*
X620550Y120871D01*
X620601Y120830D01*
X620645Y120781D01*
X620687Y120759D01*
X620724Y120730D01*
X620786Y120709D01*
X620845Y120678D01*
X620899Y120670D01*
X620936Y120658D01*
X620976Y120659D01*
X621030Y120651D01*
X623570Y120651D01*
X623635Y120662D01*
G37*
D10*
X139700Y25400D03*
X660400Y76200D03*
X660400Y355600D03*
X152400Y508000D03*
D11*
X647700Y292100D03*
X647700Y266700D03*
D12*
X660400Y304800D03*
X660400Y279400D03*
X660400Y254000D03*
X635000Y304800D03*
X635000Y279400D03*
X635000Y254000D03*
D13*
X20320Y86360D03*
X66040Y86360D03*
D14*
X622300Y128270D03*
X622300Y118110D03*
X533400Y128270D03*
X533400Y118110D03*
D15*
X114300Y520700D03*
X660400Y114300D03*
D10*
X855980Y25400D03*
X1376680Y76200D03*
X1376680Y355600D03*
X868680Y508000D03*
D11*
X1363980Y292100D03*
X1363980Y266700D03*
D12*
X1376680Y304800D03*
X1376680Y279400D03*
X1376680Y254000D03*
X1351280Y304800D03*
X1351280Y279400D03*
X1351280Y254000D03*
D13*
X736600Y86360D03*
X782320Y86360D03*
D14*
X1338580Y128270D03*
X1338580Y118110D03*
X1249680Y128270D03*
X1249680Y118110D03*
D15*
X830580Y520700D03*
X1376680Y114300D03*
D10*
X1572260Y25400D03*
X2092960Y76200D03*
X2092960Y355600D03*
X1584960Y508000D03*
D11*
X2080260Y292100D03*
X2080260Y266700D03*
D12*
X2092960Y304800D03*
X2092960Y279400D03*
X2092960Y254000D03*
X2067560Y304800D03*
X2067560Y279400D03*
X2067560Y254000D03*
D13*
X1452880Y86360D03*
X1498600Y86360D03*
D14*
X2054860Y128270D03*
X2054860Y118110D03*
X1965960Y128270D03*
X1965960Y118110D03*
D15*
X1546860Y520700D03*
X2092960Y114300D03*
D10*
X2288540Y25400D03*
X2809240Y76200D03*
X2809240Y355600D03*
X2301240Y508000D03*
D11*
X2796540Y292100D03*
X2796540Y266700D03*
D12*
X2809240Y304800D03*
X2809240Y279400D03*
X2809240Y254000D03*
X2783840Y304800D03*
X2783840Y279400D03*
X2783840Y254000D03*
D13*
X2169160Y86360D03*
X2214880Y86360D03*
D14*
X2771140Y128270D03*
X2771140Y118110D03*
X2682240Y128270D03*
X2682240Y118110D03*
D15*
X2263140Y520700D03*
X2809240Y114300D03*
D10*
X3004820Y25400D03*
X3525520Y76200D03*
X3525520Y355600D03*
X3017520Y508000D03*
D11*
X3512820Y292100D03*
X3512820Y266700D03*
D12*
X3525520Y304800D03*
X3525520Y279400D03*
X3525520Y254000D03*
X3500120Y304800D03*
X3500120Y279400D03*
X3500120Y254000D03*
D13*
X2885440Y86360D03*
X2931160Y86360D03*
D14*
X3487420Y128270D03*
X3487420Y118110D03*
X3398520Y128270D03*
X3398520Y118110D03*
D15*
X2979420Y520700D03*
X3525520Y114300D03*
D10*
X139700Y563880D03*
X660400Y614680D03*
X660400Y894080D03*
X152400Y1046480D03*
D11*
X647700Y830580D03*
X647700Y805180D03*
D12*
X660400Y843280D03*
X660400Y817880D03*
X660400Y792480D03*
X635000Y843280D03*
X635000Y817880D03*
X635000Y792480D03*
D13*
X20320Y624840D03*
X66040Y624840D03*
D14*
X622300Y666750D03*
X622300Y656590D03*
X533400Y666750D03*
X533400Y656590D03*
D15*
X114300Y1059180D03*
X660400Y652780D03*
D10*
X855980Y563880D03*
X1376680Y614680D03*
X1376680Y894080D03*
X868680Y1046480D03*
D11*
X1363980Y830580D03*
X1363980Y805180D03*
D12*
X1376680Y843280D03*
X1376680Y817880D03*
X1376680Y792480D03*
X1351280Y843280D03*
X1351280Y817880D03*
X1351280Y792480D03*
D13*
X736600Y624840D03*
X782320Y624840D03*
D14*
X1338580Y666750D03*
X1338580Y656590D03*
X1249680Y666750D03*
X1249680Y656590D03*
D15*
X830580Y1059180D03*
X1376680Y652780D03*
D10*
X1572260Y563880D03*
X2092960Y614680D03*
X2092960Y894080D03*
X1584960Y1046480D03*
D11*
X2080260Y830580D03*
X2080260Y805180D03*
D12*
X2092960Y843280D03*
X2092960Y817880D03*
X2092960Y792480D03*
X2067560Y843280D03*
X2067560Y817880D03*
X2067560Y792480D03*
D13*
X1452880Y624840D03*
X1498600Y624840D03*
D14*
X2054860Y666750D03*
X2054860Y656590D03*
X1965960Y666750D03*
X1965960Y656590D03*
D15*
X1546860Y1059180D03*
X2092960Y652780D03*
D10*
X2288540Y563880D03*
X2809240Y614680D03*
X2809240Y894080D03*
X2301240Y1046480D03*
D11*
X2796540Y830580D03*
X2796540Y805180D03*
D12*
X2809240Y843280D03*
X2809240Y817880D03*
X2809240Y792480D03*
X2783840Y843280D03*
X2783840Y817880D03*
X2783840Y792480D03*
D13*
X2169160Y624840D03*
X2214880Y624840D03*
D14*
X2771140Y666750D03*
X2771140Y656590D03*
X2682240Y666750D03*
X2682240Y656590D03*
D15*
X2263140Y1059180D03*
X2809240Y652780D03*
D10*
X3004820Y563880D03*
X3525520Y614680D03*
X3525520Y894080D03*
X3017520Y1046480D03*
D11*
X3512820Y830580D03*
X3512820Y805180D03*
D12*
X3525520Y843280D03*
X3525520Y817880D03*
X3525520Y792480D03*
X3500120Y843280D03*
X3500120Y817880D03*
X3500120Y792480D03*
D13*
X2885440Y624840D03*
X2931160Y624840D03*
D14*
X3487420Y666750D03*
X3487420Y656590D03*
X3398520Y666750D03*
X3398520Y656590D03*
D15*
X2979420Y1059180D03*
X3525520Y652780D03*
D10*
X139700Y1102360D03*
X660400Y1153160D03*
X660400Y1432560D03*
X152400Y1584960D03*
D11*
X647700Y1369060D03*
X647700Y1343660D03*
D12*
X660400Y1381760D03*
X660400Y1356360D03*
X660400Y1330960D03*
X635000Y1381760D03*
X635000Y1356360D03*
X635000Y1330960D03*
D13*
X20320Y1163320D03*
X66040Y1163320D03*
D14*
X622300Y1205230D03*
X622300Y1195070D03*
X533400Y1205230D03*
X533400Y1195070D03*
D15*
X114300Y1597660D03*
X660400Y1191260D03*
D10*
X855980Y1102360D03*
X1376680Y1153160D03*
X1376680Y1432560D03*
X868680Y1584960D03*
D11*
X1363980Y1369060D03*
X1363980Y1343660D03*
D12*
X1376680Y1381760D03*
X1376680Y1356360D03*
X1376680Y1330960D03*
X1351280Y1381760D03*
X1351280Y1356360D03*
X1351280Y1330960D03*
D13*
X736600Y1163320D03*
X782320Y1163320D03*
D14*
X1338580Y1205230D03*
X1338580Y1195070D03*
X1249680Y1205230D03*
X1249680Y1195070D03*
D15*
X830580Y1597660D03*
X1376680Y1191260D03*
D10*
X1572260Y1102360D03*
X2092960Y1153160D03*
X2092960Y1432560D03*
X1584960Y1584960D03*
D11*
X2080260Y1369060D03*
X2080260Y1343660D03*
D12*
X2092960Y1381760D03*
X2092960Y1356360D03*
X2092960Y1330960D03*
X2067560Y1381760D03*
X2067560Y1356360D03*
X2067560Y1330960D03*
D13*
X1452880Y1163320D03*
X1498600Y1163320D03*
D14*
X2054860Y1205230D03*
X2054860Y1195070D03*
X1965960Y1205230D03*
X1965960Y1195070D03*
D15*
X1546860Y1597660D03*
X2092960Y1191260D03*
D10*
X2288540Y1102360D03*
X2809240Y1153160D03*
X2809240Y1432560D03*
X2301240Y1584960D03*
D11*
X2796540Y1369060D03*
X2796540Y1343660D03*
D12*
X2809240Y1381760D03*
X2809240Y1356360D03*
X2809240Y1330960D03*
X2783840Y1381760D03*
X2783840Y1356360D03*
X2783840Y1330960D03*
D13*
X2169160Y1163320D03*
X2214880Y1163320D03*
D14*
X2771140Y1205230D03*
X2771140Y1195070D03*
X2682240Y1205230D03*
X2682240Y1195070D03*
D15*
X2263140Y1597660D03*
X2809240Y1191260D03*
D10*
X3004820Y1102360D03*
X3525520Y1153160D03*
X3525520Y1432560D03*
X3017520Y1584960D03*
D11*
X3512820Y1369060D03*
X3512820Y1343660D03*
D12*
X3525520Y1381760D03*
X3525520Y1356360D03*
X3525520Y1330960D03*
X3500120Y1381760D03*
X3500120Y1356360D03*
X3500120Y1330960D03*
D13*
X2885440Y1163320D03*
X2931160Y1163320D03*
D14*
X3487420Y1205230D03*
X3487420Y1195070D03*
X3398520Y1205230D03*
X3398520Y1195070D03*
D15*
X2979420Y1597660D03*
X3525520Y1191260D03*
X93980Y1631315D03*
X3532505Y1631315D03*
D16*
X84925Y-20955D02*
X84928Y-20733D01*
X84936Y-20511D01*
X84950Y-20289D01*
X84969Y-20067D01*
X84993Y-19847D01*
X85023Y-19626D01*
X85058Y-19407D01*
X85099Y-19188D01*
X85145Y-18971D01*
X85196Y-18755D01*
X85253Y-18540D01*
X85315Y-18326D01*
X85382Y-18115D01*
X85454Y-17904D01*
X85532Y-17696D01*
X85614Y-17490D01*
X85702Y-17286D01*
X85794Y-17083D01*
X85892Y-16884D01*
X85994Y-16687D01*
X86101Y-16492D01*
X86213Y-16300D01*
X86330Y-16111D01*
X86451Y-15924D01*
X86577Y-15741D01*
X86707Y-15561D01*
X86842Y-15384D01*
X86980Y-15211D01*
X87123Y-15041D01*
X87271Y-14874D01*
X87422Y-14711D01*
X87577Y-14552D01*
X87736Y-14397D01*
X87899Y-14246D01*
X88066Y-14098D01*
X88236Y-13955D01*
X88409Y-13817D01*
X88586Y-13682D01*
X88766Y-13552D01*
X88949Y-13426D01*
X89136Y-13305D01*
X89325Y-13188D01*
X89517Y-13076D01*
X89712Y-12969D01*
X89909Y-12867D01*
X90108Y-12769D01*
X90311Y-12677D01*
X90515Y-12589D01*
X90721Y-12507D01*
X90929Y-12429D01*
X91140Y-12357D01*
X91351Y-12290D01*
X91565Y-12228D01*
X91780Y-12171D01*
X91996Y-12120D01*
X92213Y-12074D01*
X92432Y-12033D01*
X92651Y-11998D01*
X92872Y-11968D01*
X93092Y-11944D01*
X93314Y-11925D01*
X93536Y-11911D01*
X93758Y-11903D01*
X93980Y-11900D01*
X94202Y-11903D01*
X94424Y-11911D01*
X94646Y-11925D01*
X94868Y-11944D01*
X95088Y-11968D01*
X95309Y-11998D01*
X95528Y-12033D01*
X95747Y-12074D01*
X95964Y-12120D01*
X96180Y-12171D01*
X96395Y-12228D01*
X96609Y-12290D01*
X96820Y-12357D01*
X97031Y-12429D01*
X97239Y-12507D01*
X97445Y-12589D01*
X97649Y-12677D01*
X97852Y-12769D01*
X98051Y-12867D01*
X98248Y-12969D01*
X98443Y-13076D01*
X98635Y-13188D01*
X98824Y-13305D01*
X99011Y-13426D01*
X99194Y-13552D01*
X99374Y-13682D01*
X99551Y-13817D01*
X99724Y-13955D01*
X99894Y-14098D01*
X100061Y-14246D01*
X100224Y-14397D01*
X100383Y-14552D01*
X100538Y-14711D01*
X100689Y-14874D01*
X100837Y-15041D01*
X100980Y-15211D01*
X101118Y-15384D01*
X101253Y-15561D01*
X101383Y-15741D01*
X101509Y-15924D01*
X101630Y-16111D01*
X101747Y-16300D01*
X101859Y-16492D01*
X101966Y-16687D01*
X102068Y-16884D01*
X102166Y-17083D01*
X102258Y-17286D01*
X102346Y-17490D01*
X102428Y-17696D01*
X102506Y-17904D01*
X102578Y-18115D01*
X102645Y-18326D01*
X102707Y-18540D01*
X102764Y-18755D01*
X102815Y-18971D01*
X102861Y-19188D01*
X102902Y-19407D01*
X102937Y-19626D01*
X102967Y-19847D01*
X102991Y-20067D01*
X103010Y-20289D01*
X103024Y-20511D01*
X103032Y-20733D01*
X103035Y-20955D01*
X103032Y-21177D01*
X103024Y-21399D01*
X103010Y-21621D01*
X102991Y-21843D01*
X102967Y-22063D01*
X102937Y-22284D01*
X102902Y-22503D01*
X102861Y-22722D01*
X102815Y-22939D01*
X102764Y-23155D01*
X102707Y-23370D01*
X102645Y-23584D01*
X102578Y-23795D01*
X102506Y-24006D01*
X102428Y-24214D01*
X102346Y-24420D01*
X102258Y-24624D01*
X102166Y-24827D01*
X102068Y-25026D01*
X101966Y-25223D01*
X101859Y-25418D01*
X101747Y-25610D01*
X101630Y-25799D01*
X101509Y-25986D01*
X101383Y-26169D01*
X101253Y-26349D01*
X101118Y-26526D01*
X100980Y-26699D01*
X100837Y-26869D01*
X100689Y-27036D01*
X100538Y-27199D01*
X100383Y-27358D01*
X100224Y-27513D01*
X100061Y-27664D01*
X99894Y-27812D01*
X99724Y-27955D01*
X99551Y-28093D01*
X99374Y-28228D01*
X99194Y-28358D01*
X99011Y-28484D01*
X98824Y-28605D01*
X98635Y-28722D01*
X98443Y-28834D01*
X98248Y-28941D01*
X98051Y-29043D01*
X97852Y-29141D01*
X97649Y-29233D01*
X97445Y-29321D01*
X97239Y-29403D01*
X97031Y-29481D01*
X96820Y-29553D01*
X96609Y-29620D01*
X96395Y-29682D01*
X96180Y-29739D01*
X95964Y-29790D01*
X95747Y-29836D01*
X95528Y-29877D01*
X95309Y-29912D01*
X95088Y-29942D01*
X94868Y-29966D01*
X94646Y-29985D01*
X94424Y-29999D01*
X94202Y-30007D01*
X93980Y-30010D01*
X93758Y-30007D01*
X93536Y-29999D01*
X93314Y-29985D01*
X93092Y-29966D01*
X92872Y-29942D01*
X92651Y-29912D01*
X92432Y-29877D01*
X92213Y-29836D01*
X91996Y-29790D01*
X91780Y-29739D01*
X91565Y-29682D01*
X91351Y-29620D01*
X91140Y-29553D01*
X90929Y-29481D01*
X90721Y-29403D01*
X90515Y-29321D01*
X90311Y-29233D01*
X90108Y-29141D01*
X89909Y-29043D01*
X89712Y-28941D01*
X89517Y-28834D01*
X89325Y-28722D01*
X89136Y-28605D01*
X88949Y-28484D01*
X88766Y-28358D01*
X88586Y-28228D01*
X88409Y-28093D01*
X88236Y-27955D01*
X88066Y-27812D01*
X87899Y-27664D01*
X87736Y-27513D01*
X87577Y-27358D01*
X87422Y-27199D01*
X87271Y-27036D01*
X87123Y-26869D01*
X86980Y-26699D01*
X86842Y-26526D01*
X86707Y-26349D01*
X86577Y-26169D01*
X86451Y-25986D01*
X86330Y-25799D01*
X86213Y-25610D01*
X86101Y-25418D01*
X85994Y-25223D01*
X85892Y-25026D01*
X85794Y-24827D01*
X85702Y-24624D01*
X85614Y-24420D01*
X85532Y-24214D01*
X85454Y-24006D01*
X85382Y-23795D01*
X85315Y-23584D01*
X85253Y-23370D01*
X85196Y-23155D01*
X85145Y-22939D01*
X85099Y-22722D01*
X85058Y-22503D01*
X85023Y-22284D01*
X84993Y-22063D01*
X84969Y-21843D01*
X84950Y-21621D01*
X84936Y-21399D01*
X84928Y-21177D01*
X84925Y-20955D01*
D17*
X93980Y-20955D03*
M02*
