G04 EAGLE Gerber RS-274X export*
G75*
%MOMM*%
%FSLAX34Y34*%
%LPD*%
%INSoldermask Top*%
%IPPOS*%
%AMOC8*
5,1,8,0,0,1.08239X$1,22.5*%
G01*
%ADD10R,1.203200X1.303200*%
%ADD11R,1.303200X1.203200*%
%ADD12R,1.603200X1.803200*%
%ADD13R,1.603200X3.203200*%
%ADD14R,1.103200X1.003200*%
%ADD15R,1.727200X1.016000*%
%ADD16R,2.108200X3.327400*%
%ADD17C,3.505200*%
%ADD18C,1.203200*%
%ADD19R,1.203200X2.203200*%
%ADD20C,0.653200*%
%ADD21R,1.534156X3.495038*%
%ADD22C,2.003200*%
%ADD23R,3.373200X1.203200*%
%ADD24R,1.403200X1.603200*%
%ADD25R,1.727200X0.965200*%
%ADD26R,1.673200X1.473200*%
%ADD27R,1.003200X1.403200*%
%ADD28C,0.793150*%
%ADD29C,2.235200*%
%ADD30R,0.903200X0.903200*%
%ADD31R,1.473200X0.762000*%
%ADD32R,0.762000X1.473200*%
%ADD33R,1.403200X0.753200*%
%ADD34R,1.953200X0.603200*%
%ADD35R,1.663200X2.203200*%
%ADD36R,2.703200X1.628200*%
%ADD37R,0.838200X1.473200*%
%ADD38R,2.203200X1.403200*%
%ADD39R,1.553200X0.803200*%
%ADD40R,1.403200X0.803200*%
%ADD41R,1.303200X1.403200*%
%ADD42C,1.270000*%
%ADD43C,1.703200*%

G36*
X32720Y1430954D02*
X32720Y1430954D01*
X32726Y1430953D01*
X32819Y1430973D01*
X32912Y1430992D01*
X32916Y1430995D01*
X32921Y1430996D01*
X32999Y1431051D01*
X33078Y1431105D01*
X33080Y1431109D01*
X33085Y1431112D01*
X33135Y1431194D01*
X33187Y1431273D01*
X33188Y1431278D01*
X33190Y1431283D01*
X33222Y1431460D01*
X33222Y1451534D01*
X33221Y1451541D01*
X33222Y1451549D01*
X33201Y1451639D01*
X33183Y1451730D01*
X33179Y1451737D01*
X33177Y1451744D01*
X33122Y1451819D01*
X33070Y1451896D01*
X33064Y1451900D01*
X33059Y1451907D01*
X32980Y1451955D01*
X32902Y1452005D01*
X32895Y1452007D01*
X32888Y1452011D01*
X32710Y1452041D01*
X6294Y1451787D01*
X6263Y1451780D01*
X6225Y1451782D01*
X5409Y1451661D01*
X5362Y1451644D01*
X5299Y1451632D01*
X4530Y1451333D01*
X4488Y1451306D01*
X4429Y1451280D01*
X3746Y1450817D01*
X3712Y1450782D01*
X3660Y1450743D01*
X3097Y1450140D01*
X3071Y1450098D01*
X3029Y1450049D01*
X2614Y1449335D01*
X2598Y1449289D01*
X2569Y1449231D01*
X2323Y1448443D01*
X2318Y1448394D01*
X2302Y1448332D01*
X2237Y1447509D01*
X2240Y1447491D01*
X2236Y1447470D01*
X2236Y1439850D01*
X2243Y1439817D01*
X2241Y1439777D01*
X2368Y1438904D01*
X2385Y1438857D01*
X2397Y1438794D01*
X2715Y1437971D01*
X2742Y1437930D01*
X2768Y1437871D01*
X3261Y1437139D01*
X3296Y1437105D01*
X3334Y1437053D01*
X3978Y1436450D01*
X4020Y1436424D01*
X4069Y1436382D01*
X4831Y1435937D01*
X4877Y1435921D01*
X4934Y1435891D01*
X5776Y1435626D01*
X5825Y1435621D01*
X5887Y1435605D01*
X6767Y1435534D01*
X6786Y1435536D01*
X6807Y1435533D01*
X23814Y1435533D01*
X23814Y1431460D01*
X23815Y1431455D01*
X23814Y1431450D01*
X23835Y1431356D01*
X23854Y1431263D01*
X23856Y1431259D01*
X23858Y1431254D01*
X23913Y1431176D01*
X23966Y1431098D01*
X23971Y1431095D01*
X23974Y1431090D01*
X24055Y1431040D01*
X24134Y1430988D01*
X24139Y1430987D01*
X24144Y1430985D01*
X24321Y1430953D01*
X32715Y1430953D01*
X32720Y1430954D01*
G37*
G36*
X2897840Y892474D02*
X2897840Y892474D01*
X2897846Y892473D01*
X2897939Y892493D01*
X2898032Y892512D01*
X2898036Y892515D01*
X2898041Y892516D01*
X2898119Y892571D01*
X2898198Y892625D01*
X2898200Y892629D01*
X2898205Y892632D01*
X2898255Y892714D01*
X2898307Y892793D01*
X2898308Y892798D01*
X2898310Y892803D01*
X2898342Y892980D01*
X2898342Y913054D01*
X2898341Y913061D01*
X2898342Y913069D01*
X2898321Y913159D01*
X2898303Y913250D01*
X2898299Y913257D01*
X2898297Y913264D01*
X2898242Y913339D01*
X2898190Y913416D01*
X2898184Y913420D01*
X2898179Y913427D01*
X2898100Y913475D01*
X2898022Y913525D01*
X2898015Y913527D01*
X2898008Y913531D01*
X2897830Y913561D01*
X2871414Y913307D01*
X2871383Y913300D01*
X2871345Y913302D01*
X2870529Y913181D01*
X2870482Y913164D01*
X2870419Y913152D01*
X2869650Y912853D01*
X2869608Y912826D01*
X2869549Y912800D01*
X2868866Y912337D01*
X2868832Y912302D01*
X2868780Y912263D01*
X2868217Y911660D01*
X2868191Y911618D01*
X2868149Y911569D01*
X2867734Y910855D01*
X2867718Y910809D01*
X2867689Y910751D01*
X2867443Y909963D01*
X2867438Y909914D01*
X2867422Y909852D01*
X2867357Y909029D01*
X2867360Y909011D01*
X2867356Y908990D01*
X2867356Y901370D01*
X2867363Y901337D01*
X2867361Y901297D01*
X2867488Y900424D01*
X2867505Y900377D01*
X2867517Y900314D01*
X2867835Y899491D01*
X2867862Y899450D01*
X2867888Y899391D01*
X2868381Y898659D01*
X2868416Y898625D01*
X2868454Y898573D01*
X2869098Y897970D01*
X2869140Y897944D01*
X2869189Y897902D01*
X2869951Y897457D01*
X2869997Y897441D01*
X2870054Y897411D01*
X2870896Y897146D01*
X2870945Y897141D01*
X2871007Y897125D01*
X2871887Y897054D01*
X2871906Y897056D01*
X2871927Y897053D01*
X2888934Y897053D01*
X2888934Y892980D01*
X2888935Y892975D01*
X2888934Y892970D01*
X2888955Y892876D01*
X2888974Y892783D01*
X2888976Y892779D01*
X2888978Y892774D01*
X2889033Y892696D01*
X2889086Y892618D01*
X2889091Y892615D01*
X2889094Y892610D01*
X2889175Y892560D01*
X2889254Y892508D01*
X2889259Y892507D01*
X2889264Y892505D01*
X2889441Y892473D01*
X2897835Y892473D01*
X2897840Y892474D01*
G37*
G36*
X749000Y892474D02*
X749000Y892474D01*
X749006Y892473D01*
X749099Y892493D01*
X749192Y892512D01*
X749196Y892515D01*
X749201Y892516D01*
X749279Y892571D01*
X749358Y892625D01*
X749360Y892629D01*
X749365Y892632D01*
X749415Y892714D01*
X749467Y892793D01*
X749468Y892798D01*
X749470Y892803D01*
X749502Y892980D01*
X749502Y913054D01*
X749501Y913061D01*
X749502Y913069D01*
X749481Y913159D01*
X749463Y913250D01*
X749459Y913257D01*
X749457Y913264D01*
X749402Y913339D01*
X749350Y913416D01*
X749344Y913420D01*
X749339Y913427D01*
X749260Y913475D01*
X749182Y913525D01*
X749175Y913527D01*
X749168Y913531D01*
X748990Y913561D01*
X722574Y913307D01*
X722543Y913300D01*
X722505Y913302D01*
X721689Y913181D01*
X721642Y913164D01*
X721579Y913152D01*
X720810Y912853D01*
X720768Y912826D01*
X720709Y912800D01*
X720026Y912337D01*
X719992Y912302D01*
X719940Y912263D01*
X719377Y911660D01*
X719351Y911618D01*
X719309Y911569D01*
X718894Y910855D01*
X718878Y910809D01*
X718849Y910751D01*
X718603Y909963D01*
X718598Y909914D01*
X718582Y909852D01*
X718517Y909029D01*
X718520Y909011D01*
X718516Y908990D01*
X718516Y901370D01*
X718523Y901337D01*
X718521Y901297D01*
X718648Y900424D01*
X718665Y900377D01*
X718677Y900314D01*
X718995Y899491D01*
X719022Y899450D01*
X719048Y899391D01*
X719541Y898659D01*
X719576Y898625D01*
X719614Y898573D01*
X720258Y897970D01*
X720300Y897944D01*
X720349Y897902D01*
X721111Y897457D01*
X721157Y897441D01*
X721214Y897411D01*
X722056Y897146D01*
X722105Y897141D01*
X722167Y897125D01*
X723047Y897054D01*
X723066Y897056D01*
X723087Y897053D01*
X740094Y897053D01*
X740094Y892980D01*
X740095Y892975D01*
X740094Y892970D01*
X740115Y892876D01*
X740134Y892783D01*
X740136Y892779D01*
X740138Y892774D01*
X740193Y892696D01*
X740246Y892618D01*
X740251Y892615D01*
X740254Y892610D01*
X740335Y892560D01*
X740414Y892508D01*
X740419Y892507D01*
X740424Y892505D01*
X740601Y892473D01*
X748995Y892473D01*
X749000Y892474D01*
G37*
G36*
X2181560Y892474D02*
X2181560Y892474D01*
X2181566Y892473D01*
X2181659Y892493D01*
X2181752Y892512D01*
X2181756Y892515D01*
X2181761Y892516D01*
X2181839Y892571D01*
X2181918Y892625D01*
X2181920Y892629D01*
X2181925Y892632D01*
X2181975Y892714D01*
X2182027Y892793D01*
X2182028Y892798D01*
X2182030Y892803D01*
X2182062Y892980D01*
X2182062Y913054D01*
X2182061Y913061D01*
X2182062Y913069D01*
X2182041Y913159D01*
X2182023Y913250D01*
X2182019Y913257D01*
X2182017Y913264D01*
X2181962Y913339D01*
X2181910Y913416D01*
X2181904Y913420D01*
X2181899Y913427D01*
X2181820Y913475D01*
X2181742Y913525D01*
X2181735Y913527D01*
X2181728Y913531D01*
X2181550Y913561D01*
X2155134Y913307D01*
X2155103Y913300D01*
X2155065Y913302D01*
X2154249Y913181D01*
X2154202Y913164D01*
X2154139Y913152D01*
X2153370Y912853D01*
X2153328Y912826D01*
X2153269Y912800D01*
X2152586Y912337D01*
X2152552Y912302D01*
X2152500Y912263D01*
X2151937Y911660D01*
X2151911Y911618D01*
X2151869Y911569D01*
X2151454Y910855D01*
X2151438Y910809D01*
X2151409Y910751D01*
X2151163Y909963D01*
X2151158Y909914D01*
X2151142Y909852D01*
X2151077Y909029D01*
X2151080Y909011D01*
X2151076Y908990D01*
X2151076Y901370D01*
X2151083Y901337D01*
X2151081Y901297D01*
X2151208Y900424D01*
X2151225Y900377D01*
X2151237Y900314D01*
X2151555Y899491D01*
X2151582Y899450D01*
X2151608Y899391D01*
X2152101Y898659D01*
X2152136Y898625D01*
X2152174Y898573D01*
X2152818Y897970D01*
X2152860Y897944D01*
X2152909Y897902D01*
X2153671Y897457D01*
X2153717Y897441D01*
X2153774Y897411D01*
X2154616Y897146D01*
X2154665Y897141D01*
X2154727Y897125D01*
X2155607Y897054D01*
X2155626Y897056D01*
X2155647Y897053D01*
X2172654Y897053D01*
X2172654Y892980D01*
X2172655Y892975D01*
X2172654Y892970D01*
X2172675Y892876D01*
X2172694Y892783D01*
X2172696Y892779D01*
X2172698Y892774D01*
X2172753Y892696D01*
X2172806Y892618D01*
X2172811Y892615D01*
X2172814Y892610D01*
X2172895Y892560D01*
X2172974Y892508D01*
X2172979Y892507D01*
X2172984Y892505D01*
X2173161Y892473D01*
X2181555Y892473D01*
X2181560Y892474D01*
G37*
G36*
X32720Y892474D02*
X32720Y892474D01*
X32726Y892473D01*
X32819Y892493D01*
X32912Y892512D01*
X32916Y892515D01*
X32921Y892516D01*
X32999Y892571D01*
X33078Y892625D01*
X33080Y892629D01*
X33085Y892632D01*
X33135Y892714D01*
X33187Y892793D01*
X33188Y892798D01*
X33190Y892803D01*
X33222Y892980D01*
X33222Y913054D01*
X33221Y913061D01*
X33222Y913069D01*
X33201Y913159D01*
X33183Y913250D01*
X33179Y913257D01*
X33177Y913264D01*
X33122Y913339D01*
X33070Y913416D01*
X33064Y913420D01*
X33059Y913427D01*
X32980Y913475D01*
X32902Y913525D01*
X32895Y913527D01*
X32888Y913531D01*
X32710Y913561D01*
X6294Y913307D01*
X6263Y913300D01*
X6225Y913302D01*
X5409Y913181D01*
X5362Y913164D01*
X5299Y913152D01*
X4530Y912853D01*
X4488Y912826D01*
X4429Y912800D01*
X3746Y912337D01*
X3712Y912302D01*
X3660Y912263D01*
X3097Y911660D01*
X3071Y911618D01*
X3029Y911569D01*
X2614Y910855D01*
X2598Y910809D01*
X2569Y910751D01*
X2323Y909963D01*
X2318Y909914D01*
X2302Y909852D01*
X2237Y909029D01*
X2240Y909011D01*
X2236Y908990D01*
X2236Y901370D01*
X2243Y901337D01*
X2241Y901297D01*
X2368Y900424D01*
X2385Y900377D01*
X2397Y900314D01*
X2715Y899491D01*
X2742Y899450D01*
X2768Y899391D01*
X3261Y898659D01*
X3296Y898625D01*
X3334Y898573D01*
X3978Y897970D01*
X4020Y897944D01*
X4069Y897902D01*
X4831Y897457D01*
X4877Y897441D01*
X4934Y897411D01*
X5776Y897146D01*
X5825Y897141D01*
X5887Y897125D01*
X6767Y897054D01*
X6786Y897056D01*
X6807Y897053D01*
X23814Y897053D01*
X23814Y892980D01*
X23815Y892975D01*
X23814Y892970D01*
X23835Y892876D01*
X23854Y892783D01*
X23856Y892779D01*
X23858Y892774D01*
X23913Y892696D01*
X23966Y892618D01*
X23971Y892615D01*
X23974Y892610D01*
X24055Y892560D01*
X24134Y892508D01*
X24139Y892507D01*
X24144Y892505D01*
X24321Y892473D01*
X32715Y892473D01*
X32720Y892474D01*
G37*
G36*
X1465280Y892474D02*
X1465280Y892474D01*
X1465286Y892473D01*
X1465379Y892493D01*
X1465472Y892512D01*
X1465476Y892515D01*
X1465481Y892516D01*
X1465559Y892571D01*
X1465638Y892625D01*
X1465640Y892629D01*
X1465645Y892632D01*
X1465695Y892714D01*
X1465747Y892793D01*
X1465748Y892798D01*
X1465750Y892803D01*
X1465782Y892980D01*
X1465782Y913054D01*
X1465781Y913061D01*
X1465782Y913069D01*
X1465761Y913159D01*
X1465743Y913250D01*
X1465739Y913257D01*
X1465737Y913264D01*
X1465682Y913339D01*
X1465630Y913416D01*
X1465624Y913420D01*
X1465619Y913427D01*
X1465540Y913475D01*
X1465462Y913525D01*
X1465455Y913527D01*
X1465448Y913531D01*
X1465270Y913561D01*
X1438854Y913307D01*
X1438823Y913300D01*
X1438785Y913302D01*
X1437969Y913181D01*
X1437922Y913164D01*
X1437859Y913152D01*
X1437090Y912853D01*
X1437048Y912826D01*
X1436989Y912800D01*
X1436306Y912337D01*
X1436272Y912302D01*
X1436220Y912263D01*
X1435657Y911660D01*
X1435631Y911618D01*
X1435589Y911569D01*
X1435174Y910855D01*
X1435158Y910809D01*
X1435129Y910751D01*
X1434883Y909963D01*
X1434878Y909914D01*
X1434862Y909852D01*
X1434797Y909029D01*
X1434800Y909011D01*
X1434796Y908990D01*
X1434796Y901370D01*
X1434803Y901337D01*
X1434801Y901297D01*
X1434928Y900424D01*
X1434945Y900377D01*
X1434957Y900314D01*
X1435275Y899491D01*
X1435302Y899450D01*
X1435328Y899391D01*
X1435821Y898659D01*
X1435856Y898625D01*
X1435894Y898573D01*
X1436538Y897970D01*
X1436580Y897944D01*
X1436629Y897902D01*
X1437391Y897457D01*
X1437437Y897441D01*
X1437494Y897411D01*
X1438336Y897146D01*
X1438385Y897141D01*
X1438447Y897125D01*
X1439327Y897054D01*
X1439346Y897056D01*
X1439367Y897053D01*
X1456374Y897053D01*
X1456374Y892980D01*
X1456375Y892975D01*
X1456374Y892970D01*
X1456395Y892876D01*
X1456414Y892783D01*
X1456416Y892779D01*
X1456418Y892774D01*
X1456473Y892696D01*
X1456526Y892618D01*
X1456531Y892615D01*
X1456534Y892610D01*
X1456615Y892560D01*
X1456694Y892508D01*
X1456699Y892507D01*
X1456704Y892505D01*
X1456881Y892473D01*
X1465275Y892473D01*
X1465280Y892474D01*
G37*
G36*
X2897840Y1430954D02*
X2897840Y1430954D01*
X2897846Y1430953D01*
X2897939Y1430973D01*
X2898032Y1430992D01*
X2898036Y1430995D01*
X2898041Y1430996D01*
X2898119Y1431051D01*
X2898198Y1431105D01*
X2898200Y1431109D01*
X2898205Y1431112D01*
X2898255Y1431194D01*
X2898307Y1431273D01*
X2898308Y1431278D01*
X2898310Y1431283D01*
X2898342Y1431460D01*
X2898342Y1451534D01*
X2898341Y1451541D01*
X2898342Y1451549D01*
X2898321Y1451639D01*
X2898303Y1451730D01*
X2898299Y1451737D01*
X2898297Y1451744D01*
X2898242Y1451819D01*
X2898190Y1451896D01*
X2898184Y1451900D01*
X2898179Y1451907D01*
X2898100Y1451955D01*
X2898022Y1452005D01*
X2898015Y1452007D01*
X2898008Y1452011D01*
X2897830Y1452041D01*
X2871414Y1451787D01*
X2871383Y1451780D01*
X2871345Y1451782D01*
X2870529Y1451661D01*
X2870482Y1451644D01*
X2870419Y1451632D01*
X2869650Y1451333D01*
X2869608Y1451306D01*
X2869549Y1451280D01*
X2868866Y1450817D01*
X2868832Y1450782D01*
X2868780Y1450743D01*
X2868217Y1450140D01*
X2868191Y1450098D01*
X2868149Y1450049D01*
X2867734Y1449335D01*
X2867718Y1449289D01*
X2867689Y1449231D01*
X2867443Y1448443D01*
X2867438Y1448394D01*
X2867422Y1448332D01*
X2867357Y1447509D01*
X2867360Y1447491D01*
X2867356Y1447470D01*
X2867356Y1439850D01*
X2867363Y1439817D01*
X2867361Y1439777D01*
X2867488Y1438904D01*
X2867505Y1438857D01*
X2867517Y1438794D01*
X2867835Y1437971D01*
X2867862Y1437930D01*
X2867888Y1437871D01*
X2868381Y1437139D01*
X2868416Y1437105D01*
X2868454Y1437053D01*
X2869098Y1436450D01*
X2869140Y1436424D01*
X2869189Y1436382D01*
X2869951Y1435937D01*
X2869997Y1435921D01*
X2870054Y1435891D01*
X2870896Y1435626D01*
X2870945Y1435621D01*
X2871007Y1435605D01*
X2871887Y1435534D01*
X2871906Y1435536D01*
X2871927Y1435533D01*
X2888934Y1435533D01*
X2888934Y1431460D01*
X2888935Y1431455D01*
X2888934Y1431450D01*
X2888955Y1431356D01*
X2888974Y1431263D01*
X2888976Y1431259D01*
X2888978Y1431254D01*
X2889033Y1431176D01*
X2889086Y1431098D01*
X2889091Y1431095D01*
X2889094Y1431090D01*
X2889175Y1431040D01*
X2889254Y1430988D01*
X2889259Y1430987D01*
X2889264Y1430985D01*
X2889441Y1430953D01*
X2897835Y1430953D01*
X2897840Y1430954D01*
G37*
G36*
X1465280Y1430954D02*
X1465280Y1430954D01*
X1465286Y1430953D01*
X1465379Y1430973D01*
X1465472Y1430992D01*
X1465476Y1430995D01*
X1465481Y1430996D01*
X1465559Y1431051D01*
X1465638Y1431105D01*
X1465640Y1431109D01*
X1465645Y1431112D01*
X1465695Y1431194D01*
X1465747Y1431273D01*
X1465748Y1431278D01*
X1465750Y1431283D01*
X1465782Y1431460D01*
X1465782Y1451534D01*
X1465781Y1451541D01*
X1465782Y1451549D01*
X1465761Y1451639D01*
X1465743Y1451730D01*
X1465739Y1451737D01*
X1465737Y1451744D01*
X1465682Y1451819D01*
X1465630Y1451896D01*
X1465624Y1451900D01*
X1465619Y1451907D01*
X1465540Y1451955D01*
X1465462Y1452005D01*
X1465455Y1452007D01*
X1465448Y1452011D01*
X1465270Y1452041D01*
X1438854Y1451787D01*
X1438823Y1451780D01*
X1438785Y1451782D01*
X1437969Y1451661D01*
X1437922Y1451644D01*
X1437859Y1451632D01*
X1437090Y1451333D01*
X1437048Y1451306D01*
X1436989Y1451280D01*
X1436306Y1450817D01*
X1436272Y1450782D01*
X1436220Y1450743D01*
X1435657Y1450140D01*
X1435631Y1450098D01*
X1435589Y1450049D01*
X1435174Y1449335D01*
X1435158Y1449289D01*
X1435129Y1449231D01*
X1434883Y1448443D01*
X1434878Y1448394D01*
X1434862Y1448332D01*
X1434797Y1447509D01*
X1434800Y1447491D01*
X1434796Y1447470D01*
X1434796Y1439850D01*
X1434803Y1439817D01*
X1434801Y1439777D01*
X1434928Y1438904D01*
X1434945Y1438857D01*
X1434957Y1438794D01*
X1435275Y1437971D01*
X1435302Y1437930D01*
X1435328Y1437871D01*
X1435821Y1437139D01*
X1435856Y1437105D01*
X1435894Y1437053D01*
X1436538Y1436450D01*
X1436580Y1436424D01*
X1436629Y1436382D01*
X1437391Y1435937D01*
X1437437Y1435921D01*
X1437494Y1435891D01*
X1438336Y1435626D01*
X1438385Y1435621D01*
X1438447Y1435605D01*
X1439327Y1435534D01*
X1439346Y1435536D01*
X1439367Y1435533D01*
X1456374Y1435533D01*
X1456374Y1431460D01*
X1456375Y1431455D01*
X1456374Y1431450D01*
X1456395Y1431356D01*
X1456414Y1431263D01*
X1456416Y1431259D01*
X1456418Y1431254D01*
X1456473Y1431176D01*
X1456526Y1431098D01*
X1456531Y1431095D01*
X1456534Y1431090D01*
X1456615Y1431040D01*
X1456694Y1430988D01*
X1456699Y1430987D01*
X1456704Y1430985D01*
X1456881Y1430953D01*
X1465275Y1430953D01*
X1465280Y1430954D01*
G37*
G36*
X2181560Y1430954D02*
X2181560Y1430954D01*
X2181566Y1430953D01*
X2181659Y1430973D01*
X2181752Y1430992D01*
X2181756Y1430995D01*
X2181761Y1430996D01*
X2181839Y1431051D01*
X2181918Y1431105D01*
X2181920Y1431109D01*
X2181925Y1431112D01*
X2181975Y1431194D01*
X2182027Y1431273D01*
X2182028Y1431278D01*
X2182030Y1431283D01*
X2182062Y1431460D01*
X2182062Y1451534D01*
X2182061Y1451541D01*
X2182062Y1451549D01*
X2182041Y1451639D01*
X2182023Y1451730D01*
X2182019Y1451737D01*
X2182017Y1451744D01*
X2181962Y1451819D01*
X2181910Y1451896D01*
X2181904Y1451900D01*
X2181899Y1451907D01*
X2181820Y1451955D01*
X2181742Y1452005D01*
X2181735Y1452007D01*
X2181728Y1452011D01*
X2181550Y1452041D01*
X2155134Y1451787D01*
X2155103Y1451780D01*
X2155065Y1451782D01*
X2154249Y1451661D01*
X2154202Y1451644D01*
X2154139Y1451632D01*
X2153370Y1451333D01*
X2153328Y1451306D01*
X2153269Y1451280D01*
X2152586Y1450817D01*
X2152552Y1450782D01*
X2152500Y1450743D01*
X2151937Y1450140D01*
X2151911Y1450098D01*
X2151869Y1450049D01*
X2151454Y1449335D01*
X2151438Y1449289D01*
X2151409Y1449231D01*
X2151163Y1448443D01*
X2151158Y1448394D01*
X2151142Y1448332D01*
X2151077Y1447509D01*
X2151080Y1447491D01*
X2151076Y1447470D01*
X2151076Y1439850D01*
X2151083Y1439817D01*
X2151081Y1439777D01*
X2151208Y1438904D01*
X2151225Y1438857D01*
X2151237Y1438794D01*
X2151555Y1437971D01*
X2151582Y1437930D01*
X2151608Y1437871D01*
X2152101Y1437139D01*
X2152136Y1437105D01*
X2152174Y1437053D01*
X2152818Y1436450D01*
X2152860Y1436424D01*
X2152909Y1436382D01*
X2153671Y1435937D01*
X2153717Y1435921D01*
X2153774Y1435891D01*
X2154616Y1435626D01*
X2154665Y1435621D01*
X2154727Y1435605D01*
X2155607Y1435534D01*
X2155626Y1435536D01*
X2155647Y1435533D01*
X2172654Y1435533D01*
X2172654Y1431460D01*
X2172655Y1431455D01*
X2172654Y1431450D01*
X2172675Y1431356D01*
X2172694Y1431263D01*
X2172696Y1431259D01*
X2172698Y1431254D01*
X2172753Y1431176D01*
X2172806Y1431098D01*
X2172811Y1431095D01*
X2172814Y1431090D01*
X2172895Y1431040D01*
X2172974Y1430988D01*
X2172979Y1430987D01*
X2172984Y1430985D01*
X2173161Y1430953D01*
X2181555Y1430953D01*
X2181560Y1430954D01*
G37*
G36*
X749000Y1430954D02*
X749000Y1430954D01*
X749006Y1430953D01*
X749099Y1430973D01*
X749192Y1430992D01*
X749196Y1430995D01*
X749201Y1430996D01*
X749279Y1431051D01*
X749358Y1431105D01*
X749360Y1431109D01*
X749365Y1431112D01*
X749415Y1431194D01*
X749467Y1431273D01*
X749468Y1431278D01*
X749470Y1431283D01*
X749502Y1431460D01*
X749502Y1451534D01*
X749501Y1451541D01*
X749502Y1451549D01*
X749481Y1451639D01*
X749463Y1451730D01*
X749459Y1451737D01*
X749457Y1451744D01*
X749402Y1451819D01*
X749350Y1451896D01*
X749344Y1451900D01*
X749339Y1451907D01*
X749260Y1451955D01*
X749182Y1452005D01*
X749175Y1452007D01*
X749168Y1452011D01*
X748990Y1452041D01*
X722574Y1451787D01*
X722543Y1451780D01*
X722505Y1451782D01*
X721689Y1451661D01*
X721642Y1451644D01*
X721579Y1451632D01*
X720810Y1451333D01*
X720768Y1451306D01*
X720709Y1451280D01*
X720026Y1450817D01*
X719992Y1450782D01*
X719940Y1450743D01*
X719377Y1450140D01*
X719351Y1450098D01*
X719309Y1450049D01*
X718894Y1449335D01*
X718878Y1449289D01*
X718849Y1449231D01*
X718603Y1448443D01*
X718598Y1448394D01*
X718582Y1448332D01*
X718517Y1447509D01*
X718520Y1447491D01*
X718516Y1447470D01*
X718516Y1439850D01*
X718523Y1439817D01*
X718521Y1439777D01*
X718648Y1438904D01*
X718665Y1438857D01*
X718677Y1438794D01*
X718995Y1437971D01*
X719022Y1437930D01*
X719048Y1437871D01*
X719541Y1437139D01*
X719576Y1437105D01*
X719614Y1437053D01*
X720258Y1436450D01*
X720300Y1436424D01*
X720349Y1436382D01*
X721111Y1435937D01*
X721157Y1435921D01*
X721214Y1435891D01*
X722056Y1435626D01*
X722105Y1435621D01*
X722167Y1435605D01*
X723047Y1435534D01*
X723066Y1435536D01*
X723087Y1435533D01*
X740094Y1435533D01*
X740094Y1431460D01*
X740095Y1431455D01*
X740094Y1431450D01*
X740115Y1431356D01*
X740134Y1431263D01*
X740136Y1431259D01*
X740138Y1431254D01*
X740193Y1431176D01*
X740246Y1431098D01*
X740251Y1431095D01*
X740254Y1431090D01*
X740335Y1431040D01*
X740414Y1430988D01*
X740419Y1430987D01*
X740424Y1430985D01*
X740601Y1430953D01*
X748995Y1430953D01*
X749000Y1430954D01*
G37*
G36*
X2181560Y353994D02*
X2181560Y353994D01*
X2181566Y353993D01*
X2181659Y354013D01*
X2181752Y354032D01*
X2181756Y354035D01*
X2181761Y354036D01*
X2181839Y354091D01*
X2181918Y354145D01*
X2181920Y354149D01*
X2181925Y354152D01*
X2181975Y354234D01*
X2182027Y354313D01*
X2182028Y354318D01*
X2182030Y354323D01*
X2182062Y354500D01*
X2182062Y374574D01*
X2182061Y374581D01*
X2182062Y374589D01*
X2182041Y374679D01*
X2182023Y374770D01*
X2182019Y374777D01*
X2182017Y374784D01*
X2181962Y374859D01*
X2181910Y374936D01*
X2181904Y374940D01*
X2181899Y374947D01*
X2181820Y374995D01*
X2181742Y375045D01*
X2181735Y375047D01*
X2181728Y375051D01*
X2181550Y375081D01*
X2155134Y374827D01*
X2155103Y374820D01*
X2155065Y374822D01*
X2154249Y374701D01*
X2154202Y374684D01*
X2154139Y374672D01*
X2153370Y374373D01*
X2153328Y374346D01*
X2153269Y374320D01*
X2152586Y373857D01*
X2152552Y373822D01*
X2152500Y373783D01*
X2151937Y373180D01*
X2151911Y373138D01*
X2151869Y373089D01*
X2151454Y372375D01*
X2151438Y372329D01*
X2151409Y372271D01*
X2151163Y371483D01*
X2151158Y371434D01*
X2151142Y371372D01*
X2151077Y370549D01*
X2151080Y370531D01*
X2151076Y370510D01*
X2151076Y362890D01*
X2151083Y362857D01*
X2151081Y362817D01*
X2151208Y361944D01*
X2151225Y361897D01*
X2151237Y361834D01*
X2151555Y361011D01*
X2151582Y360970D01*
X2151608Y360911D01*
X2152101Y360179D01*
X2152136Y360145D01*
X2152174Y360093D01*
X2152818Y359490D01*
X2152860Y359464D01*
X2152909Y359422D01*
X2153671Y358977D01*
X2153717Y358961D01*
X2153774Y358931D01*
X2154616Y358666D01*
X2154665Y358661D01*
X2154727Y358645D01*
X2155607Y358574D01*
X2155626Y358576D01*
X2155647Y358573D01*
X2172654Y358573D01*
X2172654Y354500D01*
X2172655Y354495D01*
X2172654Y354490D01*
X2172675Y354396D01*
X2172694Y354303D01*
X2172696Y354299D01*
X2172698Y354294D01*
X2172753Y354216D01*
X2172806Y354138D01*
X2172811Y354135D01*
X2172814Y354130D01*
X2172895Y354080D01*
X2172974Y354028D01*
X2172979Y354027D01*
X2172984Y354025D01*
X2173161Y353993D01*
X2181555Y353993D01*
X2181560Y353994D01*
G37*
G36*
X2897840Y353994D02*
X2897840Y353994D01*
X2897846Y353993D01*
X2897939Y354013D01*
X2898032Y354032D01*
X2898036Y354035D01*
X2898041Y354036D01*
X2898119Y354091D01*
X2898198Y354145D01*
X2898200Y354149D01*
X2898205Y354152D01*
X2898255Y354234D01*
X2898307Y354313D01*
X2898308Y354318D01*
X2898310Y354323D01*
X2898342Y354500D01*
X2898342Y374574D01*
X2898341Y374581D01*
X2898342Y374589D01*
X2898321Y374679D01*
X2898303Y374770D01*
X2898299Y374777D01*
X2898297Y374784D01*
X2898242Y374859D01*
X2898190Y374936D01*
X2898184Y374940D01*
X2898179Y374947D01*
X2898100Y374995D01*
X2898022Y375045D01*
X2898015Y375047D01*
X2898008Y375051D01*
X2897830Y375081D01*
X2871414Y374827D01*
X2871383Y374820D01*
X2871345Y374822D01*
X2870529Y374701D01*
X2870482Y374684D01*
X2870419Y374672D01*
X2869650Y374373D01*
X2869608Y374346D01*
X2869549Y374320D01*
X2868866Y373857D01*
X2868832Y373822D01*
X2868780Y373783D01*
X2868217Y373180D01*
X2868191Y373138D01*
X2868149Y373089D01*
X2867734Y372375D01*
X2867718Y372329D01*
X2867689Y372271D01*
X2867443Y371483D01*
X2867438Y371434D01*
X2867422Y371372D01*
X2867357Y370549D01*
X2867360Y370531D01*
X2867356Y370510D01*
X2867356Y362890D01*
X2867363Y362857D01*
X2867361Y362817D01*
X2867488Y361944D01*
X2867505Y361897D01*
X2867517Y361834D01*
X2867835Y361011D01*
X2867862Y360970D01*
X2867888Y360911D01*
X2868381Y360179D01*
X2868416Y360145D01*
X2868454Y360093D01*
X2869098Y359490D01*
X2869140Y359464D01*
X2869189Y359422D01*
X2869951Y358977D01*
X2869997Y358961D01*
X2870054Y358931D01*
X2870896Y358666D01*
X2870945Y358661D01*
X2871007Y358645D01*
X2871887Y358574D01*
X2871906Y358576D01*
X2871927Y358573D01*
X2888934Y358573D01*
X2888934Y354500D01*
X2888935Y354495D01*
X2888934Y354490D01*
X2888955Y354396D01*
X2888974Y354303D01*
X2888976Y354299D01*
X2888978Y354294D01*
X2889033Y354216D01*
X2889086Y354138D01*
X2889091Y354135D01*
X2889094Y354130D01*
X2889175Y354080D01*
X2889254Y354028D01*
X2889259Y354027D01*
X2889264Y354025D01*
X2889441Y353993D01*
X2897835Y353993D01*
X2897840Y353994D01*
G37*
G36*
X32720Y353994D02*
X32720Y353994D01*
X32726Y353993D01*
X32819Y354013D01*
X32912Y354032D01*
X32916Y354035D01*
X32921Y354036D01*
X32999Y354091D01*
X33078Y354145D01*
X33080Y354149D01*
X33085Y354152D01*
X33135Y354234D01*
X33187Y354313D01*
X33188Y354318D01*
X33190Y354323D01*
X33222Y354500D01*
X33222Y374574D01*
X33221Y374581D01*
X33222Y374589D01*
X33201Y374679D01*
X33183Y374770D01*
X33179Y374777D01*
X33177Y374784D01*
X33122Y374859D01*
X33070Y374936D01*
X33064Y374940D01*
X33059Y374947D01*
X32980Y374995D01*
X32902Y375045D01*
X32895Y375047D01*
X32888Y375051D01*
X32710Y375081D01*
X6294Y374827D01*
X6263Y374820D01*
X6225Y374822D01*
X5409Y374701D01*
X5362Y374684D01*
X5299Y374672D01*
X4530Y374373D01*
X4488Y374346D01*
X4429Y374320D01*
X3746Y373857D01*
X3712Y373822D01*
X3660Y373783D01*
X3097Y373180D01*
X3071Y373138D01*
X3029Y373089D01*
X2614Y372375D01*
X2598Y372329D01*
X2569Y372271D01*
X2323Y371483D01*
X2318Y371434D01*
X2302Y371372D01*
X2237Y370549D01*
X2240Y370531D01*
X2236Y370510D01*
X2236Y362890D01*
X2243Y362857D01*
X2241Y362817D01*
X2368Y361944D01*
X2385Y361897D01*
X2397Y361834D01*
X2715Y361011D01*
X2742Y360970D01*
X2768Y360911D01*
X3261Y360179D01*
X3296Y360145D01*
X3334Y360093D01*
X3978Y359490D01*
X4020Y359464D01*
X4069Y359422D01*
X4831Y358977D01*
X4877Y358961D01*
X4934Y358931D01*
X5776Y358666D01*
X5825Y358661D01*
X5887Y358645D01*
X6767Y358574D01*
X6786Y358576D01*
X6807Y358573D01*
X23814Y358573D01*
X23814Y354500D01*
X23815Y354495D01*
X23814Y354490D01*
X23835Y354396D01*
X23854Y354303D01*
X23856Y354299D01*
X23858Y354294D01*
X23913Y354216D01*
X23966Y354138D01*
X23971Y354135D01*
X23974Y354130D01*
X24055Y354080D01*
X24134Y354028D01*
X24139Y354027D01*
X24144Y354025D01*
X24321Y353993D01*
X32715Y353993D01*
X32720Y353994D01*
G37*
G36*
X1465280Y353994D02*
X1465280Y353994D01*
X1465286Y353993D01*
X1465379Y354013D01*
X1465472Y354032D01*
X1465476Y354035D01*
X1465481Y354036D01*
X1465559Y354091D01*
X1465638Y354145D01*
X1465640Y354149D01*
X1465645Y354152D01*
X1465695Y354234D01*
X1465747Y354313D01*
X1465748Y354318D01*
X1465750Y354323D01*
X1465782Y354500D01*
X1465782Y374574D01*
X1465781Y374581D01*
X1465782Y374589D01*
X1465761Y374679D01*
X1465743Y374770D01*
X1465739Y374777D01*
X1465737Y374784D01*
X1465682Y374859D01*
X1465630Y374936D01*
X1465624Y374940D01*
X1465619Y374947D01*
X1465540Y374995D01*
X1465462Y375045D01*
X1465455Y375047D01*
X1465448Y375051D01*
X1465270Y375081D01*
X1438854Y374827D01*
X1438823Y374820D01*
X1438785Y374822D01*
X1437969Y374701D01*
X1437922Y374684D01*
X1437859Y374672D01*
X1437090Y374373D01*
X1437048Y374346D01*
X1436989Y374320D01*
X1436306Y373857D01*
X1436272Y373822D01*
X1436220Y373783D01*
X1435657Y373180D01*
X1435631Y373138D01*
X1435589Y373089D01*
X1435174Y372375D01*
X1435158Y372329D01*
X1435129Y372271D01*
X1434883Y371483D01*
X1434878Y371434D01*
X1434862Y371372D01*
X1434797Y370549D01*
X1434800Y370531D01*
X1434796Y370510D01*
X1434796Y362890D01*
X1434803Y362857D01*
X1434801Y362817D01*
X1434928Y361944D01*
X1434945Y361897D01*
X1434957Y361834D01*
X1435275Y361011D01*
X1435302Y360970D01*
X1435328Y360911D01*
X1435821Y360179D01*
X1435856Y360145D01*
X1435894Y360093D01*
X1436538Y359490D01*
X1436580Y359464D01*
X1436629Y359422D01*
X1437391Y358977D01*
X1437437Y358961D01*
X1437494Y358931D01*
X1438336Y358666D01*
X1438385Y358661D01*
X1438447Y358645D01*
X1439327Y358574D01*
X1439346Y358576D01*
X1439367Y358573D01*
X1456374Y358573D01*
X1456374Y354500D01*
X1456375Y354495D01*
X1456374Y354490D01*
X1456395Y354396D01*
X1456414Y354303D01*
X1456416Y354299D01*
X1456418Y354294D01*
X1456473Y354216D01*
X1456526Y354138D01*
X1456531Y354135D01*
X1456534Y354130D01*
X1456615Y354080D01*
X1456694Y354028D01*
X1456699Y354027D01*
X1456704Y354025D01*
X1456881Y353993D01*
X1465275Y353993D01*
X1465280Y353994D01*
G37*
G36*
X749000Y353994D02*
X749000Y353994D01*
X749006Y353993D01*
X749099Y354013D01*
X749192Y354032D01*
X749196Y354035D01*
X749201Y354036D01*
X749279Y354091D01*
X749358Y354145D01*
X749360Y354149D01*
X749365Y354152D01*
X749415Y354234D01*
X749467Y354313D01*
X749468Y354318D01*
X749470Y354323D01*
X749502Y354500D01*
X749502Y374574D01*
X749501Y374581D01*
X749502Y374589D01*
X749481Y374679D01*
X749463Y374770D01*
X749459Y374777D01*
X749457Y374784D01*
X749402Y374859D01*
X749350Y374936D01*
X749344Y374940D01*
X749339Y374947D01*
X749260Y374995D01*
X749182Y375045D01*
X749175Y375047D01*
X749168Y375051D01*
X748990Y375081D01*
X722574Y374827D01*
X722543Y374820D01*
X722505Y374822D01*
X721689Y374701D01*
X721642Y374684D01*
X721579Y374672D01*
X720810Y374373D01*
X720768Y374346D01*
X720709Y374320D01*
X720026Y373857D01*
X719992Y373822D01*
X719940Y373783D01*
X719377Y373180D01*
X719351Y373138D01*
X719309Y373089D01*
X718894Y372375D01*
X718878Y372329D01*
X718849Y372271D01*
X718603Y371483D01*
X718598Y371434D01*
X718582Y371372D01*
X718517Y370549D01*
X718520Y370531D01*
X718516Y370510D01*
X718516Y362890D01*
X718523Y362857D01*
X718521Y362817D01*
X718648Y361944D01*
X718665Y361897D01*
X718677Y361834D01*
X718995Y361011D01*
X719022Y360970D01*
X719048Y360911D01*
X719541Y360179D01*
X719576Y360145D01*
X719614Y360093D01*
X720258Y359490D01*
X720300Y359464D01*
X720349Y359422D01*
X721111Y358977D01*
X721157Y358961D01*
X721214Y358931D01*
X722056Y358666D01*
X722105Y358661D01*
X722167Y358645D01*
X723047Y358574D01*
X723066Y358576D01*
X723087Y358573D01*
X740094Y358573D01*
X740094Y354500D01*
X740095Y354495D01*
X740094Y354490D01*
X740115Y354396D01*
X740134Y354303D01*
X740136Y354299D01*
X740138Y354294D01*
X740193Y354216D01*
X740246Y354138D01*
X740251Y354135D01*
X740254Y354130D01*
X740335Y354080D01*
X740414Y354028D01*
X740419Y354027D01*
X740424Y354025D01*
X740601Y353993D01*
X748995Y353993D01*
X749000Y353994D01*
G37*
G36*
X32720Y1488874D02*
X32720Y1488874D01*
X32726Y1488873D01*
X32819Y1488893D01*
X32912Y1488912D01*
X32916Y1488915D01*
X32921Y1488916D01*
X32999Y1488971D01*
X33078Y1489025D01*
X33080Y1489029D01*
X33085Y1489032D01*
X33135Y1489114D01*
X33187Y1489193D01*
X33188Y1489198D01*
X33190Y1489203D01*
X33222Y1489380D01*
X33222Y1509446D01*
X33221Y1509453D01*
X33222Y1509459D01*
X33201Y1509550D01*
X33183Y1509642D01*
X33179Y1509648D01*
X33178Y1509655D01*
X33123Y1509731D01*
X33070Y1509808D01*
X33065Y1509812D01*
X33061Y1509817D01*
X32981Y1509866D01*
X32902Y1509917D01*
X32895Y1509919D01*
X32890Y1509922D01*
X32712Y1509953D01*
X24218Y1509903D01*
X24215Y1509902D01*
X24211Y1509903D01*
X24116Y1509882D01*
X24022Y1509862D01*
X24019Y1509860D01*
X24015Y1509859D01*
X23936Y1509803D01*
X23857Y1509749D01*
X23855Y1509746D01*
X23852Y1509743D01*
X23801Y1509661D01*
X23749Y1509580D01*
X23748Y1509576D01*
X23746Y1509573D01*
X23714Y1509396D01*
X23714Y1505079D01*
X6555Y1505127D01*
X6521Y1505120D01*
X6480Y1505122D01*
X5607Y1504995D01*
X5561Y1504978D01*
X5497Y1504966D01*
X4675Y1504648D01*
X4633Y1504621D01*
X4574Y1504595D01*
X3843Y1504102D01*
X3808Y1504067D01*
X3756Y1504029D01*
X3153Y1503385D01*
X3127Y1503343D01*
X3085Y1503294D01*
X2640Y1502533D01*
X2624Y1502486D01*
X2594Y1502429D01*
X2330Y1501587D01*
X2325Y1501538D01*
X2308Y1501476D01*
X2238Y1500596D01*
X2240Y1500577D01*
X2236Y1500556D01*
X2236Y1493190D01*
X2243Y1493156D01*
X2241Y1493116D01*
X2362Y1492299D01*
X2379Y1492253D01*
X2391Y1492190D01*
X2690Y1491420D01*
X2717Y1491379D01*
X2743Y1491320D01*
X3206Y1490637D01*
X3241Y1490602D01*
X3280Y1490550D01*
X3299Y1490532D01*
X3883Y1489987D01*
X3925Y1489961D01*
X3974Y1489920D01*
X4688Y1489505D01*
X4734Y1489489D01*
X4792Y1489459D01*
X5580Y1489214D01*
X5629Y1489209D01*
X5691Y1489192D01*
X6514Y1489128D01*
X6532Y1489130D01*
X6553Y1489127D01*
X7819Y1489127D01*
X24071Y1488873D01*
X24075Y1488873D01*
X24079Y1488873D01*
X32715Y1488873D01*
X32720Y1488874D01*
G37*
G36*
X1465280Y1488874D02*
X1465280Y1488874D01*
X1465286Y1488873D01*
X1465379Y1488893D01*
X1465472Y1488912D01*
X1465476Y1488915D01*
X1465481Y1488916D01*
X1465559Y1488971D01*
X1465638Y1489025D01*
X1465640Y1489029D01*
X1465645Y1489032D01*
X1465695Y1489114D01*
X1465747Y1489193D01*
X1465748Y1489198D01*
X1465750Y1489203D01*
X1465782Y1489380D01*
X1465782Y1509446D01*
X1465781Y1509453D01*
X1465782Y1509459D01*
X1465761Y1509550D01*
X1465743Y1509642D01*
X1465739Y1509648D01*
X1465738Y1509655D01*
X1465683Y1509731D01*
X1465630Y1509808D01*
X1465625Y1509812D01*
X1465621Y1509817D01*
X1465541Y1509866D01*
X1465462Y1509917D01*
X1465455Y1509919D01*
X1465450Y1509922D01*
X1465272Y1509953D01*
X1456778Y1509903D01*
X1456775Y1509902D01*
X1456771Y1509903D01*
X1456676Y1509882D01*
X1456582Y1509862D01*
X1456579Y1509860D01*
X1456575Y1509859D01*
X1456496Y1509803D01*
X1456417Y1509749D01*
X1456415Y1509746D01*
X1456412Y1509743D01*
X1456361Y1509661D01*
X1456309Y1509580D01*
X1456308Y1509576D01*
X1456306Y1509573D01*
X1456274Y1509396D01*
X1456274Y1505079D01*
X1439115Y1505127D01*
X1439081Y1505120D01*
X1439040Y1505122D01*
X1438167Y1504995D01*
X1438121Y1504978D01*
X1438057Y1504966D01*
X1437235Y1504648D01*
X1437193Y1504621D01*
X1437134Y1504595D01*
X1436403Y1504102D01*
X1436368Y1504067D01*
X1436316Y1504029D01*
X1435713Y1503385D01*
X1435687Y1503343D01*
X1435645Y1503294D01*
X1435200Y1502533D01*
X1435184Y1502486D01*
X1435154Y1502429D01*
X1434890Y1501587D01*
X1434885Y1501538D01*
X1434868Y1501476D01*
X1434798Y1500596D01*
X1434800Y1500577D01*
X1434796Y1500556D01*
X1434796Y1493190D01*
X1434803Y1493156D01*
X1434801Y1493116D01*
X1434922Y1492299D01*
X1434939Y1492253D01*
X1434951Y1492190D01*
X1435250Y1491420D01*
X1435277Y1491379D01*
X1435303Y1491320D01*
X1435766Y1490637D01*
X1435801Y1490602D01*
X1435840Y1490550D01*
X1435859Y1490532D01*
X1436443Y1489987D01*
X1436485Y1489961D01*
X1436534Y1489920D01*
X1437248Y1489505D01*
X1437294Y1489489D01*
X1437352Y1489459D01*
X1438140Y1489214D01*
X1438189Y1489209D01*
X1438251Y1489192D01*
X1439074Y1489128D01*
X1439092Y1489130D01*
X1439113Y1489127D01*
X1440379Y1489127D01*
X1456631Y1488873D01*
X1456635Y1488873D01*
X1456639Y1488873D01*
X1465275Y1488873D01*
X1465280Y1488874D01*
G37*
G36*
X2897840Y1488874D02*
X2897840Y1488874D01*
X2897846Y1488873D01*
X2897939Y1488893D01*
X2898032Y1488912D01*
X2898036Y1488915D01*
X2898041Y1488916D01*
X2898119Y1488971D01*
X2898198Y1489025D01*
X2898200Y1489029D01*
X2898205Y1489032D01*
X2898255Y1489114D01*
X2898307Y1489193D01*
X2898308Y1489198D01*
X2898310Y1489203D01*
X2898342Y1489380D01*
X2898342Y1509446D01*
X2898341Y1509453D01*
X2898342Y1509459D01*
X2898321Y1509550D01*
X2898303Y1509642D01*
X2898299Y1509648D01*
X2898298Y1509655D01*
X2898243Y1509731D01*
X2898190Y1509808D01*
X2898185Y1509812D01*
X2898181Y1509817D01*
X2898101Y1509866D01*
X2898022Y1509917D01*
X2898015Y1509919D01*
X2898010Y1509922D01*
X2897832Y1509953D01*
X2889338Y1509903D01*
X2889335Y1509902D01*
X2889331Y1509903D01*
X2889236Y1509882D01*
X2889142Y1509862D01*
X2889139Y1509860D01*
X2889135Y1509859D01*
X2889056Y1509803D01*
X2888977Y1509749D01*
X2888975Y1509746D01*
X2888972Y1509743D01*
X2888921Y1509661D01*
X2888869Y1509580D01*
X2888868Y1509576D01*
X2888866Y1509573D01*
X2888834Y1509396D01*
X2888834Y1505079D01*
X2871675Y1505127D01*
X2871641Y1505120D01*
X2871600Y1505122D01*
X2870727Y1504995D01*
X2870681Y1504978D01*
X2870617Y1504966D01*
X2869795Y1504648D01*
X2869753Y1504621D01*
X2869694Y1504595D01*
X2868963Y1504102D01*
X2868928Y1504067D01*
X2868876Y1504029D01*
X2868273Y1503385D01*
X2868247Y1503343D01*
X2868205Y1503294D01*
X2867760Y1502533D01*
X2867744Y1502486D01*
X2867714Y1502429D01*
X2867450Y1501587D01*
X2867445Y1501538D01*
X2867428Y1501476D01*
X2867358Y1500596D01*
X2867360Y1500577D01*
X2867356Y1500556D01*
X2867356Y1493190D01*
X2867363Y1493156D01*
X2867361Y1493116D01*
X2867482Y1492299D01*
X2867499Y1492253D01*
X2867511Y1492190D01*
X2867810Y1491420D01*
X2867837Y1491379D01*
X2867863Y1491320D01*
X2868326Y1490637D01*
X2868361Y1490602D01*
X2868400Y1490550D01*
X2868419Y1490532D01*
X2869003Y1489987D01*
X2869045Y1489961D01*
X2869094Y1489920D01*
X2869808Y1489505D01*
X2869854Y1489489D01*
X2869912Y1489459D01*
X2870700Y1489214D01*
X2870749Y1489209D01*
X2870811Y1489192D01*
X2871634Y1489128D01*
X2871652Y1489130D01*
X2871673Y1489127D01*
X2872939Y1489127D01*
X2889191Y1488873D01*
X2889195Y1488873D01*
X2889199Y1488873D01*
X2897835Y1488873D01*
X2897840Y1488874D01*
G37*
G36*
X749000Y950394D02*
X749000Y950394D01*
X749006Y950393D01*
X749099Y950413D01*
X749192Y950432D01*
X749196Y950435D01*
X749201Y950436D01*
X749279Y950491D01*
X749358Y950545D01*
X749360Y950549D01*
X749365Y950552D01*
X749415Y950634D01*
X749467Y950713D01*
X749468Y950718D01*
X749470Y950723D01*
X749502Y950900D01*
X749502Y970966D01*
X749501Y970973D01*
X749502Y970979D01*
X749481Y971070D01*
X749463Y971162D01*
X749459Y971168D01*
X749458Y971175D01*
X749403Y971251D01*
X749350Y971328D01*
X749345Y971332D01*
X749341Y971337D01*
X749261Y971386D01*
X749182Y971437D01*
X749175Y971439D01*
X749170Y971442D01*
X748992Y971473D01*
X740498Y971423D01*
X740495Y971422D01*
X740491Y971423D01*
X740396Y971402D01*
X740302Y971382D01*
X740299Y971380D01*
X740295Y971379D01*
X740216Y971323D01*
X740137Y971269D01*
X740135Y971266D01*
X740132Y971263D01*
X740081Y971181D01*
X740029Y971100D01*
X740028Y971096D01*
X740026Y971093D01*
X739994Y970916D01*
X739994Y966599D01*
X722835Y966647D01*
X722801Y966640D01*
X722760Y966642D01*
X721887Y966515D01*
X721841Y966498D01*
X721777Y966486D01*
X720955Y966168D01*
X720913Y966141D01*
X720854Y966115D01*
X720123Y965622D01*
X720088Y965587D01*
X720036Y965549D01*
X719433Y964905D01*
X719407Y964863D01*
X719365Y964814D01*
X718920Y964053D01*
X718904Y964006D01*
X718874Y963949D01*
X718610Y963107D01*
X718605Y963058D01*
X718588Y962996D01*
X718518Y962116D01*
X718520Y962097D01*
X718516Y962076D01*
X718516Y954710D01*
X718523Y954676D01*
X718521Y954636D01*
X718642Y953819D01*
X718659Y953773D01*
X718671Y953710D01*
X718970Y952940D01*
X718997Y952899D01*
X719023Y952840D01*
X719486Y952157D01*
X719521Y952122D01*
X719560Y952070D01*
X719579Y952052D01*
X720163Y951507D01*
X720205Y951481D01*
X720254Y951440D01*
X720968Y951025D01*
X721014Y951009D01*
X721072Y950979D01*
X721860Y950734D01*
X721909Y950729D01*
X721971Y950712D01*
X722794Y950648D01*
X722812Y950650D01*
X722833Y950647D01*
X724099Y950647D01*
X740351Y950393D01*
X740355Y950393D01*
X740359Y950393D01*
X748995Y950393D01*
X749000Y950394D01*
G37*
G36*
X2181560Y950394D02*
X2181560Y950394D01*
X2181566Y950393D01*
X2181659Y950413D01*
X2181752Y950432D01*
X2181756Y950435D01*
X2181761Y950436D01*
X2181839Y950491D01*
X2181918Y950545D01*
X2181920Y950549D01*
X2181925Y950552D01*
X2181975Y950634D01*
X2182027Y950713D01*
X2182028Y950718D01*
X2182030Y950723D01*
X2182062Y950900D01*
X2182062Y970966D01*
X2182061Y970973D01*
X2182062Y970979D01*
X2182041Y971070D01*
X2182023Y971162D01*
X2182019Y971168D01*
X2182018Y971175D01*
X2181963Y971251D01*
X2181910Y971328D01*
X2181905Y971332D01*
X2181901Y971337D01*
X2181821Y971386D01*
X2181742Y971437D01*
X2181735Y971439D01*
X2181730Y971442D01*
X2181552Y971473D01*
X2173058Y971423D01*
X2173055Y971422D01*
X2173051Y971423D01*
X2172956Y971402D01*
X2172862Y971382D01*
X2172859Y971380D01*
X2172855Y971379D01*
X2172776Y971323D01*
X2172697Y971269D01*
X2172695Y971266D01*
X2172692Y971263D01*
X2172641Y971181D01*
X2172589Y971100D01*
X2172588Y971096D01*
X2172586Y971093D01*
X2172554Y970916D01*
X2172554Y966599D01*
X2155395Y966647D01*
X2155361Y966640D01*
X2155320Y966642D01*
X2154447Y966515D01*
X2154401Y966498D01*
X2154337Y966486D01*
X2153515Y966168D01*
X2153473Y966141D01*
X2153414Y966115D01*
X2152683Y965622D01*
X2152648Y965587D01*
X2152596Y965549D01*
X2151993Y964905D01*
X2151967Y964863D01*
X2151925Y964814D01*
X2151480Y964053D01*
X2151464Y964006D01*
X2151434Y963949D01*
X2151170Y963107D01*
X2151165Y963058D01*
X2151148Y962996D01*
X2151078Y962116D01*
X2151080Y962097D01*
X2151076Y962076D01*
X2151076Y954710D01*
X2151083Y954676D01*
X2151081Y954636D01*
X2151202Y953819D01*
X2151219Y953773D01*
X2151231Y953710D01*
X2151530Y952940D01*
X2151557Y952899D01*
X2151583Y952840D01*
X2152046Y952157D01*
X2152081Y952122D01*
X2152120Y952070D01*
X2152139Y952052D01*
X2152723Y951507D01*
X2152765Y951481D01*
X2152814Y951440D01*
X2153528Y951025D01*
X2153574Y951009D01*
X2153632Y950979D01*
X2154420Y950734D01*
X2154469Y950729D01*
X2154531Y950712D01*
X2155354Y950648D01*
X2155372Y950650D01*
X2155393Y950647D01*
X2156659Y950647D01*
X2172911Y950393D01*
X2172915Y950393D01*
X2172919Y950393D01*
X2181555Y950393D01*
X2181560Y950394D01*
G37*
G36*
X32720Y950394D02*
X32720Y950394D01*
X32726Y950393D01*
X32819Y950413D01*
X32912Y950432D01*
X32916Y950435D01*
X32921Y950436D01*
X32999Y950491D01*
X33078Y950545D01*
X33080Y950549D01*
X33085Y950552D01*
X33135Y950634D01*
X33187Y950713D01*
X33188Y950718D01*
X33190Y950723D01*
X33222Y950900D01*
X33222Y970966D01*
X33221Y970973D01*
X33222Y970979D01*
X33201Y971070D01*
X33183Y971162D01*
X33179Y971168D01*
X33178Y971175D01*
X33123Y971251D01*
X33070Y971328D01*
X33065Y971332D01*
X33061Y971337D01*
X32981Y971386D01*
X32902Y971437D01*
X32895Y971439D01*
X32890Y971442D01*
X32712Y971473D01*
X24218Y971423D01*
X24215Y971422D01*
X24211Y971423D01*
X24116Y971402D01*
X24022Y971382D01*
X24019Y971380D01*
X24015Y971379D01*
X23936Y971323D01*
X23857Y971269D01*
X23855Y971266D01*
X23852Y971263D01*
X23801Y971181D01*
X23749Y971100D01*
X23748Y971096D01*
X23746Y971093D01*
X23714Y970916D01*
X23714Y966599D01*
X6555Y966647D01*
X6521Y966640D01*
X6480Y966642D01*
X5607Y966515D01*
X5561Y966498D01*
X5497Y966486D01*
X4675Y966168D01*
X4633Y966141D01*
X4574Y966115D01*
X3843Y965622D01*
X3808Y965587D01*
X3756Y965549D01*
X3153Y964905D01*
X3127Y964863D01*
X3085Y964814D01*
X2640Y964053D01*
X2624Y964006D01*
X2594Y963949D01*
X2330Y963107D01*
X2325Y963058D01*
X2308Y962996D01*
X2238Y962116D01*
X2240Y962097D01*
X2236Y962076D01*
X2236Y954710D01*
X2243Y954676D01*
X2241Y954636D01*
X2362Y953819D01*
X2379Y953773D01*
X2391Y953710D01*
X2690Y952940D01*
X2717Y952899D01*
X2743Y952840D01*
X3206Y952157D01*
X3241Y952122D01*
X3280Y952070D01*
X3299Y952052D01*
X3883Y951507D01*
X3925Y951481D01*
X3974Y951440D01*
X4688Y951025D01*
X4734Y951009D01*
X4792Y950979D01*
X5580Y950734D01*
X5629Y950729D01*
X5691Y950712D01*
X6514Y950648D01*
X6532Y950650D01*
X6553Y950647D01*
X7819Y950647D01*
X24071Y950393D01*
X24075Y950393D01*
X24079Y950393D01*
X32715Y950393D01*
X32720Y950394D01*
G37*
G36*
X1465280Y950394D02*
X1465280Y950394D01*
X1465286Y950393D01*
X1465379Y950413D01*
X1465472Y950432D01*
X1465476Y950435D01*
X1465481Y950436D01*
X1465559Y950491D01*
X1465638Y950545D01*
X1465640Y950549D01*
X1465645Y950552D01*
X1465695Y950634D01*
X1465747Y950713D01*
X1465748Y950718D01*
X1465750Y950723D01*
X1465782Y950900D01*
X1465782Y970966D01*
X1465781Y970973D01*
X1465782Y970979D01*
X1465761Y971070D01*
X1465743Y971162D01*
X1465739Y971168D01*
X1465738Y971175D01*
X1465683Y971251D01*
X1465630Y971328D01*
X1465625Y971332D01*
X1465621Y971337D01*
X1465541Y971386D01*
X1465462Y971437D01*
X1465455Y971439D01*
X1465450Y971442D01*
X1465272Y971473D01*
X1456778Y971423D01*
X1456775Y971422D01*
X1456771Y971423D01*
X1456676Y971402D01*
X1456582Y971382D01*
X1456579Y971380D01*
X1456575Y971379D01*
X1456496Y971323D01*
X1456417Y971269D01*
X1456415Y971266D01*
X1456412Y971263D01*
X1456361Y971181D01*
X1456309Y971100D01*
X1456308Y971096D01*
X1456306Y971093D01*
X1456274Y970916D01*
X1456274Y966599D01*
X1439115Y966647D01*
X1439081Y966640D01*
X1439040Y966642D01*
X1438167Y966515D01*
X1438121Y966498D01*
X1438057Y966486D01*
X1437235Y966168D01*
X1437193Y966141D01*
X1437134Y966115D01*
X1436403Y965622D01*
X1436368Y965587D01*
X1436316Y965549D01*
X1435713Y964905D01*
X1435687Y964863D01*
X1435645Y964814D01*
X1435200Y964053D01*
X1435184Y964006D01*
X1435154Y963949D01*
X1434890Y963107D01*
X1434885Y963058D01*
X1434868Y962996D01*
X1434798Y962116D01*
X1434800Y962097D01*
X1434796Y962076D01*
X1434796Y954710D01*
X1434803Y954676D01*
X1434801Y954636D01*
X1434922Y953819D01*
X1434939Y953773D01*
X1434951Y953710D01*
X1435250Y952940D01*
X1435277Y952899D01*
X1435303Y952840D01*
X1435766Y952157D01*
X1435801Y952122D01*
X1435840Y952070D01*
X1435859Y952052D01*
X1436443Y951507D01*
X1436485Y951481D01*
X1436534Y951440D01*
X1437248Y951025D01*
X1437294Y951009D01*
X1437352Y950979D01*
X1438140Y950734D01*
X1438189Y950729D01*
X1438251Y950712D01*
X1439074Y950648D01*
X1439092Y950650D01*
X1439113Y950647D01*
X1440379Y950647D01*
X1456631Y950393D01*
X1456635Y950393D01*
X1456639Y950393D01*
X1465275Y950393D01*
X1465280Y950394D01*
G37*
G36*
X2897840Y950394D02*
X2897840Y950394D01*
X2897846Y950393D01*
X2897939Y950413D01*
X2898032Y950432D01*
X2898036Y950435D01*
X2898041Y950436D01*
X2898119Y950491D01*
X2898198Y950545D01*
X2898200Y950549D01*
X2898205Y950552D01*
X2898255Y950634D01*
X2898307Y950713D01*
X2898308Y950718D01*
X2898310Y950723D01*
X2898342Y950900D01*
X2898342Y970966D01*
X2898341Y970973D01*
X2898342Y970979D01*
X2898321Y971070D01*
X2898303Y971162D01*
X2898299Y971168D01*
X2898298Y971175D01*
X2898243Y971251D01*
X2898190Y971328D01*
X2898185Y971332D01*
X2898181Y971337D01*
X2898101Y971386D01*
X2898022Y971437D01*
X2898015Y971439D01*
X2898010Y971442D01*
X2897832Y971473D01*
X2889338Y971423D01*
X2889335Y971422D01*
X2889331Y971423D01*
X2889236Y971402D01*
X2889142Y971382D01*
X2889139Y971380D01*
X2889135Y971379D01*
X2889056Y971323D01*
X2888977Y971269D01*
X2888975Y971266D01*
X2888972Y971263D01*
X2888921Y971181D01*
X2888869Y971100D01*
X2888868Y971096D01*
X2888866Y971093D01*
X2888834Y970916D01*
X2888834Y966599D01*
X2871675Y966647D01*
X2871641Y966640D01*
X2871600Y966642D01*
X2870727Y966515D01*
X2870681Y966498D01*
X2870617Y966486D01*
X2869795Y966168D01*
X2869753Y966141D01*
X2869694Y966115D01*
X2868963Y965622D01*
X2868928Y965587D01*
X2868876Y965549D01*
X2868273Y964905D01*
X2868247Y964863D01*
X2868205Y964814D01*
X2867760Y964053D01*
X2867744Y964006D01*
X2867714Y963949D01*
X2867450Y963107D01*
X2867445Y963058D01*
X2867428Y962996D01*
X2867358Y962116D01*
X2867360Y962097D01*
X2867356Y962076D01*
X2867356Y954710D01*
X2867363Y954676D01*
X2867361Y954636D01*
X2867482Y953819D01*
X2867499Y953773D01*
X2867511Y953710D01*
X2867810Y952940D01*
X2867837Y952899D01*
X2867863Y952840D01*
X2868326Y952157D01*
X2868361Y952122D01*
X2868400Y952070D01*
X2868419Y952052D01*
X2869003Y951507D01*
X2869045Y951481D01*
X2869094Y951440D01*
X2869808Y951025D01*
X2869854Y951009D01*
X2869912Y950979D01*
X2870700Y950734D01*
X2870749Y950729D01*
X2870811Y950712D01*
X2871634Y950648D01*
X2871652Y950650D01*
X2871673Y950647D01*
X2872939Y950647D01*
X2889191Y950393D01*
X2889195Y950393D01*
X2889199Y950393D01*
X2897835Y950393D01*
X2897840Y950394D01*
G37*
G36*
X1465280Y411914D02*
X1465280Y411914D01*
X1465286Y411913D01*
X1465379Y411933D01*
X1465472Y411952D01*
X1465476Y411955D01*
X1465481Y411956D01*
X1465559Y412011D01*
X1465638Y412065D01*
X1465640Y412069D01*
X1465645Y412072D01*
X1465695Y412154D01*
X1465747Y412233D01*
X1465748Y412238D01*
X1465750Y412243D01*
X1465782Y412420D01*
X1465782Y432486D01*
X1465781Y432493D01*
X1465782Y432499D01*
X1465761Y432590D01*
X1465743Y432682D01*
X1465739Y432688D01*
X1465738Y432695D01*
X1465683Y432771D01*
X1465630Y432848D01*
X1465625Y432852D01*
X1465621Y432857D01*
X1465541Y432906D01*
X1465462Y432957D01*
X1465455Y432959D01*
X1465450Y432962D01*
X1465272Y432993D01*
X1456778Y432943D01*
X1456775Y432942D01*
X1456771Y432943D01*
X1456676Y432922D01*
X1456582Y432902D01*
X1456579Y432900D01*
X1456575Y432899D01*
X1456496Y432843D01*
X1456417Y432789D01*
X1456415Y432786D01*
X1456412Y432783D01*
X1456361Y432701D01*
X1456309Y432620D01*
X1456308Y432616D01*
X1456306Y432613D01*
X1456274Y432436D01*
X1456274Y428119D01*
X1439115Y428167D01*
X1439081Y428160D01*
X1439040Y428162D01*
X1438167Y428035D01*
X1438121Y428018D01*
X1438057Y428006D01*
X1437235Y427688D01*
X1437193Y427661D01*
X1437134Y427635D01*
X1436403Y427142D01*
X1436368Y427107D01*
X1436316Y427069D01*
X1435713Y426425D01*
X1435687Y426383D01*
X1435645Y426334D01*
X1435200Y425573D01*
X1435184Y425526D01*
X1435154Y425469D01*
X1434890Y424627D01*
X1434885Y424578D01*
X1434868Y424516D01*
X1434798Y423636D01*
X1434800Y423617D01*
X1434796Y423596D01*
X1434796Y416230D01*
X1434803Y416196D01*
X1434801Y416156D01*
X1434922Y415339D01*
X1434939Y415293D01*
X1434951Y415230D01*
X1435250Y414460D01*
X1435277Y414419D01*
X1435303Y414360D01*
X1435766Y413677D01*
X1435801Y413642D01*
X1435840Y413590D01*
X1435859Y413572D01*
X1436443Y413027D01*
X1436485Y413001D01*
X1436534Y412960D01*
X1437248Y412545D01*
X1437294Y412529D01*
X1437352Y412499D01*
X1438140Y412254D01*
X1438189Y412249D01*
X1438251Y412232D01*
X1439074Y412168D01*
X1439092Y412170D01*
X1439113Y412167D01*
X1440379Y412167D01*
X1456631Y411913D01*
X1456635Y411913D01*
X1456639Y411913D01*
X1465275Y411913D01*
X1465280Y411914D01*
G37*
G36*
X749000Y411914D02*
X749000Y411914D01*
X749006Y411913D01*
X749099Y411933D01*
X749192Y411952D01*
X749196Y411955D01*
X749201Y411956D01*
X749279Y412011D01*
X749358Y412065D01*
X749360Y412069D01*
X749365Y412072D01*
X749415Y412154D01*
X749467Y412233D01*
X749468Y412238D01*
X749470Y412243D01*
X749502Y412420D01*
X749502Y432486D01*
X749501Y432493D01*
X749502Y432499D01*
X749481Y432590D01*
X749463Y432682D01*
X749459Y432688D01*
X749458Y432695D01*
X749403Y432771D01*
X749350Y432848D01*
X749345Y432852D01*
X749341Y432857D01*
X749261Y432906D01*
X749182Y432957D01*
X749175Y432959D01*
X749170Y432962D01*
X748992Y432993D01*
X740498Y432943D01*
X740495Y432942D01*
X740491Y432943D01*
X740396Y432922D01*
X740302Y432902D01*
X740299Y432900D01*
X740295Y432899D01*
X740216Y432843D01*
X740137Y432789D01*
X740135Y432786D01*
X740132Y432783D01*
X740081Y432701D01*
X740029Y432620D01*
X740028Y432616D01*
X740026Y432613D01*
X739994Y432436D01*
X739994Y428119D01*
X722835Y428167D01*
X722801Y428160D01*
X722760Y428162D01*
X721887Y428035D01*
X721841Y428018D01*
X721777Y428006D01*
X720955Y427688D01*
X720913Y427661D01*
X720854Y427635D01*
X720123Y427142D01*
X720088Y427107D01*
X720036Y427069D01*
X719433Y426425D01*
X719407Y426383D01*
X719365Y426334D01*
X718920Y425573D01*
X718904Y425526D01*
X718874Y425469D01*
X718610Y424627D01*
X718605Y424578D01*
X718588Y424516D01*
X718518Y423636D01*
X718520Y423617D01*
X718516Y423596D01*
X718516Y416230D01*
X718523Y416196D01*
X718521Y416156D01*
X718642Y415339D01*
X718659Y415293D01*
X718671Y415230D01*
X718970Y414460D01*
X718997Y414419D01*
X719023Y414360D01*
X719486Y413677D01*
X719521Y413642D01*
X719560Y413590D01*
X719579Y413572D01*
X720163Y413027D01*
X720205Y413001D01*
X720254Y412960D01*
X720968Y412545D01*
X721014Y412529D01*
X721072Y412499D01*
X721860Y412254D01*
X721909Y412249D01*
X721971Y412232D01*
X722794Y412168D01*
X722812Y412170D01*
X722833Y412167D01*
X724099Y412167D01*
X740351Y411913D01*
X740355Y411913D01*
X740359Y411913D01*
X748995Y411913D01*
X749000Y411914D01*
G37*
G36*
X2897840Y411914D02*
X2897840Y411914D01*
X2897846Y411913D01*
X2897939Y411933D01*
X2898032Y411952D01*
X2898036Y411955D01*
X2898041Y411956D01*
X2898119Y412011D01*
X2898198Y412065D01*
X2898200Y412069D01*
X2898205Y412072D01*
X2898255Y412154D01*
X2898307Y412233D01*
X2898308Y412238D01*
X2898310Y412243D01*
X2898342Y412420D01*
X2898342Y432486D01*
X2898341Y432493D01*
X2898342Y432499D01*
X2898321Y432590D01*
X2898303Y432682D01*
X2898299Y432688D01*
X2898298Y432695D01*
X2898243Y432771D01*
X2898190Y432848D01*
X2898185Y432852D01*
X2898181Y432857D01*
X2898101Y432906D01*
X2898022Y432957D01*
X2898015Y432959D01*
X2898010Y432962D01*
X2897832Y432993D01*
X2889338Y432943D01*
X2889335Y432942D01*
X2889331Y432943D01*
X2889236Y432922D01*
X2889142Y432902D01*
X2889139Y432900D01*
X2889135Y432899D01*
X2889056Y432843D01*
X2888977Y432789D01*
X2888975Y432786D01*
X2888972Y432783D01*
X2888921Y432701D01*
X2888869Y432620D01*
X2888868Y432616D01*
X2888866Y432613D01*
X2888834Y432436D01*
X2888834Y428119D01*
X2871675Y428167D01*
X2871641Y428160D01*
X2871600Y428162D01*
X2870727Y428035D01*
X2870681Y428018D01*
X2870617Y428006D01*
X2869795Y427688D01*
X2869753Y427661D01*
X2869694Y427635D01*
X2868963Y427142D01*
X2868928Y427107D01*
X2868876Y427069D01*
X2868273Y426425D01*
X2868247Y426383D01*
X2868205Y426334D01*
X2867760Y425573D01*
X2867744Y425526D01*
X2867714Y425469D01*
X2867450Y424627D01*
X2867445Y424578D01*
X2867428Y424516D01*
X2867358Y423636D01*
X2867360Y423617D01*
X2867356Y423596D01*
X2867356Y416230D01*
X2867363Y416196D01*
X2867361Y416156D01*
X2867482Y415339D01*
X2867499Y415293D01*
X2867511Y415230D01*
X2867810Y414460D01*
X2867837Y414419D01*
X2867863Y414360D01*
X2868326Y413677D01*
X2868361Y413642D01*
X2868400Y413590D01*
X2868419Y413572D01*
X2869003Y413027D01*
X2869045Y413001D01*
X2869094Y412960D01*
X2869808Y412545D01*
X2869854Y412529D01*
X2869912Y412499D01*
X2870700Y412254D01*
X2870749Y412249D01*
X2870811Y412232D01*
X2871634Y412168D01*
X2871652Y412170D01*
X2871673Y412167D01*
X2872939Y412167D01*
X2889191Y411913D01*
X2889195Y411913D01*
X2889199Y411913D01*
X2897835Y411913D01*
X2897840Y411914D01*
G37*
G36*
X32720Y411914D02*
X32720Y411914D01*
X32726Y411913D01*
X32819Y411933D01*
X32912Y411952D01*
X32916Y411955D01*
X32921Y411956D01*
X32999Y412011D01*
X33078Y412065D01*
X33080Y412069D01*
X33085Y412072D01*
X33135Y412154D01*
X33187Y412233D01*
X33188Y412238D01*
X33190Y412243D01*
X33222Y412420D01*
X33222Y432486D01*
X33221Y432493D01*
X33222Y432499D01*
X33201Y432590D01*
X33183Y432682D01*
X33179Y432688D01*
X33178Y432695D01*
X33123Y432771D01*
X33070Y432848D01*
X33065Y432852D01*
X33061Y432857D01*
X32981Y432906D01*
X32902Y432957D01*
X32895Y432959D01*
X32890Y432962D01*
X32712Y432993D01*
X24218Y432943D01*
X24215Y432942D01*
X24211Y432943D01*
X24116Y432922D01*
X24022Y432902D01*
X24019Y432900D01*
X24015Y432899D01*
X23936Y432843D01*
X23857Y432789D01*
X23855Y432786D01*
X23852Y432783D01*
X23801Y432701D01*
X23749Y432620D01*
X23748Y432616D01*
X23746Y432613D01*
X23714Y432436D01*
X23714Y428119D01*
X6555Y428167D01*
X6521Y428160D01*
X6480Y428162D01*
X5607Y428035D01*
X5561Y428018D01*
X5497Y428006D01*
X4675Y427688D01*
X4633Y427661D01*
X4574Y427635D01*
X3843Y427142D01*
X3808Y427107D01*
X3756Y427069D01*
X3153Y426425D01*
X3127Y426383D01*
X3085Y426334D01*
X2640Y425573D01*
X2624Y425526D01*
X2594Y425469D01*
X2330Y424627D01*
X2325Y424578D01*
X2308Y424516D01*
X2238Y423636D01*
X2240Y423617D01*
X2236Y423596D01*
X2236Y416230D01*
X2243Y416196D01*
X2241Y416156D01*
X2362Y415339D01*
X2379Y415293D01*
X2391Y415230D01*
X2690Y414460D01*
X2717Y414419D01*
X2743Y414360D01*
X3206Y413677D01*
X3241Y413642D01*
X3280Y413590D01*
X3299Y413572D01*
X3883Y413027D01*
X3925Y413001D01*
X3974Y412960D01*
X4688Y412545D01*
X4734Y412529D01*
X4792Y412499D01*
X5580Y412254D01*
X5629Y412249D01*
X5691Y412232D01*
X6514Y412168D01*
X6532Y412170D01*
X6553Y412167D01*
X7819Y412167D01*
X24071Y411913D01*
X24075Y411913D01*
X24079Y411913D01*
X32715Y411913D01*
X32720Y411914D01*
G37*
G36*
X2181560Y1488874D02*
X2181560Y1488874D01*
X2181566Y1488873D01*
X2181659Y1488893D01*
X2181752Y1488912D01*
X2181756Y1488915D01*
X2181761Y1488916D01*
X2181839Y1488971D01*
X2181918Y1489025D01*
X2181920Y1489029D01*
X2181925Y1489032D01*
X2181975Y1489114D01*
X2182027Y1489193D01*
X2182028Y1489198D01*
X2182030Y1489203D01*
X2182062Y1489380D01*
X2182062Y1509446D01*
X2182061Y1509453D01*
X2182062Y1509459D01*
X2182041Y1509550D01*
X2182023Y1509642D01*
X2182019Y1509648D01*
X2182018Y1509655D01*
X2181963Y1509731D01*
X2181910Y1509808D01*
X2181905Y1509812D01*
X2181901Y1509817D01*
X2181821Y1509866D01*
X2181742Y1509917D01*
X2181735Y1509919D01*
X2181730Y1509922D01*
X2181552Y1509953D01*
X2173058Y1509903D01*
X2173055Y1509902D01*
X2173051Y1509903D01*
X2172956Y1509882D01*
X2172862Y1509862D01*
X2172859Y1509860D01*
X2172855Y1509859D01*
X2172776Y1509803D01*
X2172697Y1509749D01*
X2172695Y1509746D01*
X2172692Y1509743D01*
X2172641Y1509661D01*
X2172589Y1509580D01*
X2172588Y1509576D01*
X2172586Y1509573D01*
X2172554Y1509396D01*
X2172554Y1505079D01*
X2155395Y1505127D01*
X2155361Y1505120D01*
X2155320Y1505122D01*
X2154447Y1504995D01*
X2154401Y1504978D01*
X2154337Y1504966D01*
X2153515Y1504648D01*
X2153473Y1504621D01*
X2153414Y1504595D01*
X2152683Y1504102D01*
X2152648Y1504067D01*
X2152596Y1504029D01*
X2151993Y1503385D01*
X2151967Y1503343D01*
X2151925Y1503294D01*
X2151480Y1502533D01*
X2151464Y1502486D01*
X2151434Y1502429D01*
X2151170Y1501587D01*
X2151165Y1501538D01*
X2151148Y1501476D01*
X2151078Y1500596D01*
X2151080Y1500577D01*
X2151076Y1500556D01*
X2151076Y1493190D01*
X2151083Y1493156D01*
X2151081Y1493116D01*
X2151202Y1492299D01*
X2151219Y1492253D01*
X2151231Y1492190D01*
X2151530Y1491420D01*
X2151557Y1491379D01*
X2151583Y1491320D01*
X2152046Y1490637D01*
X2152081Y1490602D01*
X2152120Y1490550D01*
X2152139Y1490532D01*
X2152723Y1489987D01*
X2152765Y1489961D01*
X2152814Y1489920D01*
X2153528Y1489505D01*
X2153574Y1489489D01*
X2153632Y1489459D01*
X2154420Y1489214D01*
X2154469Y1489209D01*
X2154531Y1489192D01*
X2155354Y1489128D01*
X2155372Y1489130D01*
X2155393Y1489127D01*
X2156659Y1489127D01*
X2172911Y1488873D01*
X2172915Y1488873D01*
X2172919Y1488873D01*
X2181555Y1488873D01*
X2181560Y1488874D01*
G37*
G36*
X749000Y1488874D02*
X749000Y1488874D01*
X749006Y1488873D01*
X749099Y1488893D01*
X749192Y1488912D01*
X749196Y1488915D01*
X749201Y1488916D01*
X749279Y1488971D01*
X749358Y1489025D01*
X749360Y1489029D01*
X749365Y1489032D01*
X749415Y1489114D01*
X749467Y1489193D01*
X749468Y1489198D01*
X749470Y1489203D01*
X749502Y1489380D01*
X749502Y1509446D01*
X749501Y1509453D01*
X749502Y1509459D01*
X749481Y1509550D01*
X749463Y1509642D01*
X749459Y1509648D01*
X749458Y1509655D01*
X749403Y1509731D01*
X749350Y1509808D01*
X749345Y1509812D01*
X749341Y1509817D01*
X749261Y1509866D01*
X749182Y1509917D01*
X749175Y1509919D01*
X749170Y1509922D01*
X748992Y1509953D01*
X740498Y1509903D01*
X740495Y1509902D01*
X740491Y1509903D01*
X740396Y1509882D01*
X740302Y1509862D01*
X740299Y1509860D01*
X740295Y1509859D01*
X740216Y1509803D01*
X740137Y1509749D01*
X740135Y1509746D01*
X740132Y1509743D01*
X740081Y1509661D01*
X740029Y1509580D01*
X740028Y1509576D01*
X740026Y1509573D01*
X739994Y1509396D01*
X739994Y1505079D01*
X722835Y1505127D01*
X722801Y1505120D01*
X722760Y1505122D01*
X721887Y1504995D01*
X721841Y1504978D01*
X721777Y1504966D01*
X720955Y1504648D01*
X720913Y1504621D01*
X720854Y1504595D01*
X720123Y1504102D01*
X720088Y1504067D01*
X720036Y1504029D01*
X719433Y1503385D01*
X719407Y1503343D01*
X719365Y1503294D01*
X718920Y1502533D01*
X718904Y1502486D01*
X718874Y1502429D01*
X718610Y1501587D01*
X718605Y1501538D01*
X718588Y1501476D01*
X718518Y1500596D01*
X718520Y1500577D01*
X718516Y1500556D01*
X718516Y1493190D01*
X718523Y1493156D01*
X718521Y1493116D01*
X718642Y1492299D01*
X718659Y1492253D01*
X718671Y1492190D01*
X718970Y1491420D01*
X718997Y1491379D01*
X719023Y1491320D01*
X719486Y1490637D01*
X719521Y1490602D01*
X719560Y1490550D01*
X719579Y1490532D01*
X720163Y1489987D01*
X720205Y1489961D01*
X720254Y1489920D01*
X720968Y1489505D01*
X721014Y1489489D01*
X721072Y1489459D01*
X721860Y1489214D01*
X721909Y1489209D01*
X721971Y1489192D01*
X722794Y1489128D01*
X722812Y1489130D01*
X722833Y1489127D01*
X724099Y1489127D01*
X740351Y1488873D01*
X740355Y1488873D01*
X740359Y1488873D01*
X748995Y1488873D01*
X749000Y1488874D01*
G37*
G36*
X2181560Y411914D02*
X2181560Y411914D01*
X2181566Y411913D01*
X2181659Y411933D01*
X2181752Y411952D01*
X2181756Y411955D01*
X2181761Y411956D01*
X2181839Y412011D01*
X2181918Y412065D01*
X2181920Y412069D01*
X2181925Y412072D01*
X2181975Y412154D01*
X2182027Y412233D01*
X2182028Y412238D01*
X2182030Y412243D01*
X2182062Y412420D01*
X2182062Y432486D01*
X2182061Y432493D01*
X2182062Y432499D01*
X2182041Y432590D01*
X2182023Y432682D01*
X2182019Y432688D01*
X2182018Y432695D01*
X2181963Y432771D01*
X2181910Y432848D01*
X2181905Y432852D01*
X2181901Y432857D01*
X2181821Y432906D01*
X2181742Y432957D01*
X2181735Y432959D01*
X2181730Y432962D01*
X2181552Y432993D01*
X2173058Y432943D01*
X2173055Y432942D01*
X2173051Y432943D01*
X2172956Y432922D01*
X2172862Y432902D01*
X2172859Y432900D01*
X2172855Y432899D01*
X2172776Y432843D01*
X2172697Y432789D01*
X2172695Y432786D01*
X2172692Y432783D01*
X2172641Y432701D01*
X2172589Y432620D01*
X2172588Y432616D01*
X2172586Y432613D01*
X2172554Y432436D01*
X2172554Y428119D01*
X2155395Y428167D01*
X2155361Y428160D01*
X2155320Y428162D01*
X2154447Y428035D01*
X2154401Y428018D01*
X2154337Y428006D01*
X2153515Y427688D01*
X2153473Y427661D01*
X2153414Y427635D01*
X2152683Y427142D01*
X2152648Y427107D01*
X2152596Y427069D01*
X2151993Y426425D01*
X2151967Y426383D01*
X2151925Y426334D01*
X2151480Y425573D01*
X2151464Y425526D01*
X2151434Y425469D01*
X2151170Y424627D01*
X2151165Y424578D01*
X2151148Y424516D01*
X2151078Y423636D01*
X2151080Y423617D01*
X2151076Y423596D01*
X2151076Y416230D01*
X2151083Y416196D01*
X2151081Y416156D01*
X2151202Y415339D01*
X2151219Y415293D01*
X2151231Y415230D01*
X2151530Y414460D01*
X2151557Y414419D01*
X2151583Y414360D01*
X2152046Y413677D01*
X2152081Y413642D01*
X2152120Y413590D01*
X2152139Y413572D01*
X2152723Y413027D01*
X2152765Y413001D01*
X2152814Y412960D01*
X2153528Y412545D01*
X2153574Y412529D01*
X2153632Y412499D01*
X2154420Y412254D01*
X2154469Y412249D01*
X2154531Y412232D01*
X2155354Y412168D01*
X2155372Y412170D01*
X2155393Y412167D01*
X2156659Y412167D01*
X2172911Y411913D01*
X2172915Y411913D01*
X2172919Y411913D01*
X2181555Y411913D01*
X2181560Y411914D01*
G37*
G36*
X2435290Y1278267D02*
X2435290Y1278267D01*
X2435356Y1278269D01*
X2435399Y1278287D01*
X2435446Y1278295D01*
X2435503Y1278329D01*
X2435563Y1278354D01*
X2435598Y1278385D01*
X2435639Y1278410D01*
X2435681Y1278461D01*
X2435729Y1278505D01*
X2435751Y1278547D01*
X2435780Y1278584D01*
X2435801Y1278646D01*
X2435832Y1278705D01*
X2435840Y1278759D01*
X2435852Y1278796D01*
X2435851Y1278836D01*
X2435859Y1278890D01*
X2435859Y1281430D01*
X2435848Y1281495D01*
X2435846Y1281561D01*
X2435828Y1281604D01*
X2435820Y1281651D01*
X2435786Y1281708D01*
X2435761Y1281768D01*
X2435730Y1281803D01*
X2435705Y1281844D01*
X2435654Y1281886D01*
X2435610Y1281934D01*
X2435568Y1281956D01*
X2435531Y1281985D01*
X2435469Y1282006D01*
X2435410Y1282037D01*
X2435356Y1282045D01*
X2435319Y1282057D01*
X2435279Y1282056D01*
X2435225Y1282064D01*
X2431415Y1282064D01*
X2431350Y1282053D01*
X2431284Y1282051D01*
X2431241Y1282033D01*
X2431194Y1282025D01*
X2431137Y1281991D01*
X2431077Y1281966D01*
X2431042Y1281935D01*
X2431001Y1281910D01*
X2430960Y1281859D01*
X2430911Y1281815D01*
X2430889Y1281773D01*
X2430860Y1281736D01*
X2430839Y1281674D01*
X2430808Y1281615D01*
X2430800Y1281561D01*
X2430788Y1281524D01*
X2430788Y1281521D01*
X2430789Y1281484D01*
X2430781Y1281430D01*
X2430781Y1278890D01*
X2430792Y1278825D01*
X2430794Y1278759D01*
X2430812Y1278716D01*
X2430820Y1278669D01*
X2430854Y1278612D01*
X2430879Y1278552D01*
X2430910Y1278517D01*
X2430935Y1278476D01*
X2430986Y1278435D01*
X2431030Y1278386D01*
X2431072Y1278364D01*
X2431109Y1278335D01*
X2431171Y1278314D01*
X2431230Y1278283D01*
X2431284Y1278275D01*
X2431321Y1278263D01*
X2431361Y1278264D01*
X2431415Y1278256D01*
X2435225Y1278256D01*
X2435290Y1278267D01*
G37*
G36*
X3151570Y1278267D02*
X3151570Y1278267D01*
X3151636Y1278269D01*
X3151679Y1278287D01*
X3151726Y1278295D01*
X3151783Y1278329D01*
X3151843Y1278354D01*
X3151878Y1278385D01*
X3151919Y1278410D01*
X3151961Y1278461D01*
X3152009Y1278505D01*
X3152031Y1278547D01*
X3152060Y1278584D01*
X3152081Y1278646D01*
X3152112Y1278705D01*
X3152120Y1278759D01*
X3152132Y1278796D01*
X3152131Y1278836D01*
X3152139Y1278890D01*
X3152139Y1281430D01*
X3152128Y1281495D01*
X3152126Y1281561D01*
X3152108Y1281604D01*
X3152100Y1281651D01*
X3152066Y1281708D01*
X3152041Y1281768D01*
X3152010Y1281803D01*
X3151985Y1281844D01*
X3151934Y1281886D01*
X3151890Y1281934D01*
X3151848Y1281956D01*
X3151811Y1281985D01*
X3151749Y1282006D01*
X3151690Y1282037D01*
X3151636Y1282045D01*
X3151599Y1282057D01*
X3151559Y1282056D01*
X3151505Y1282064D01*
X3147695Y1282064D01*
X3147630Y1282053D01*
X3147564Y1282051D01*
X3147521Y1282033D01*
X3147474Y1282025D01*
X3147417Y1281991D01*
X3147357Y1281966D01*
X3147322Y1281935D01*
X3147281Y1281910D01*
X3147240Y1281859D01*
X3147191Y1281815D01*
X3147169Y1281773D01*
X3147140Y1281736D01*
X3147119Y1281674D01*
X3147088Y1281615D01*
X3147080Y1281561D01*
X3147068Y1281524D01*
X3147068Y1281521D01*
X3147069Y1281484D01*
X3147061Y1281430D01*
X3147061Y1278890D01*
X3147072Y1278825D01*
X3147074Y1278759D01*
X3147092Y1278716D01*
X3147100Y1278669D01*
X3147134Y1278612D01*
X3147159Y1278552D01*
X3147190Y1278517D01*
X3147215Y1278476D01*
X3147266Y1278435D01*
X3147310Y1278386D01*
X3147352Y1278364D01*
X3147389Y1278335D01*
X3147451Y1278314D01*
X3147510Y1278283D01*
X3147564Y1278275D01*
X3147601Y1278263D01*
X3147641Y1278264D01*
X3147695Y1278256D01*
X3151505Y1278256D01*
X3151570Y1278267D01*
G37*
G36*
X3151570Y739787D02*
X3151570Y739787D01*
X3151636Y739789D01*
X3151679Y739807D01*
X3151726Y739815D01*
X3151783Y739849D01*
X3151843Y739874D01*
X3151878Y739905D01*
X3151919Y739930D01*
X3151961Y739981D01*
X3152009Y740025D01*
X3152031Y740067D01*
X3152060Y740104D01*
X3152081Y740166D01*
X3152112Y740225D01*
X3152120Y740279D01*
X3152132Y740316D01*
X3152131Y740356D01*
X3152139Y740410D01*
X3152139Y742950D01*
X3152128Y743015D01*
X3152126Y743081D01*
X3152108Y743124D01*
X3152100Y743171D01*
X3152066Y743228D01*
X3152041Y743288D01*
X3152010Y743323D01*
X3151985Y743364D01*
X3151934Y743406D01*
X3151890Y743454D01*
X3151848Y743476D01*
X3151811Y743505D01*
X3151749Y743526D01*
X3151690Y743557D01*
X3151636Y743565D01*
X3151599Y743577D01*
X3151559Y743576D01*
X3151505Y743584D01*
X3147695Y743584D01*
X3147630Y743573D01*
X3147564Y743571D01*
X3147521Y743553D01*
X3147474Y743545D01*
X3147417Y743511D01*
X3147357Y743486D01*
X3147322Y743455D01*
X3147281Y743430D01*
X3147240Y743379D01*
X3147191Y743335D01*
X3147169Y743293D01*
X3147140Y743256D01*
X3147119Y743194D01*
X3147088Y743135D01*
X3147080Y743081D01*
X3147068Y743044D01*
X3147068Y743041D01*
X3147069Y743004D01*
X3147061Y742950D01*
X3147061Y740410D01*
X3147072Y740345D01*
X3147074Y740279D01*
X3147092Y740236D01*
X3147100Y740189D01*
X3147134Y740132D01*
X3147159Y740072D01*
X3147190Y740037D01*
X3147215Y739996D01*
X3147266Y739955D01*
X3147310Y739906D01*
X3147352Y739884D01*
X3147389Y739855D01*
X3147451Y739834D01*
X3147510Y739803D01*
X3147564Y739795D01*
X3147601Y739783D01*
X3147641Y739784D01*
X3147695Y739776D01*
X3151505Y739776D01*
X3151570Y739787D01*
G37*
G36*
X2435290Y739787D02*
X2435290Y739787D01*
X2435356Y739789D01*
X2435399Y739807D01*
X2435446Y739815D01*
X2435503Y739849D01*
X2435563Y739874D01*
X2435598Y739905D01*
X2435639Y739930D01*
X2435681Y739981D01*
X2435729Y740025D01*
X2435751Y740067D01*
X2435780Y740104D01*
X2435801Y740166D01*
X2435832Y740225D01*
X2435840Y740279D01*
X2435852Y740316D01*
X2435851Y740356D01*
X2435859Y740410D01*
X2435859Y742950D01*
X2435848Y743015D01*
X2435846Y743081D01*
X2435828Y743124D01*
X2435820Y743171D01*
X2435786Y743228D01*
X2435761Y743288D01*
X2435730Y743323D01*
X2435705Y743364D01*
X2435654Y743406D01*
X2435610Y743454D01*
X2435568Y743476D01*
X2435531Y743505D01*
X2435469Y743526D01*
X2435410Y743557D01*
X2435356Y743565D01*
X2435319Y743577D01*
X2435279Y743576D01*
X2435225Y743584D01*
X2431415Y743584D01*
X2431350Y743573D01*
X2431284Y743571D01*
X2431241Y743553D01*
X2431194Y743545D01*
X2431137Y743511D01*
X2431077Y743486D01*
X2431042Y743455D01*
X2431001Y743430D01*
X2430960Y743379D01*
X2430911Y743335D01*
X2430889Y743293D01*
X2430860Y743256D01*
X2430839Y743194D01*
X2430808Y743135D01*
X2430800Y743081D01*
X2430788Y743044D01*
X2430788Y743041D01*
X2430789Y743004D01*
X2430781Y742950D01*
X2430781Y740410D01*
X2430792Y740345D01*
X2430794Y740279D01*
X2430812Y740236D01*
X2430820Y740189D01*
X2430854Y740132D01*
X2430879Y740072D01*
X2430910Y740037D01*
X2430935Y739996D01*
X2430986Y739955D01*
X2431030Y739906D01*
X2431072Y739884D01*
X2431109Y739855D01*
X2431171Y739834D01*
X2431230Y739803D01*
X2431284Y739795D01*
X2431321Y739783D01*
X2431361Y739784D01*
X2431415Y739776D01*
X2435225Y739776D01*
X2435290Y739787D01*
G37*
G36*
X286450Y1278267D02*
X286450Y1278267D01*
X286516Y1278269D01*
X286559Y1278287D01*
X286606Y1278295D01*
X286663Y1278329D01*
X286723Y1278354D01*
X286758Y1278385D01*
X286799Y1278410D01*
X286841Y1278461D01*
X286889Y1278505D01*
X286911Y1278547D01*
X286940Y1278584D01*
X286961Y1278646D01*
X286992Y1278705D01*
X287000Y1278759D01*
X287012Y1278796D01*
X287011Y1278836D01*
X287019Y1278890D01*
X287019Y1281430D01*
X287008Y1281495D01*
X287006Y1281561D01*
X286988Y1281604D01*
X286980Y1281651D01*
X286946Y1281708D01*
X286921Y1281768D01*
X286890Y1281803D01*
X286865Y1281844D01*
X286814Y1281886D01*
X286770Y1281934D01*
X286728Y1281956D01*
X286691Y1281985D01*
X286629Y1282006D01*
X286570Y1282037D01*
X286516Y1282045D01*
X286479Y1282057D01*
X286439Y1282056D01*
X286385Y1282064D01*
X282575Y1282064D01*
X282510Y1282053D01*
X282444Y1282051D01*
X282401Y1282033D01*
X282354Y1282025D01*
X282297Y1281991D01*
X282237Y1281966D01*
X282202Y1281935D01*
X282161Y1281910D01*
X282120Y1281859D01*
X282071Y1281815D01*
X282049Y1281773D01*
X282020Y1281736D01*
X281999Y1281674D01*
X281968Y1281615D01*
X281960Y1281561D01*
X281948Y1281524D01*
X281948Y1281521D01*
X281949Y1281484D01*
X281941Y1281430D01*
X281941Y1278890D01*
X281952Y1278825D01*
X281954Y1278759D01*
X281972Y1278716D01*
X281980Y1278669D01*
X282014Y1278612D01*
X282039Y1278552D01*
X282070Y1278517D01*
X282095Y1278476D01*
X282146Y1278435D01*
X282190Y1278386D01*
X282232Y1278364D01*
X282269Y1278335D01*
X282331Y1278314D01*
X282390Y1278283D01*
X282444Y1278275D01*
X282481Y1278263D01*
X282521Y1278264D01*
X282575Y1278256D01*
X286385Y1278256D01*
X286450Y1278267D01*
G37*
G36*
X1002730Y1278267D02*
X1002730Y1278267D01*
X1002796Y1278269D01*
X1002839Y1278287D01*
X1002886Y1278295D01*
X1002943Y1278329D01*
X1003003Y1278354D01*
X1003038Y1278385D01*
X1003079Y1278410D01*
X1003121Y1278461D01*
X1003169Y1278505D01*
X1003191Y1278547D01*
X1003220Y1278584D01*
X1003241Y1278646D01*
X1003272Y1278705D01*
X1003280Y1278759D01*
X1003292Y1278796D01*
X1003291Y1278836D01*
X1003299Y1278890D01*
X1003299Y1281430D01*
X1003288Y1281495D01*
X1003286Y1281561D01*
X1003268Y1281604D01*
X1003260Y1281651D01*
X1003226Y1281708D01*
X1003201Y1281768D01*
X1003170Y1281803D01*
X1003145Y1281844D01*
X1003094Y1281886D01*
X1003050Y1281934D01*
X1003008Y1281956D01*
X1002971Y1281985D01*
X1002909Y1282006D01*
X1002850Y1282037D01*
X1002796Y1282045D01*
X1002759Y1282057D01*
X1002719Y1282056D01*
X1002665Y1282064D01*
X998855Y1282064D01*
X998790Y1282053D01*
X998724Y1282051D01*
X998681Y1282033D01*
X998634Y1282025D01*
X998577Y1281991D01*
X998517Y1281966D01*
X998482Y1281935D01*
X998441Y1281910D01*
X998400Y1281859D01*
X998351Y1281815D01*
X998329Y1281773D01*
X998300Y1281736D01*
X998279Y1281674D01*
X998248Y1281615D01*
X998240Y1281561D01*
X998228Y1281524D01*
X998228Y1281521D01*
X998229Y1281484D01*
X998221Y1281430D01*
X998221Y1278890D01*
X998232Y1278825D01*
X998234Y1278759D01*
X998252Y1278716D01*
X998260Y1278669D01*
X998294Y1278612D01*
X998319Y1278552D01*
X998350Y1278517D01*
X998375Y1278476D01*
X998426Y1278435D01*
X998470Y1278386D01*
X998512Y1278364D01*
X998549Y1278335D01*
X998611Y1278314D01*
X998670Y1278283D01*
X998724Y1278275D01*
X998761Y1278263D01*
X998801Y1278264D01*
X998855Y1278256D01*
X1002665Y1278256D01*
X1002730Y1278267D01*
G37*
G36*
X1719010Y1278267D02*
X1719010Y1278267D01*
X1719076Y1278269D01*
X1719119Y1278287D01*
X1719166Y1278295D01*
X1719223Y1278329D01*
X1719283Y1278354D01*
X1719318Y1278385D01*
X1719359Y1278410D01*
X1719401Y1278461D01*
X1719449Y1278505D01*
X1719471Y1278547D01*
X1719500Y1278584D01*
X1719521Y1278646D01*
X1719552Y1278705D01*
X1719560Y1278759D01*
X1719572Y1278796D01*
X1719571Y1278836D01*
X1719579Y1278890D01*
X1719579Y1281430D01*
X1719568Y1281495D01*
X1719566Y1281561D01*
X1719548Y1281604D01*
X1719540Y1281651D01*
X1719506Y1281708D01*
X1719481Y1281768D01*
X1719450Y1281803D01*
X1719425Y1281844D01*
X1719374Y1281886D01*
X1719330Y1281934D01*
X1719288Y1281956D01*
X1719251Y1281985D01*
X1719189Y1282006D01*
X1719130Y1282037D01*
X1719076Y1282045D01*
X1719039Y1282057D01*
X1718999Y1282056D01*
X1718945Y1282064D01*
X1715135Y1282064D01*
X1715070Y1282053D01*
X1715004Y1282051D01*
X1714961Y1282033D01*
X1714914Y1282025D01*
X1714857Y1281991D01*
X1714797Y1281966D01*
X1714762Y1281935D01*
X1714721Y1281910D01*
X1714680Y1281859D01*
X1714631Y1281815D01*
X1714609Y1281773D01*
X1714580Y1281736D01*
X1714559Y1281674D01*
X1714528Y1281615D01*
X1714520Y1281561D01*
X1714508Y1281524D01*
X1714508Y1281521D01*
X1714509Y1281484D01*
X1714501Y1281430D01*
X1714501Y1278890D01*
X1714512Y1278825D01*
X1714514Y1278759D01*
X1714532Y1278716D01*
X1714540Y1278669D01*
X1714574Y1278612D01*
X1714599Y1278552D01*
X1714630Y1278517D01*
X1714655Y1278476D01*
X1714706Y1278435D01*
X1714750Y1278386D01*
X1714792Y1278364D01*
X1714829Y1278335D01*
X1714891Y1278314D01*
X1714950Y1278283D01*
X1715004Y1278275D01*
X1715041Y1278263D01*
X1715081Y1278264D01*
X1715135Y1278256D01*
X1718945Y1278256D01*
X1719010Y1278267D01*
G37*
G36*
X1719010Y739787D02*
X1719010Y739787D01*
X1719076Y739789D01*
X1719119Y739807D01*
X1719166Y739815D01*
X1719223Y739849D01*
X1719283Y739874D01*
X1719318Y739905D01*
X1719359Y739930D01*
X1719401Y739981D01*
X1719449Y740025D01*
X1719471Y740067D01*
X1719500Y740104D01*
X1719521Y740166D01*
X1719552Y740225D01*
X1719560Y740279D01*
X1719572Y740316D01*
X1719571Y740356D01*
X1719579Y740410D01*
X1719579Y742950D01*
X1719568Y743015D01*
X1719566Y743081D01*
X1719548Y743124D01*
X1719540Y743171D01*
X1719506Y743228D01*
X1719481Y743288D01*
X1719450Y743323D01*
X1719425Y743364D01*
X1719374Y743406D01*
X1719330Y743454D01*
X1719288Y743476D01*
X1719251Y743505D01*
X1719189Y743526D01*
X1719130Y743557D01*
X1719076Y743565D01*
X1719039Y743577D01*
X1718999Y743576D01*
X1718945Y743584D01*
X1715135Y743584D01*
X1715070Y743573D01*
X1715004Y743571D01*
X1714961Y743553D01*
X1714914Y743545D01*
X1714857Y743511D01*
X1714797Y743486D01*
X1714762Y743455D01*
X1714721Y743430D01*
X1714680Y743379D01*
X1714631Y743335D01*
X1714609Y743293D01*
X1714580Y743256D01*
X1714559Y743194D01*
X1714528Y743135D01*
X1714520Y743081D01*
X1714508Y743044D01*
X1714508Y743041D01*
X1714509Y743004D01*
X1714501Y742950D01*
X1714501Y740410D01*
X1714512Y740345D01*
X1714514Y740279D01*
X1714532Y740236D01*
X1714540Y740189D01*
X1714574Y740132D01*
X1714599Y740072D01*
X1714630Y740037D01*
X1714655Y739996D01*
X1714706Y739955D01*
X1714750Y739906D01*
X1714792Y739884D01*
X1714829Y739855D01*
X1714891Y739834D01*
X1714950Y739803D01*
X1715004Y739795D01*
X1715041Y739783D01*
X1715081Y739784D01*
X1715135Y739776D01*
X1718945Y739776D01*
X1719010Y739787D01*
G37*
G36*
X286450Y739787D02*
X286450Y739787D01*
X286516Y739789D01*
X286559Y739807D01*
X286606Y739815D01*
X286663Y739849D01*
X286723Y739874D01*
X286758Y739905D01*
X286799Y739930D01*
X286841Y739981D01*
X286889Y740025D01*
X286911Y740067D01*
X286940Y740104D01*
X286961Y740166D01*
X286992Y740225D01*
X287000Y740279D01*
X287012Y740316D01*
X287011Y740356D01*
X287019Y740410D01*
X287019Y742950D01*
X287008Y743015D01*
X287006Y743081D01*
X286988Y743124D01*
X286980Y743171D01*
X286946Y743228D01*
X286921Y743288D01*
X286890Y743323D01*
X286865Y743364D01*
X286814Y743406D01*
X286770Y743454D01*
X286728Y743476D01*
X286691Y743505D01*
X286629Y743526D01*
X286570Y743557D01*
X286516Y743565D01*
X286479Y743577D01*
X286439Y743576D01*
X286385Y743584D01*
X282575Y743584D01*
X282510Y743573D01*
X282444Y743571D01*
X282401Y743553D01*
X282354Y743545D01*
X282297Y743511D01*
X282237Y743486D01*
X282202Y743455D01*
X282161Y743430D01*
X282120Y743379D01*
X282071Y743335D01*
X282049Y743293D01*
X282020Y743256D01*
X281999Y743194D01*
X281968Y743135D01*
X281960Y743081D01*
X281948Y743044D01*
X281948Y743041D01*
X281949Y743004D01*
X281941Y742950D01*
X281941Y740410D01*
X281952Y740345D01*
X281954Y740279D01*
X281972Y740236D01*
X281980Y740189D01*
X282014Y740132D01*
X282039Y740072D01*
X282070Y740037D01*
X282095Y739996D01*
X282146Y739955D01*
X282190Y739906D01*
X282232Y739884D01*
X282269Y739855D01*
X282331Y739834D01*
X282390Y739803D01*
X282444Y739795D01*
X282481Y739783D01*
X282521Y739784D01*
X282575Y739776D01*
X286385Y739776D01*
X286450Y739787D01*
G37*
G36*
X1002730Y739787D02*
X1002730Y739787D01*
X1002796Y739789D01*
X1002839Y739807D01*
X1002886Y739815D01*
X1002943Y739849D01*
X1003003Y739874D01*
X1003038Y739905D01*
X1003079Y739930D01*
X1003121Y739981D01*
X1003169Y740025D01*
X1003191Y740067D01*
X1003220Y740104D01*
X1003241Y740166D01*
X1003272Y740225D01*
X1003280Y740279D01*
X1003292Y740316D01*
X1003291Y740356D01*
X1003299Y740410D01*
X1003299Y742950D01*
X1003288Y743015D01*
X1003286Y743081D01*
X1003268Y743124D01*
X1003260Y743171D01*
X1003226Y743228D01*
X1003201Y743288D01*
X1003170Y743323D01*
X1003145Y743364D01*
X1003094Y743406D01*
X1003050Y743454D01*
X1003008Y743476D01*
X1002971Y743505D01*
X1002909Y743526D01*
X1002850Y743557D01*
X1002796Y743565D01*
X1002759Y743577D01*
X1002719Y743576D01*
X1002665Y743584D01*
X998855Y743584D01*
X998790Y743573D01*
X998724Y743571D01*
X998681Y743553D01*
X998634Y743545D01*
X998577Y743511D01*
X998517Y743486D01*
X998482Y743455D01*
X998441Y743430D01*
X998400Y743379D01*
X998351Y743335D01*
X998329Y743293D01*
X998300Y743256D01*
X998279Y743194D01*
X998248Y743135D01*
X998240Y743081D01*
X998228Y743044D01*
X998228Y743041D01*
X998229Y743004D01*
X998221Y742950D01*
X998221Y740410D01*
X998232Y740345D01*
X998234Y740279D01*
X998252Y740236D01*
X998260Y740189D01*
X998294Y740132D01*
X998319Y740072D01*
X998350Y740037D01*
X998375Y739996D01*
X998426Y739955D01*
X998470Y739906D01*
X998512Y739884D01*
X998549Y739855D01*
X998611Y739834D01*
X998670Y739803D01*
X998724Y739795D01*
X998761Y739783D01*
X998801Y739784D01*
X998855Y739776D01*
X1002665Y739776D01*
X1002730Y739787D01*
G37*
G36*
X1002730Y201307D02*
X1002730Y201307D01*
X1002796Y201309D01*
X1002839Y201327D01*
X1002886Y201335D01*
X1002943Y201369D01*
X1003003Y201394D01*
X1003038Y201425D01*
X1003079Y201450D01*
X1003121Y201501D01*
X1003169Y201545D01*
X1003191Y201587D01*
X1003220Y201624D01*
X1003241Y201686D01*
X1003272Y201745D01*
X1003280Y201799D01*
X1003292Y201836D01*
X1003291Y201876D01*
X1003299Y201930D01*
X1003299Y204470D01*
X1003288Y204535D01*
X1003286Y204601D01*
X1003268Y204644D01*
X1003260Y204691D01*
X1003226Y204748D01*
X1003201Y204808D01*
X1003170Y204843D01*
X1003145Y204884D01*
X1003094Y204926D01*
X1003050Y204974D01*
X1003008Y204996D01*
X1002971Y205025D01*
X1002909Y205046D01*
X1002850Y205077D01*
X1002796Y205085D01*
X1002759Y205097D01*
X1002719Y205096D01*
X1002665Y205104D01*
X998855Y205104D01*
X998790Y205093D01*
X998724Y205091D01*
X998681Y205073D01*
X998634Y205065D01*
X998577Y205031D01*
X998517Y205006D01*
X998482Y204975D01*
X998441Y204950D01*
X998400Y204899D01*
X998351Y204855D01*
X998329Y204813D01*
X998300Y204776D01*
X998279Y204714D01*
X998248Y204655D01*
X998240Y204601D01*
X998228Y204564D01*
X998228Y204561D01*
X998229Y204524D01*
X998221Y204470D01*
X998221Y201930D01*
X998232Y201865D01*
X998234Y201799D01*
X998252Y201756D01*
X998260Y201709D01*
X998294Y201652D01*
X998319Y201592D01*
X998350Y201557D01*
X998375Y201516D01*
X998426Y201475D01*
X998470Y201426D01*
X998512Y201404D01*
X998549Y201375D01*
X998611Y201354D01*
X998670Y201323D01*
X998724Y201315D01*
X998761Y201303D01*
X998801Y201304D01*
X998855Y201296D01*
X1002665Y201296D01*
X1002730Y201307D01*
G37*
G36*
X2435290Y201307D02*
X2435290Y201307D01*
X2435356Y201309D01*
X2435399Y201327D01*
X2435446Y201335D01*
X2435503Y201369D01*
X2435563Y201394D01*
X2435598Y201425D01*
X2435639Y201450D01*
X2435681Y201501D01*
X2435729Y201545D01*
X2435751Y201587D01*
X2435780Y201624D01*
X2435801Y201686D01*
X2435832Y201745D01*
X2435840Y201799D01*
X2435852Y201836D01*
X2435851Y201876D01*
X2435859Y201930D01*
X2435859Y204470D01*
X2435848Y204535D01*
X2435846Y204601D01*
X2435828Y204644D01*
X2435820Y204691D01*
X2435786Y204748D01*
X2435761Y204808D01*
X2435730Y204843D01*
X2435705Y204884D01*
X2435654Y204926D01*
X2435610Y204974D01*
X2435568Y204996D01*
X2435531Y205025D01*
X2435469Y205046D01*
X2435410Y205077D01*
X2435356Y205085D01*
X2435319Y205097D01*
X2435279Y205096D01*
X2435225Y205104D01*
X2431415Y205104D01*
X2431350Y205093D01*
X2431284Y205091D01*
X2431241Y205073D01*
X2431194Y205065D01*
X2431137Y205031D01*
X2431077Y205006D01*
X2431042Y204975D01*
X2431001Y204950D01*
X2430960Y204899D01*
X2430911Y204855D01*
X2430889Y204813D01*
X2430860Y204776D01*
X2430839Y204714D01*
X2430808Y204655D01*
X2430800Y204601D01*
X2430788Y204564D01*
X2430788Y204561D01*
X2430789Y204524D01*
X2430781Y204470D01*
X2430781Y201930D01*
X2430792Y201865D01*
X2430794Y201799D01*
X2430812Y201756D01*
X2430820Y201709D01*
X2430854Y201652D01*
X2430879Y201592D01*
X2430910Y201557D01*
X2430935Y201516D01*
X2430986Y201475D01*
X2431030Y201426D01*
X2431072Y201404D01*
X2431109Y201375D01*
X2431171Y201354D01*
X2431230Y201323D01*
X2431284Y201315D01*
X2431321Y201303D01*
X2431361Y201304D01*
X2431415Y201296D01*
X2435225Y201296D01*
X2435290Y201307D01*
G37*
G36*
X1719010Y201307D02*
X1719010Y201307D01*
X1719076Y201309D01*
X1719119Y201327D01*
X1719166Y201335D01*
X1719223Y201369D01*
X1719283Y201394D01*
X1719318Y201425D01*
X1719359Y201450D01*
X1719401Y201501D01*
X1719449Y201545D01*
X1719471Y201587D01*
X1719500Y201624D01*
X1719521Y201686D01*
X1719552Y201745D01*
X1719560Y201799D01*
X1719572Y201836D01*
X1719571Y201876D01*
X1719579Y201930D01*
X1719579Y204470D01*
X1719568Y204535D01*
X1719566Y204601D01*
X1719548Y204644D01*
X1719540Y204691D01*
X1719506Y204748D01*
X1719481Y204808D01*
X1719450Y204843D01*
X1719425Y204884D01*
X1719374Y204926D01*
X1719330Y204974D01*
X1719288Y204996D01*
X1719251Y205025D01*
X1719189Y205046D01*
X1719130Y205077D01*
X1719076Y205085D01*
X1719039Y205097D01*
X1718999Y205096D01*
X1718945Y205104D01*
X1715135Y205104D01*
X1715070Y205093D01*
X1715004Y205091D01*
X1714961Y205073D01*
X1714914Y205065D01*
X1714857Y205031D01*
X1714797Y205006D01*
X1714762Y204975D01*
X1714721Y204950D01*
X1714680Y204899D01*
X1714631Y204855D01*
X1714609Y204813D01*
X1714580Y204776D01*
X1714559Y204714D01*
X1714528Y204655D01*
X1714520Y204601D01*
X1714508Y204564D01*
X1714508Y204561D01*
X1714509Y204524D01*
X1714501Y204470D01*
X1714501Y201930D01*
X1714512Y201865D01*
X1714514Y201799D01*
X1714532Y201756D01*
X1714540Y201709D01*
X1714574Y201652D01*
X1714599Y201592D01*
X1714630Y201557D01*
X1714655Y201516D01*
X1714706Y201475D01*
X1714750Y201426D01*
X1714792Y201404D01*
X1714829Y201375D01*
X1714891Y201354D01*
X1714950Y201323D01*
X1715004Y201315D01*
X1715041Y201303D01*
X1715081Y201304D01*
X1715135Y201296D01*
X1718945Y201296D01*
X1719010Y201307D01*
G37*
G36*
X286450Y201307D02*
X286450Y201307D01*
X286516Y201309D01*
X286559Y201327D01*
X286606Y201335D01*
X286663Y201369D01*
X286723Y201394D01*
X286758Y201425D01*
X286799Y201450D01*
X286841Y201501D01*
X286889Y201545D01*
X286911Y201587D01*
X286940Y201624D01*
X286961Y201686D01*
X286992Y201745D01*
X287000Y201799D01*
X287012Y201836D01*
X287011Y201876D01*
X287019Y201930D01*
X287019Y204470D01*
X287008Y204535D01*
X287006Y204601D01*
X286988Y204644D01*
X286980Y204691D01*
X286946Y204748D01*
X286921Y204808D01*
X286890Y204843D01*
X286865Y204884D01*
X286814Y204926D01*
X286770Y204974D01*
X286728Y204996D01*
X286691Y205025D01*
X286629Y205046D01*
X286570Y205077D01*
X286516Y205085D01*
X286479Y205097D01*
X286439Y205096D01*
X286385Y205104D01*
X282575Y205104D01*
X282510Y205093D01*
X282444Y205091D01*
X282401Y205073D01*
X282354Y205065D01*
X282297Y205031D01*
X282237Y205006D01*
X282202Y204975D01*
X282161Y204950D01*
X282120Y204899D01*
X282071Y204855D01*
X282049Y204813D01*
X282020Y204776D01*
X281999Y204714D01*
X281968Y204655D01*
X281960Y204601D01*
X281948Y204564D01*
X281948Y204561D01*
X281949Y204524D01*
X281941Y204470D01*
X281941Y201930D01*
X281952Y201865D01*
X281954Y201799D01*
X281972Y201756D01*
X281980Y201709D01*
X282014Y201652D01*
X282039Y201592D01*
X282070Y201557D01*
X282095Y201516D01*
X282146Y201475D01*
X282190Y201426D01*
X282232Y201404D01*
X282269Y201375D01*
X282331Y201354D01*
X282390Y201323D01*
X282444Y201315D01*
X282481Y201303D01*
X282521Y201304D01*
X282575Y201296D01*
X286385Y201296D01*
X286450Y201307D01*
G37*
G36*
X3151570Y201307D02*
X3151570Y201307D01*
X3151636Y201309D01*
X3151679Y201327D01*
X3151726Y201335D01*
X3151783Y201369D01*
X3151843Y201394D01*
X3151878Y201425D01*
X3151919Y201450D01*
X3151961Y201501D01*
X3152009Y201545D01*
X3152031Y201587D01*
X3152060Y201624D01*
X3152081Y201686D01*
X3152112Y201745D01*
X3152120Y201799D01*
X3152132Y201836D01*
X3152131Y201876D01*
X3152139Y201930D01*
X3152139Y204470D01*
X3152128Y204535D01*
X3152126Y204601D01*
X3152108Y204644D01*
X3152100Y204691D01*
X3152066Y204748D01*
X3152041Y204808D01*
X3152010Y204843D01*
X3151985Y204884D01*
X3151934Y204926D01*
X3151890Y204974D01*
X3151848Y204996D01*
X3151811Y205025D01*
X3151749Y205046D01*
X3151690Y205077D01*
X3151636Y205085D01*
X3151599Y205097D01*
X3151559Y205096D01*
X3151505Y205104D01*
X3147695Y205104D01*
X3147630Y205093D01*
X3147564Y205091D01*
X3147521Y205073D01*
X3147474Y205065D01*
X3147417Y205031D01*
X3147357Y205006D01*
X3147322Y204975D01*
X3147281Y204950D01*
X3147240Y204899D01*
X3147191Y204855D01*
X3147169Y204813D01*
X3147140Y204776D01*
X3147119Y204714D01*
X3147088Y204655D01*
X3147080Y204601D01*
X3147068Y204564D01*
X3147068Y204561D01*
X3147069Y204524D01*
X3147061Y204470D01*
X3147061Y201930D01*
X3147072Y201865D01*
X3147074Y201799D01*
X3147092Y201756D01*
X3147100Y201709D01*
X3147134Y201652D01*
X3147159Y201592D01*
X3147190Y201557D01*
X3147215Y201516D01*
X3147266Y201475D01*
X3147310Y201426D01*
X3147352Y201404D01*
X3147389Y201375D01*
X3147451Y201354D01*
X3147510Y201323D01*
X3147564Y201315D01*
X3147601Y201303D01*
X3147641Y201304D01*
X3147695Y201296D01*
X3151505Y201296D01*
X3151570Y201307D01*
G37*
D10*
X355600Y186300D03*
X355600Y169300D03*
D11*
X287900Y388620D03*
X270900Y388620D03*
X575700Y337820D03*
X592700Y337820D03*
X287900Y273050D03*
X270900Y273050D03*
D10*
X355600Y240200D03*
X355600Y223200D03*
D12*
X217200Y134620D03*
X189200Y134620D03*
D11*
X93100Y261620D03*
X110100Y261620D03*
D13*
X215900Y82420D03*
X215900Y34420D03*
D10*
X38100Y276470D03*
X38100Y259470D03*
D14*
X53500Y278740D03*
X53500Y259740D03*
X74500Y269240D03*
D11*
X270900Y293370D03*
X287900Y293370D03*
X33900Y298450D03*
X16900Y298450D03*
D15*
X106400Y193193D03*
X106400Y215900D03*
X106400Y238785D03*
D16*
X46990Y215900D03*
D11*
X141850Y172720D03*
X124850Y172720D03*
X124850Y198120D03*
X141850Y198120D03*
D17*
X139700Y25400D03*
X660400Y76200D03*
X660400Y355600D03*
X152400Y508000D03*
D18*
X660400Y114300D03*
X114300Y520700D03*
D11*
X93100Y276860D03*
X110100Y276860D03*
D12*
X120680Y298450D03*
X92680Y298450D03*
D19*
X340360Y491500D03*
X289560Y491500D03*
X238760Y491500D03*
X365760Y524500D03*
X314960Y524500D03*
X264160Y524500D03*
X213360Y524500D03*
X187960Y524500D03*
X213360Y491500D03*
X238760Y524500D03*
X264160Y491500D03*
X289560Y524500D03*
X314960Y491500D03*
X340360Y524500D03*
X365760Y491500D03*
X187960Y491500D03*
X391160Y524500D03*
X416560Y524500D03*
X391160Y491500D03*
X416560Y491500D03*
X304800Y41900D03*
X355600Y41900D03*
X406400Y41900D03*
X279400Y8900D03*
X330200Y8900D03*
X381000Y8900D03*
X431800Y8900D03*
X457200Y8900D03*
X431800Y41900D03*
X406400Y8900D03*
X381000Y41900D03*
X355600Y8900D03*
X330200Y41900D03*
X304800Y8900D03*
X279400Y41900D03*
X457200Y41900D03*
D20*
X488025Y211520D02*
X502575Y211520D01*
X502575Y223520D02*
X488025Y223520D01*
X488025Y235520D02*
X502575Y235520D01*
D21*
X495325Y223495D03*
D22*
X647700Y292100D03*
X647700Y266700D03*
D23*
X673100Y279400D03*
X622300Y279400D03*
X622300Y254000D03*
X673100Y254000D03*
X673100Y304800D03*
X622300Y304800D03*
D12*
X189200Y223520D03*
X217200Y223520D03*
D24*
X569200Y356870D03*
X599200Y356870D03*
X264400Y407670D03*
X294400Y407670D03*
D25*
X78740Y476250D03*
X22860Y476250D03*
X78740Y514350D03*
X22860Y514350D03*
D26*
X160020Y62320D03*
X160020Y105320D03*
D27*
X54500Y298450D03*
X72500Y298450D03*
D19*
X482600Y524500D03*
X533400Y524500D03*
X584200Y524500D03*
X457200Y491500D03*
X508000Y491500D03*
X558800Y491500D03*
X609600Y491500D03*
X635000Y491500D03*
X609600Y524500D03*
X584200Y491500D03*
X558800Y524500D03*
X533400Y491500D03*
X508000Y524500D03*
X482600Y491500D03*
X457200Y524500D03*
X635000Y524500D03*
X609600Y8900D03*
X558800Y8900D03*
X508000Y8900D03*
X635000Y41900D03*
X584200Y41900D03*
X533400Y41900D03*
X508000Y41900D03*
X533400Y8900D03*
X558800Y41900D03*
X584200Y8900D03*
X609600Y41900D03*
X635000Y8900D03*
D28*
X27370Y134310D02*
X13270Y134310D01*
X13270Y152410D01*
X27370Y152410D01*
X27370Y134310D01*
X27370Y141845D02*
X13270Y141845D01*
X13270Y149380D02*
X27370Y149380D01*
X27370Y20310D02*
X13270Y20310D01*
X13270Y38410D01*
X27370Y38410D01*
X27370Y20310D01*
X27370Y27845D02*
X13270Y27845D01*
X13270Y35380D02*
X27370Y35380D01*
X74270Y134310D02*
X88370Y134310D01*
X74270Y134310D02*
X74270Y152410D01*
X88370Y152410D01*
X88370Y134310D01*
X88370Y141845D02*
X74270Y141845D01*
X74270Y149380D02*
X88370Y149380D01*
X88370Y20310D02*
X74270Y20310D01*
X74270Y38410D01*
X88370Y38410D01*
X88370Y20310D01*
X88370Y27845D02*
X74270Y27845D01*
X74270Y35380D02*
X88370Y35380D01*
D29*
X20320Y86360D03*
X66040Y86360D03*
D30*
X603610Y158600D03*
X603610Y171600D03*
X585110Y165100D03*
D11*
X602860Y190500D03*
X585860Y190500D03*
X602860Y139700D03*
X585860Y139700D03*
D31*
X462026Y175200D03*
X462026Y183200D03*
X462026Y191200D03*
X462026Y199200D03*
X462026Y207200D03*
X462026Y215200D03*
X462026Y223200D03*
X462026Y231200D03*
D32*
X447100Y246126D03*
X439100Y246126D03*
X431100Y246126D03*
X423100Y246126D03*
X415100Y246126D03*
X407100Y246126D03*
X399100Y246126D03*
X391100Y246126D03*
D31*
X376174Y231200D03*
X376174Y223200D03*
X376174Y215200D03*
X376174Y207200D03*
X376174Y199200D03*
X376174Y191200D03*
X376174Y183200D03*
X376174Y175200D03*
D32*
X391100Y160274D03*
X399100Y160274D03*
X407100Y160274D03*
X415100Y160274D03*
X423100Y160274D03*
X431100Y160274D03*
X439100Y160274D03*
X447100Y160274D03*
D33*
X190199Y187300D03*
X190199Y177800D03*
X190199Y168300D03*
X216201Y168300D03*
X216201Y187300D03*
D11*
X211700Y203200D03*
X194700Y203200D03*
X154314Y377952D03*
X171314Y377952D03*
D24*
X294400Y330200D03*
X264400Y330200D03*
D11*
X287900Y311150D03*
X270900Y311150D03*
X100720Y330200D03*
X117720Y330200D03*
X287900Y349250D03*
X270900Y349250D03*
D34*
X38709Y393386D03*
X38709Y399886D03*
X38709Y380386D03*
X38709Y386886D03*
D35*
X41459Y365390D03*
X41459Y421636D03*
D36*
X11909Y403486D03*
X11882Y383738D03*
D34*
X38709Y406386D03*
D24*
X294400Y368300D03*
X264400Y368300D03*
D37*
X269240Y203200D03*
X279400Y203200D03*
X289560Y203200D03*
D38*
X671750Y137100D03*
X671750Y193100D03*
D39*
X635000Y150100D03*
X635000Y160100D03*
X635000Y170100D03*
X635000Y180100D03*
D30*
X549550Y171600D03*
X549550Y158600D03*
X568050Y165100D03*
D11*
X550300Y190500D03*
X567300Y190500D03*
X550300Y139700D03*
X567300Y139700D03*
D40*
X134680Y349250D03*
X134680Y361950D03*
X134680Y374650D03*
X134680Y387350D03*
X134680Y400050D03*
X134680Y412750D03*
X134680Y425450D03*
X134680Y438150D03*
X78680Y438150D03*
X78680Y425450D03*
X78680Y412750D03*
X78680Y400050D03*
X78680Y387350D03*
X78680Y374650D03*
X78680Y361950D03*
X78680Y349250D03*
D11*
X155076Y397002D03*
X172076Y397002D03*
X172584Y455930D03*
X155584Y455930D03*
D41*
X172580Y415732D03*
X172580Y439232D03*
X155080Y439232D03*
X155080Y415732D03*
D10*
X1071880Y186300D03*
X1071880Y169300D03*
D11*
X1004180Y388620D03*
X987180Y388620D03*
X1291980Y337820D03*
X1308980Y337820D03*
X1004180Y273050D03*
X987180Y273050D03*
D10*
X1071880Y240200D03*
X1071880Y223200D03*
D12*
X933480Y134620D03*
X905480Y134620D03*
D11*
X809380Y261620D03*
X826380Y261620D03*
D13*
X932180Y82420D03*
X932180Y34420D03*
D10*
X754380Y276470D03*
X754380Y259470D03*
D14*
X769780Y278740D03*
X769780Y259740D03*
X790780Y269240D03*
D11*
X987180Y293370D03*
X1004180Y293370D03*
X750180Y298450D03*
X733180Y298450D03*
D15*
X822680Y193193D03*
X822680Y215900D03*
X822680Y238785D03*
D16*
X763270Y215900D03*
D11*
X858130Y172720D03*
X841130Y172720D03*
X841130Y198120D03*
X858130Y198120D03*
D17*
X855980Y25400D03*
X1376680Y76200D03*
X1376680Y355600D03*
X868680Y508000D03*
D18*
X1376680Y114300D03*
X830580Y520700D03*
D11*
X809380Y276860D03*
X826380Y276860D03*
D12*
X836960Y298450D03*
X808960Y298450D03*
D19*
X1056640Y491500D03*
X1005840Y491500D03*
X955040Y491500D03*
X1082040Y524500D03*
X1031240Y524500D03*
X980440Y524500D03*
X929640Y524500D03*
X904240Y524500D03*
X929640Y491500D03*
X955040Y524500D03*
X980440Y491500D03*
X1005840Y524500D03*
X1031240Y491500D03*
X1056640Y524500D03*
X1082040Y491500D03*
X904240Y491500D03*
X1107440Y524500D03*
X1132840Y524500D03*
X1107440Y491500D03*
X1132840Y491500D03*
X1021080Y41900D03*
X1071880Y41900D03*
X1122680Y41900D03*
X995680Y8900D03*
X1046480Y8900D03*
X1097280Y8900D03*
X1148080Y8900D03*
X1173480Y8900D03*
X1148080Y41900D03*
X1122680Y8900D03*
X1097280Y41900D03*
X1071880Y8900D03*
X1046480Y41900D03*
X1021080Y8900D03*
X995680Y41900D03*
X1173480Y41900D03*
D20*
X1204305Y211520D02*
X1218855Y211520D01*
X1218855Y223520D02*
X1204305Y223520D01*
X1204305Y235520D02*
X1218855Y235520D01*
D21*
X1211605Y223495D03*
D22*
X1363980Y292100D03*
X1363980Y266700D03*
D23*
X1389380Y279400D03*
X1338580Y279400D03*
X1338580Y254000D03*
X1389380Y254000D03*
X1389380Y304800D03*
X1338580Y304800D03*
D12*
X905480Y223520D03*
X933480Y223520D03*
D24*
X1285480Y356870D03*
X1315480Y356870D03*
X980680Y407670D03*
X1010680Y407670D03*
D25*
X795020Y476250D03*
X739140Y476250D03*
X795020Y514350D03*
X739140Y514350D03*
D26*
X876300Y62320D03*
X876300Y105320D03*
D27*
X770780Y298450D03*
X788780Y298450D03*
D19*
X1198880Y524500D03*
X1249680Y524500D03*
X1300480Y524500D03*
X1173480Y491500D03*
X1224280Y491500D03*
X1275080Y491500D03*
X1325880Y491500D03*
X1351280Y491500D03*
X1325880Y524500D03*
X1300480Y491500D03*
X1275080Y524500D03*
X1249680Y491500D03*
X1224280Y524500D03*
X1198880Y491500D03*
X1173480Y524500D03*
X1351280Y524500D03*
X1325880Y8900D03*
X1275080Y8900D03*
X1224280Y8900D03*
X1351280Y41900D03*
X1300480Y41900D03*
X1249680Y41900D03*
X1224280Y41900D03*
X1249680Y8900D03*
X1275080Y41900D03*
X1300480Y8900D03*
X1325880Y41900D03*
X1351280Y8900D03*
D28*
X743650Y134310D02*
X729550Y134310D01*
X729550Y152410D01*
X743650Y152410D01*
X743650Y134310D01*
X743650Y141845D02*
X729550Y141845D01*
X729550Y149380D02*
X743650Y149380D01*
X743650Y20310D02*
X729550Y20310D01*
X729550Y38410D01*
X743650Y38410D01*
X743650Y20310D01*
X743650Y27845D02*
X729550Y27845D01*
X729550Y35380D02*
X743650Y35380D01*
X790550Y134310D02*
X804650Y134310D01*
X790550Y134310D02*
X790550Y152410D01*
X804650Y152410D01*
X804650Y134310D01*
X804650Y141845D02*
X790550Y141845D01*
X790550Y149380D02*
X804650Y149380D01*
X804650Y20310D02*
X790550Y20310D01*
X790550Y38410D01*
X804650Y38410D01*
X804650Y20310D01*
X804650Y27845D02*
X790550Y27845D01*
X790550Y35380D02*
X804650Y35380D01*
D29*
X736600Y86360D03*
X782320Y86360D03*
D30*
X1319890Y158600D03*
X1319890Y171600D03*
X1301390Y165100D03*
D11*
X1319140Y190500D03*
X1302140Y190500D03*
X1319140Y139700D03*
X1302140Y139700D03*
D31*
X1178306Y175200D03*
X1178306Y183200D03*
X1178306Y191200D03*
X1178306Y199200D03*
X1178306Y207200D03*
X1178306Y215200D03*
X1178306Y223200D03*
X1178306Y231200D03*
D32*
X1163380Y246126D03*
X1155380Y246126D03*
X1147380Y246126D03*
X1139380Y246126D03*
X1131380Y246126D03*
X1123380Y246126D03*
X1115380Y246126D03*
X1107380Y246126D03*
D31*
X1092454Y231200D03*
X1092454Y223200D03*
X1092454Y215200D03*
X1092454Y207200D03*
X1092454Y199200D03*
X1092454Y191200D03*
X1092454Y183200D03*
X1092454Y175200D03*
D32*
X1107380Y160274D03*
X1115380Y160274D03*
X1123380Y160274D03*
X1131380Y160274D03*
X1139380Y160274D03*
X1147380Y160274D03*
X1155380Y160274D03*
X1163380Y160274D03*
D33*
X906479Y187300D03*
X906479Y177800D03*
X906479Y168300D03*
X932481Y168300D03*
X932481Y187300D03*
D11*
X927980Y203200D03*
X910980Y203200D03*
X870594Y377952D03*
X887594Y377952D03*
D24*
X1010680Y330200D03*
X980680Y330200D03*
D11*
X1004180Y311150D03*
X987180Y311150D03*
X817000Y330200D03*
X834000Y330200D03*
X1004180Y349250D03*
X987180Y349250D03*
D34*
X754989Y393386D03*
X754989Y399886D03*
X754989Y380386D03*
X754989Y386886D03*
D35*
X757739Y365390D03*
X757739Y421636D03*
D36*
X728189Y403486D03*
X728162Y383738D03*
D34*
X754989Y406386D03*
D24*
X1010680Y368300D03*
X980680Y368300D03*
D37*
X985520Y203200D03*
X995680Y203200D03*
X1005840Y203200D03*
D38*
X1388030Y137100D03*
X1388030Y193100D03*
D39*
X1351280Y150100D03*
X1351280Y160100D03*
X1351280Y170100D03*
X1351280Y180100D03*
D30*
X1265830Y171600D03*
X1265830Y158600D03*
X1284330Y165100D03*
D11*
X1266580Y190500D03*
X1283580Y190500D03*
X1266580Y139700D03*
X1283580Y139700D03*
D40*
X850960Y349250D03*
X850960Y361950D03*
X850960Y374650D03*
X850960Y387350D03*
X850960Y400050D03*
X850960Y412750D03*
X850960Y425450D03*
X850960Y438150D03*
X794960Y438150D03*
X794960Y425450D03*
X794960Y412750D03*
X794960Y400050D03*
X794960Y387350D03*
X794960Y374650D03*
X794960Y361950D03*
X794960Y349250D03*
D11*
X871356Y397002D03*
X888356Y397002D03*
X888864Y455930D03*
X871864Y455930D03*
D41*
X888860Y415732D03*
X888860Y439232D03*
X871360Y439232D03*
X871360Y415732D03*
D10*
X1788160Y186300D03*
X1788160Y169300D03*
D11*
X1720460Y388620D03*
X1703460Y388620D03*
X2008260Y337820D03*
X2025260Y337820D03*
X1720460Y273050D03*
X1703460Y273050D03*
D10*
X1788160Y240200D03*
X1788160Y223200D03*
D12*
X1649760Y134620D03*
X1621760Y134620D03*
D11*
X1525660Y261620D03*
X1542660Y261620D03*
D13*
X1648460Y82420D03*
X1648460Y34420D03*
D10*
X1470660Y276470D03*
X1470660Y259470D03*
D14*
X1486060Y278740D03*
X1486060Y259740D03*
X1507060Y269240D03*
D11*
X1703460Y293370D03*
X1720460Y293370D03*
X1466460Y298450D03*
X1449460Y298450D03*
D15*
X1538960Y193193D03*
X1538960Y215900D03*
X1538960Y238785D03*
D16*
X1479550Y215900D03*
D11*
X1574410Y172720D03*
X1557410Y172720D03*
X1557410Y198120D03*
X1574410Y198120D03*
D17*
X1572260Y25400D03*
X2092960Y76200D03*
X2092960Y355600D03*
X1584960Y508000D03*
D18*
X2092960Y114300D03*
X1546860Y520700D03*
D11*
X1525660Y276860D03*
X1542660Y276860D03*
D12*
X1553240Y298450D03*
X1525240Y298450D03*
D19*
X1772920Y491500D03*
X1722120Y491500D03*
X1671320Y491500D03*
X1798320Y524500D03*
X1747520Y524500D03*
X1696720Y524500D03*
X1645920Y524500D03*
X1620520Y524500D03*
X1645920Y491500D03*
X1671320Y524500D03*
X1696720Y491500D03*
X1722120Y524500D03*
X1747520Y491500D03*
X1772920Y524500D03*
X1798320Y491500D03*
X1620520Y491500D03*
X1823720Y524500D03*
X1849120Y524500D03*
X1823720Y491500D03*
X1849120Y491500D03*
X1737360Y41900D03*
X1788160Y41900D03*
X1838960Y41900D03*
X1711960Y8900D03*
X1762760Y8900D03*
X1813560Y8900D03*
X1864360Y8900D03*
X1889760Y8900D03*
X1864360Y41900D03*
X1838960Y8900D03*
X1813560Y41900D03*
X1788160Y8900D03*
X1762760Y41900D03*
X1737360Y8900D03*
X1711960Y41900D03*
X1889760Y41900D03*
D20*
X1920585Y211520D02*
X1935135Y211520D01*
X1935135Y223520D02*
X1920585Y223520D01*
X1920585Y235520D02*
X1935135Y235520D01*
D21*
X1927885Y223495D03*
D22*
X2080260Y292100D03*
X2080260Y266700D03*
D23*
X2105660Y279400D03*
X2054860Y279400D03*
X2054860Y254000D03*
X2105660Y254000D03*
X2105660Y304800D03*
X2054860Y304800D03*
D12*
X1621760Y223520D03*
X1649760Y223520D03*
D24*
X2001760Y356870D03*
X2031760Y356870D03*
X1696960Y407670D03*
X1726960Y407670D03*
D25*
X1511300Y476250D03*
X1455420Y476250D03*
X1511300Y514350D03*
X1455420Y514350D03*
D26*
X1592580Y62320D03*
X1592580Y105320D03*
D27*
X1487060Y298450D03*
X1505060Y298450D03*
D19*
X1915160Y524500D03*
X1965960Y524500D03*
X2016760Y524500D03*
X1889760Y491500D03*
X1940560Y491500D03*
X1991360Y491500D03*
X2042160Y491500D03*
X2067560Y491500D03*
X2042160Y524500D03*
X2016760Y491500D03*
X1991360Y524500D03*
X1965960Y491500D03*
X1940560Y524500D03*
X1915160Y491500D03*
X1889760Y524500D03*
X2067560Y524500D03*
X2042160Y8900D03*
X1991360Y8900D03*
X1940560Y8900D03*
X2067560Y41900D03*
X2016760Y41900D03*
X1965960Y41900D03*
X1940560Y41900D03*
X1965960Y8900D03*
X1991360Y41900D03*
X2016760Y8900D03*
X2042160Y41900D03*
X2067560Y8900D03*
D28*
X1459930Y134310D02*
X1445830Y134310D01*
X1445830Y152410D01*
X1459930Y152410D01*
X1459930Y134310D01*
X1459930Y141845D02*
X1445830Y141845D01*
X1445830Y149380D02*
X1459930Y149380D01*
X1459930Y20310D02*
X1445830Y20310D01*
X1445830Y38410D01*
X1459930Y38410D01*
X1459930Y20310D01*
X1459930Y27845D02*
X1445830Y27845D01*
X1445830Y35380D02*
X1459930Y35380D01*
X1506830Y134310D02*
X1520930Y134310D01*
X1506830Y134310D02*
X1506830Y152410D01*
X1520930Y152410D01*
X1520930Y134310D01*
X1520930Y141845D02*
X1506830Y141845D01*
X1506830Y149380D02*
X1520930Y149380D01*
X1520930Y20310D02*
X1506830Y20310D01*
X1506830Y38410D01*
X1520930Y38410D01*
X1520930Y20310D01*
X1520930Y27845D02*
X1506830Y27845D01*
X1506830Y35380D02*
X1520930Y35380D01*
D29*
X1452880Y86360D03*
X1498600Y86360D03*
D30*
X2036170Y158600D03*
X2036170Y171600D03*
X2017670Y165100D03*
D11*
X2035420Y190500D03*
X2018420Y190500D03*
X2035420Y139700D03*
X2018420Y139700D03*
D31*
X1894586Y175200D03*
X1894586Y183200D03*
X1894586Y191200D03*
X1894586Y199200D03*
X1894586Y207200D03*
X1894586Y215200D03*
X1894586Y223200D03*
X1894586Y231200D03*
D32*
X1879660Y246126D03*
X1871660Y246126D03*
X1863660Y246126D03*
X1855660Y246126D03*
X1847660Y246126D03*
X1839660Y246126D03*
X1831660Y246126D03*
X1823660Y246126D03*
D31*
X1808734Y231200D03*
X1808734Y223200D03*
X1808734Y215200D03*
X1808734Y207200D03*
X1808734Y199200D03*
X1808734Y191200D03*
X1808734Y183200D03*
X1808734Y175200D03*
D32*
X1823660Y160274D03*
X1831660Y160274D03*
X1839660Y160274D03*
X1847660Y160274D03*
X1855660Y160274D03*
X1863660Y160274D03*
X1871660Y160274D03*
X1879660Y160274D03*
D33*
X1622759Y187300D03*
X1622759Y177800D03*
X1622759Y168300D03*
X1648761Y168300D03*
X1648761Y187300D03*
D11*
X1644260Y203200D03*
X1627260Y203200D03*
X1586874Y377952D03*
X1603874Y377952D03*
D24*
X1726960Y330200D03*
X1696960Y330200D03*
D11*
X1720460Y311150D03*
X1703460Y311150D03*
X1533280Y330200D03*
X1550280Y330200D03*
X1720460Y349250D03*
X1703460Y349250D03*
D34*
X1471269Y393386D03*
X1471269Y399886D03*
X1471269Y380386D03*
X1471269Y386886D03*
D35*
X1474019Y365390D03*
X1474019Y421636D03*
D36*
X1444469Y403486D03*
X1444442Y383738D03*
D34*
X1471269Y406386D03*
D24*
X1726960Y368300D03*
X1696960Y368300D03*
D37*
X1701800Y203200D03*
X1711960Y203200D03*
X1722120Y203200D03*
D38*
X2104310Y137100D03*
X2104310Y193100D03*
D39*
X2067560Y150100D03*
X2067560Y160100D03*
X2067560Y170100D03*
X2067560Y180100D03*
D30*
X1982110Y171600D03*
X1982110Y158600D03*
X2000610Y165100D03*
D11*
X1982860Y190500D03*
X1999860Y190500D03*
X1982860Y139700D03*
X1999860Y139700D03*
D40*
X1567240Y349250D03*
X1567240Y361950D03*
X1567240Y374650D03*
X1567240Y387350D03*
X1567240Y400050D03*
X1567240Y412750D03*
X1567240Y425450D03*
X1567240Y438150D03*
X1511240Y438150D03*
X1511240Y425450D03*
X1511240Y412750D03*
X1511240Y400050D03*
X1511240Y387350D03*
X1511240Y374650D03*
X1511240Y361950D03*
X1511240Y349250D03*
D11*
X1587636Y397002D03*
X1604636Y397002D03*
X1605144Y455930D03*
X1588144Y455930D03*
D41*
X1605140Y415732D03*
X1605140Y439232D03*
X1587640Y439232D03*
X1587640Y415732D03*
D10*
X2504440Y186300D03*
X2504440Y169300D03*
D11*
X2436740Y388620D03*
X2419740Y388620D03*
X2724540Y337820D03*
X2741540Y337820D03*
X2436740Y273050D03*
X2419740Y273050D03*
D10*
X2504440Y240200D03*
X2504440Y223200D03*
D12*
X2366040Y134620D03*
X2338040Y134620D03*
D11*
X2241940Y261620D03*
X2258940Y261620D03*
D13*
X2364740Y82420D03*
X2364740Y34420D03*
D10*
X2186940Y276470D03*
X2186940Y259470D03*
D14*
X2202340Y278740D03*
X2202340Y259740D03*
X2223340Y269240D03*
D11*
X2419740Y293370D03*
X2436740Y293370D03*
X2182740Y298450D03*
X2165740Y298450D03*
D15*
X2255240Y193193D03*
X2255240Y215900D03*
X2255240Y238785D03*
D16*
X2195830Y215900D03*
D11*
X2290690Y172720D03*
X2273690Y172720D03*
X2273690Y198120D03*
X2290690Y198120D03*
D17*
X2288540Y25400D03*
X2809240Y76200D03*
X2809240Y355600D03*
X2301240Y508000D03*
D18*
X2809240Y114300D03*
X2263140Y520700D03*
D11*
X2241940Y276860D03*
X2258940Y276860D03*
D12*
X2269520Y298450D03*
X2241520Y298450D03*
D19*
X2489200Y491500D03*
X2438400Y491500D03*
X2387600Y491500D03*
X2514600Y524500D03*
X2463800Y524500D03*
X2413000Y524500D03*
X2362200Y524500D03*
X2336800Y524500D03*
X2362200Y491500D03*
X2387600Y524500D03*
X2413000Y491500D03*
X2438400Y524500D03*
X2463800Y491500D03*
X2489200Y524500D03*
X2514600Y491500D03*
X2336800Y491500D03*
X2540000Y524500D03*
X2565400Y524500D03*
X2540000Y491500D03*
X2565400Y491500D03*
X2453640Y41900D03*
X2504440Y41900D03*
X2555240Y41900D03*
X2428240Y8900D03*
X2479040Y8900D03*
X2529840Y8900D03*
X2580640Y8900D03*
X2606040Y8900D03*
X2580640Y41900D03*
X2555240Y8900D03*
X2529840Y41900D03*
X2504440Y8900D03*
X2479040Y41900D03*
X2453640Y8900D03*
X2428240Y41900D03*
X2606040Y41900D03*
D20*
X2636865Y211520D02*
X2651415Y211520D01*
X2651415Y223520D02*
X2636865Y223520D01*
X2636865Y235520D02*
X2651415Y235520D01*
D21*
X2644165Y223495D03*
D22*
X2796540Y292100D03*
X2796540Y266700D03*
D23*
X2821940Y279400D03*
X2771140Y279400D03*
X2771140Y254000D03*
X2821940Y254000D03*
X2821940Y304800D03*
X2771140Y304800D03*
D12*
X2338040Y223520D03*
X2366040Y223520D03*
D24*
X2718040Y356870D03*
X2748040Y356870D03*
X2413240Y407670D03*
X2443240Y407670D03*
D25*
X2227580Y476250D03*
X2171700Y476250D03*
X2227580Y514350D03*
X2171700Y514350D03*
D26*
X2308860Y62320D03*
X2308860Y105320D03*
D27*
X2203340Y298450D03*
X2221340Y298450D03*
D19*
X2631440Y524500D03*
X2682240Y524500D03*
X2733040Y524500D03*
X2606040Y491500D03*
X2656840Y491500D03*
X2707640Y491500D03*
X2758440Y491500D03*
X2783840Y491500D03*
X2758440Y524500D03*
X2733040Y491500D03*
X2707640Y524500D03*
X2682240Y491500D03*
X2656840Y524500D03*
X2631440Y491500D03*
X2606040Y524500D03*
X2783840Y524500D03*
X2758440Y8900D03*
X2707640Y8900D03*
X2656840Y8900D03*
X2783840Y41900D03*
X2733040Y41900D03*
X2682240Y41900D03*
X2656840Y41900D03*
X2682240Y8900D03*
X2707640Y41900D03*
X2733040Y8900D03*
X2758440Y41900D03*
X2783840Y8900D03*
D28*
X2176210Y134310D02*
X2162110Y134310D01*
X2162110Y152410D01*
X2176210Y152410D01*
X2176210Y134310D01*
X2176210Y141845D02*
X2162110Y141845D01*
X2162110Y149380D02*
X2176210Y149380D01*
X2176210Y20310D02*
X2162110Y20310D01*
X2162110Y38410D01*
X2176210Y38410D01*
X2176210Y20310D01*
X2176210Y27845D02*
X2162110Y27845D01*
X2162110Y35380D02*
X2176210Y35380D01*
X2223110Y134310D02*
X2237210Y134310D01*
X2223110Y134310D02*
X2223110Y152410D01*
X2237210Y152410D01*
X2237210Y134310D01*
X2237210Y141845D02*
X2223110Y141845D01*
X2223110Y149380D02*
X2237210Y149380D01*
X2237210Y20310D02*
X2223110Y20310D01*
X2223110Y38410D01*
X2237210Y38410D01*
X2237210Y20310D01*
X2237210Y27845D02*
X2223110Y27845D01*
X2223110Y35380D02*
X2237210Y35380D01*
D29*
X2169160Y86360D03*
X2214880Y86360D03*
D30*
X2752450Y158600D03*
X2752450Y171600D03*
X2733950Y165100D03*
D11*
X2751700Y190500D03*
X2734700Y190500D03*
X2751700Y139700D03*
X2734700Y139700D03*
D31*
X2610866Y175200D03*
X2610866Y183200D03*
X2610866Y191200D03*
X2610866Y199200D03*
X2610866Y207200D03*
X2610866Y215200D03*
X2610866Y223200D03*
X2610866Y231200D03*
D32*
X2595940Y246126D03*
X2587940Y246126D03*
X2579940Y246126D03*
X2571940Y246126D03*
X2563940Y246126D03*
X2555940Y246126D03*
X2547940Y246126D03*
X2539940Y246126D03*
D31*
X2525014Y231200D03*
X2525014Y223200D03*
X2525014Y215200D03*
X2525014Y207200D03*
X2525014Y199200D03*
X2525014Y191200D03*
X2525014Y183200D03*
X2525014Y175200D03*
D32*
X2539940Y160274D03*
X2547940Y160274D03*
X2555940Y160274D03*
X2563940Y160274D03*
X2571940Y160274D03*
X2579940Y160274D03*
X2587940Y160274D03*
X2595940Y160274D03*
D33*
X2339039Y187300D03*
X2339039Y177800D03*
X2339039Y168300D03*
X2365041Y168300D03*
X2365041Y187300D03*
D11*
X2360540Y203200D03*
X2343540Y203200D03*
X2303154Y377952D03*
X2320154Y377952D03*
D24*
X2443240Y330200D03*
X2413240Y330200D03*
D11*
X2436740Y311150D03*
X2419740Y311150D03*
X2249560Y330200D03*
X2266560Y330200D03*
X2436740Y349250D03*
X2419740Y349250D03*
D34*
X2187549Y393386D03*
X2187549Y399886D03*
X2187549Y380386D03*
X2187549Y386886D03*
D35*
X2190299Y365390D03*
X2190299Y421636D03*
D36*
X2160749Y403486D03*
X2160722Y383738D03*
D34*
X2187549Y406386D03*
D24*
X2443240Y368300D03*
X2413240Y368300D03*
D37*
X2418080Y203200D03*
X2428240Y203200D03*
X2438400Y203200D03*
D38*
X2820590Y137100D03*
X2820590Y193100D03*
D39*
X2783840Y150100D03*
X2783840Y160100D03*
X2783840Y170100D03*
X2783840Y180100D03*
D30*
X2698390Y171600D03*
X2698390Y158600D03*
X2716890Y165100D03*
D11*
X2699140Y190500D03*
X2716140Y190500D03*
X2699140Y139700D03*
X2716140Y139700D03*
D40*
X2283520Y349250D03*
X2283520Y361950D03*
X2283520Y374650D03*
X2283520Y387350D03*
X2283520Y400050D03*
X2283520Y412750D03*
X2283520Y425450D03*
X2283520Y438150D03*
X2227520Y438150D03*
X2227520Y425450D03*
X2227520Y412750D03*
X2227520Y400050D03*
X2227520Y387350D03*
X2227520Y374650D03*
X2227520Y361950D03*
X2227520Y349250D03*
D11*
X2303916Y397002D03*
X2320916Y397002D03*
X2321424Y455930D03*
X2304424Y455930D03*
D41*
X2321420Y415732D03*
X2321420Y439232D03*
X2303920Y439232D03*
X2303920Y415732D03*
D10*
X3220720Y186300D03*
X3220720Y169300D03*
D11*
X3153020Y388620D03*
X3136020Y388620D03*
X3440820Y337820D03*
X3457820Y337820D03*
X3153020Y273050D03*
X3136020Y273050D03*
D10*
X3220720Y240200D03*
X3220720Y223200D03*
D12*
X3082320Y134620D03*
X3054320Y134620D03*
D11*
X2958220Y261620D03*
X2975220Y261620D03*
D13*
X3081020Y82420D03*
X3081020Y34420D03*
D10*
X2903220Y276470D03*
X2903220Y259470D03*
D14*
X2918620Y278740D03*
X2918620Y259740D03*
X2939620Y269240D03*
D11*
X3136020Y293370D03*
X3153020Y293370D03*
X2899020Y298450D03*
X2882020Y298450D03*
D15*
X2971520Y193193D03*
X2971520Y215900D03*
X2971520Y238785D03*
D16*
X2912110Y215900D03*
D11*
X3006970Y172720D03*
X2989970Y172720D03*
X2989970Y198120D03*
X3006970Y198120D03*
D17*
X3004820Y25400D03*
X3525520Y76200D03*
X3525520Y355600D03*
X3017520Y508000D03*
D18*
X3525520Y114300D03*
X2979420Y520700D03*
D11*
X2958220Y276860D03*
X2975220Y276860D03*
D12*
X2985800Y298450D03*
X2957800Y298450D03*
D19*
X3205480Y491500D03*
X3154680Y491500D03*
X3103880Y491500D03*
X3230880Y524500D03*
X3180080Y524500D03*
X3129280Y524500D03*
X3078480Y524500D03*
X3053080Y524500D03*
X3078480Y491500D03*
X3103880Y524500D03*
X3129280Y491500D03*
X3154680Y524500D03*
X3180080Y491500D03*
X3205480Y524500D03*
X3230880Y491500D03*
X3053080Y491500D03*
X3256280Y524500D03*
X3281680Y524500D03*
X3256280Y491500D03*
X3281680Y491500D03*
X3169920Y41900D03*
X3220720Y41900D03*
X3271520Y41900D03*
X3144520Y8900D03*
X3195320Y8900D03*
X3246120Y8900D03*
X3296920Y8900D03*
X3322320Y8900D03*
X3296920Y41900D03*
X3271520Y8900D03*
X3246120Y41900D03*
X3220720Y8900D03*
X3195320Y41900D03*
X3169920Y8900D03*
X3144520Y41900D03*
X3322320Y41900D03*
D20*
X3353145Y211520D02*
X3367695Y211520D01*
X3367695Y223520D02*
X3353145Y223520D01*
X3353145Y235520D02*
X3367695Y235520D01*
D21*
X3360445Y223495D03*
D22*
X3512820Y292100D03*
X3512820Y266700D03*
D23*
X3538220Y279400D03*
X3487420Y279400D03*
X3487420Y254000D03*
X3538220Y254000D03*
X3538220Y304800D03*
X3487420Y304800D03*
D12*
X3054320Y223520D03*
X3082320Y223520D03*
D24*
X3434320Y356870D03*
X3464320Y356870D03*
X3129520Y407670D03*
X3159520Y407670D03*
D25*
X2943860Y476250D03*
X2887980Y476250D03*
X2943860Y514350D03*
X2887980Y514350D03*
D26*
X3025140Y62320D03*
X3025140Y105320D03*
D27*
X2919620Y298450D03*
X2937620Y298450D03*
D19*
X3347720Y524500D03*
X3398520Y524500D03*
X3449320Y524500D03*
X3322320Y491500D03*
X3373120Y491500D03*
X3423920Y491500D03*
X3474720Y491500D03*
X3500120Y491500D03*
X3474720Y524500D03*
X3449320Y491500D03*
X3423920Y524500D03*
X3398520Y491500D03*
X3373120Y524500D03*
X3347720Y491500D03*
X3322320Y524500D03*
X3500120Y524500D03*
X3474720Y8900D03*
X3423920Y8900D03*
X3373120Y8900D03*
X3500120Y41900D03*
X3449320Y41900D03*
X3398520Y41900D03*
X3373120Y41900D03*
X3398520Y8900D03*
X3423920Y41900D03*
X3449320Y8900D03*
X3474720Y41900D03*
X3500120Y8900D03*
D28*
X2892490Y134310D02*
X2878390Y134310D01*
X2878390Y152410D01*
X2892490Y152410D01*
X2892490Y134310D01*
X2892490Y141845D02*
X2878390Y141845D01*
X2878390Y149380D02*
X2892490Y149380D01*
X2892490Y20310D02*
X2878390Y20310D01*
X2878390Y38410D01*
X2892490Y38410D01*
X2892490Y20310D01*
X2892490Y27845D02*
X2878390Y27845D01*
X2878390Y35380D02*
X2892490Y35380D01*
X2939390Y134310D02*
X2953490Y134310D01*
X2939390Y134310D02*
X2939390Y152410D01*
X2953490Y152410D01*
X2953490Y134310D01*
X2953490Y141845D02*
X2939390Y141845D01*
X2939390Y149380D02*
X2953490Y149380D01*
X2953490Y20310D02*
X2939390Y20310D01*
X2939390Y38410D01*
X2953490Y38410D01*
X2953490Y20310D01*
X2953490Y27845D02*
X2939390Y27845D01*
X2939390Y35380D02*
X2953490Y35380D01*
D29*
X2885440Y86360D03*
X2931160Y86360D03*
D30*
X3468730Y158600D03*
X3468730Y171600D03*
X3450230Y165100D03*
D11*
X3467980Y190500D03*
X3450980Y190500D03*
X3467980Y139700D03*
X3450980Y139700D03*
D31*
X3327146Y175200D03*
X3327146Y183200D03*
X3327146Y191200D03*
X3327146Y199200D03*
X3327146Y207200D03*
X3327146Y215200D03*
X3327146Y223200D03*
X3327146Y231200D03*
D32*
X3312220Y246126D03*
X3304220Y246126D03*
X3296220Y246126D03*
X3288220Y246126D03*
X3280220Y246126D03*
X3272220Y246126D03*
X3264220Y246126D03*
X3256220Y246126D03*
D31*
X3241294Y231200D03*
X3241294Y223200D03*
X3241294Y215200D03*
X3241294Y207200D03*
X3241294Y199200D03*
X3241294Y191200D03*
X3241294Y183200D03*
X3241294Y175200D03*
D32*
X3256220Y160274D03*
X3264220Y160274D03*
X3272220Y160274D03*
X3280220Y160274D03*
X3288220Y160274D03*
X3296220Y160274D03*
X3304220Y160274D03*
X3312220Y160274D03*
D33*
X3055319Y187300D03*
X3055319Y177800D03*
X3055319Y168300D03*
X3081321Y168300D03*
X3081321Y187300D03*
D11*
X3076820Y203200D03*
X3059820Y203200D03*
X3019434Y377952D03*
X3036434Y377952D03*
D24*
X3159520Y330200D03*
X3129520Y330200D03*
D11*
X3153020Y311150D03*
X3136020Y311150D03*
X2965840Y330200D03*
X2982840Y330200D03*
X3153020Y349250D03*
X3136020Y349250D03*
D34*
X2903829Y393386D03*
X2903829Y399886D03*
X2903829Y380386D03*
X2903829Y386886D03*
D35*
X2906579Y365390D03*
X2906579Y421636D03*
D36*
X2877029Y403486D03*
X2877002Y383738D03*
D34*
X2903829Y406386D03*
D24*
X3159520Y368300D03*
X3129520Y368300D03*
D37*
X3134360Y203200D03*
X3144520Y203200D03*
X3154680Y203200D03*
D38*
X3536870Y137100D03*
X3536870Y193100D03*
D39*
X3500120Y150100D03*
X3500120Y160100D03*
X3500120Y170100D03*
X3500120Y180100D03*
D30*
X3414670Y171600D03*
X3414670Y158600D03*
X3433170Y165100D03*
D11*
X3415420Y190500D03*
X3432420Y190500D03*
X3415420Y139700D03*
X3432420Y139700D03*
D40*
X2999800Y349250D03*
X2999800Y361950D03*
X2999800Y374650D03*
X2999800Y387350D03*
X2999800Y400050D03*
X2999800Y412750D03*
X2999800Y425450D03*
X2999800Y438150D03*
X2943800Y438150D03*
X2943800Y425450D03*
X2943800Y412750D03*
X2943800Y400050D03*
X2943800Y387350D03*
X2943800Y374650D03*
X2943800Y361950D03*
X2943800Y349250D03*
D11*
X3020196Y397002D03*
X3037196Y397002D03*
X3037704Y455930D03*
X3020704Y455930D03*
D41*
X3037700Y415732D03*
X3037700Y439232D03*
X3020200Y439232D03*
X3020200Y415732D03*
D10*
X355600Y724780D03*
X355600Y707780D03*
D11*
X287900Y927100D03*
X270900Y927100D03*
X575700Y876300D03*
X592700Y876300D03*
X287900Y811530D03*
X270900Y811530D03*
D10*
X355600Y778680D03*
X355600Y761680D03*
D12*
X217200Y673100D03*
X189200Y673100D03*
D11*
X93100Y800100D03*
X110100Y800100D03*
D13*
X215900Y620900D03*
X215900Y572900D03*
D10*
X38100Y814950D03*
X38100Y797950D03*
D14*
X53500Y817220D03*
X53500Y798220D03*
X74500Y807720D03*
D11*
X270900Y831850D03*
X287900Y831850D03*
X33900Y836930D03*
X16900Y836930D03*
D15*
X106400Y731673D03*
X106400Y754380D03*
X106400Y777265D03*
D16*
X46990Y754380D03*
D11*
X141850Y711200D03*
X124850Y711200D03*
X124850Y736600D03*
X141850Y736600D03*
D17*
X139700Y563880D03*
X660400Y614680D03*
X660400Y894080D03*
X152400Y1046480D03*
D18*
X660400Y652780D03*
X114300Y1059180D03*
D11*
X93100Y815340D03*
X110100Y815340D03*
D12*
X120680Y836930D03*
X92680Y836930D03*
D19*
X340360Y1029980D03*
X289560Y1029980D03*
X238760Y1029980D03*
X365760Y1062980D03*
X314960Y1062980D03*
X264160Y1062980D03*
X213360Y1062980D03*
X187960Y1062980D03*
X213360Y1029980D03*
X238760Y1062980D03*
X264160Y1029980D03*
X289560Y1062980D03*
X314960Y1029980D03*
X340360Y1062980D03*
X365760Y1029980D03*
X187960Y1029980D03*
X391160Y1062980D03*
X416560Y1062980D03*
X391160Y1029980D03*
X416560Y1029980D03*
X304800Y580380D03*
X355600Y580380D03*
X406400Y580380D03*
X279400Y547380D03*
X330200Y547380D03*
X381000Y547380D03*
X431800Y547380D03*
X457200Y547380D03*
X431800Y580380D03*
X406400Y547380D03*
X381000Y580380D03*
X355600Y547380D03*
X330200Y580380D03*
X304800Y547380D03*
X279400Y580380D03*
X457200Y580380D03*
D20*
X488025Y750000D02*
X502575Y750000D01*
X502575Y762000D02*
X488025Y762000D01*
X488025Y774000D02*
X502575Y774000D01*
D21*
X495325Y761975D03*
D22*
X647700Y830580D03*
X647700Y805180D03*
D23*
X673100Y817880D03*
X622300Y817880D03*
X622300Y792480D03*
X673100Y792480D03*
X673100Y843280D03*
X622300Y843280D03*
D12*
X189200Y762000D03*
X217200Y762000D03*
D24*
X569200Y895350D03*
X599200Y895350D03*
X264400Y946150D03*
X294400Y946150D03*
D25*
X78740Y1014730D03*
X22860Y1014730D03*
X78740Y1052830D03*
X22860Y1052830D03*
D26*
X160020Y600800D03*
X160020Y643800D03*
D27*
X54500Y836930D03*
X72500Y836930D03*
D19*
X482600Y1062980D03*
X533400Y1062980D03*
X584200Y1062980D03*
X457200Y1029980D03*
X508000Y1029980D03*
X558800Y1029980D03*
X609600Y1029980D03*
X635000Y1029980D03*
X609600Y1062980D03*
X584200Y1029980D03*
X558800Y1062980D03*
X533400Y1029980D03*
X508000Y1062980D03*
X482600Y1029980D03*
X457200Y1062980D03*
X635000Y1062980D03*
X609600Y547380D03*
X558800Y547380D03*
X508000Y547380D03*
X635000Y580380D03*
X584200Y580380D03*
X533400Y580380D03*
X508000Y580380D03*
X533400Y547380D03*
X558800Y580380D03*
X584200Y547380D03*
X609600Y580380D03*
X635000Y547380D03*
D28*
X27370Y672790D02*
X13270Y672790D01*
X13270Y690890D01*
X27370Y690890D01*
X27370Y672790D01*
X27370Y680325D02*
X13270Y680325D01*
X13270Y687860D02*
X27370Y687860D01*
X27370Y558790D02*
X13270Y558790D01*
X13270Y576890D01*
X27370Y576890D01*
X27370Y558790D01*
X27370Y566325D02*
X13270Y566325D01*
X13270Y573860D02*
X27370Y573860D01*
X74270Y672790D02*
X88370Y672790D01*
X74270Y672790D02*
X74270Y690890D01*
X88370Y690890D01*
X88370Y672790D01*
X88370Y680325D02*
X74270Y680325D01*
X74270Y687860D02*
X88370Y687860D01*
X88370Y558790D02*
X74270Y558790D01*
X74270Y576890D01*
X88370Y576890D01*
X88370Y558790D01*
X88370Y566325D02*
X74270Y566325D01*
X74270Y573860D02*
X88370Y573860D01*
D29*
X20320Y624840D03*
X66040Y624840D03*
D30*
X603610Y697080D03*
X603610Y710080D03*
X585110Y703580D03*
D11*
X602860Y728980D03*
X585860Y728980D03*
X602860Y678180D03*
X585860Y678180D03*
D31*
X462026Y713680D03*
X462026Y721680D03*
X462026Y729680D03*
X462026Y737680D03*
X462026Y745680D03*
X462026Y753680D03*
X462026Y761680D03*
X462026Y769680D03*
D32*
X447100Y784606D03*
X439100Y784606D03*
X431100Y784606D03*
X423100Y784606D03*
X415100Y784606D03*
X407100Y784606D03*
X399100Y784606D03*
X391100Y784606D03*
D31*
X376174Y769680D03*
X376174Y761680D03*
X376174Y753680D03*
X376174Y745680D03*
X376174Y737680D03*
X376174Y729680D03*
X376174Y721680D03*
X376174Y713680D03*
D32*
X391100Y698754D03*
X399100Y698754D03*
X407100Y698754D03*
X415100Y698754D03*
X423100Y698754D03*
X431100Y698754D03*
X439100Y698754D03*
X447100Y698754D03*
D33*
X190199Y725780D03*
X190199Y716280D03*
X190199Y706780D03*
X216201Y706780D03*
X216201Y725780D03*
D11*
X211700Y741680D03*
X194700Y741680D03*
X154314Y916432D03*
X171314Y916432D03*
D24*
X294400Y868680D03*
X264400Y868680D03*
D11*
X287900Y849630D03*
X270900Y849630D03*
X100720Y868680D03*
X117720Y868680D03*
X287900Y887730D03*
X270900Y887730D03*
D34*
X38709Y931866D03*
X38709Y938366D03*
X38709Y918866D03*
X38709Y925366D03*
D35*
X41459Y903870D03*
X41459Y960116D03*
D36*
X11909Y941966D03*
X11882Y922218D03*
D34*
X38709Y944866D03*
D24*
X294400Y906780D03*
X264400Y906780D03*
D37*
X269240Y741680D03*
X279400Y741680D03*
X289560Y741680D03*
D38*
X671750Y675580D03*
X671750Y731580D03*
D39*
X635000Y688580D03*
X635000Y698580D03*
X635000Y708580D03*
X635000Y718580D03*
D30*
X549550Y710080D03*
X549550Y697080D03*
X568050Y703580D03*
D11*
X550300Y728980D03*
X567300Y728980D03*
X550300Y678180D03*
X567300Y678180D03*
D40*
X134680Y887730D03*
X134680Y900430D03*
X134680Y913130D03*
X134680Y925830D03*
X134680Y938530D03*
X134680Y951230D03*
X134680Y963930D03*
X134680Y976630D03*
X78680Y976630D03*
X78680Y963930D03*
X78680Y951230D03*
X78680Y938530D03*
X78680Y925830D03*
X78680Y913130D03*
X78680Y900430D03*
X78680Y887730D03*
D11*
X155076Y935482D03*
X172076Y935482D03*
X172584Y994410D03*
X155584Y994410D03*
D41*
X172580Y954212D03*
X172580Y977712D03*
X155080Y977712D03*
X155080Y954212D03*
D10*
X1071880Y724780D03*
X1071880Y707780D03*
D11*
X1004180Y927100D03*
X987180Y927100D03*
X1291980Y876300D03*
X1308980Y876300D03*
X1004180Y811530D03*
X987180Y811530D03*
D10*
X1071880Y778680D03*
X1071880Y761680D03*
D12*
X933480Y673100D03*
X905480Y673100D03*
D11*
X809380Y800100D03*
X826380Y800100D03*
D13*
X932180Y620900D03*
X932180Y572900D03*
D10*
X754380Y814950D03*
X754380Y797950D03*
D14*
X769780Y817220D03*
X769780Y798220D03*
X790780Y807720D03*
D11*
X987180Y831850D03*
X1004180Y831850D03*
X750180Y836930D03*
X733180Y836930D03*
D15*
X822680Y731673D03*
X822680Y754380D03*
X822680Y777265D03*
D16*
X763270Y754380D03*
D11*
X858130Y711200D03*
X841130Y711200D03*
X841130Y736600D03*
X858130Y736600D03*
D17*
X855980Y563880D03*
X1376680Y614680D03*
X1376680Y894080D03*
X868680Y1046480D03*
D18*
X1376680Y652780D03*
X830580Y1059180D03*
D11*
X809380Y815340D03*
X826380Y815340D03*
D12*
X836960Y836930D03*
X808960Y836930D03*
D19*
X1056640Y1029980D03*
X1005840Y1029980D03*
X955040Y1029980D03*
X1082040Y1062980D03*
X1031240Y1062980D03*
X980440Y1062980D03*
X929640Y1062980D03*
X904240Y1062980D03*
X929640Y1029980D03*
X955040Y1062980D03*
X980440Y1029980D03*
X1005840Y1062980D03*
X1031240Y1029980D03*
X1056640Y1062980D03*
X1082040Y1029980D03*
X904240Y1029980D03*
X1107440Y1062980D03*
X1132840Y1062980D03*
X1107440Y1029980D03*
X1132840Y1029980D03*
X1021080Y580380D03*
X1071880Y580380D03*
X1122680Y580380D03*
X995680Y547380D03*
X1046480Y547380D03*
X1097280Y547380D03*
X1148080Y547380D03*
X1173480Y547380D03*
X1148080Y580380D03*
X1122680Y547380D03*
X1097280Y580380D03*
X1071880Y547380D03*
X1046480Y580380D03*
X1021080Y547380D03*
X995680Y580380D03*
X1173480Y580380D03*
D20*
X1204305Y750000D02*
X1218855Y750000D01*
X1218855Y762000D02*
X1204305Y762000D01*
X1204305Y774000D02*
X1218855Y774000D01*
D21*
X1211605Y761975D03*
D22*
X1363980Y830580D03*
X1363980Y805180D03*
D23*
X1389380Y817880D03*
X1338580Y817880D03*
X1338580Y792480D03*
X1389380Y792480D03*
X1389380Y843280D03*
X1338580Y843280D03*
D12*
X905480Y762000D03*
X933480Y762000D03*
D24*
X1285480Y895350D03*
X1315480Y895350D03*
X980680Y946150D03*
X1010680Y946150D03*
D25*
X795020Y1014730D03*
X739140Y1014730D03*
X795020Y1052830D03*
X739140Y1052830D03*
D26*
X876300Y600800D03*
X876300Y643800D03*
D27*
X770780Y836930D03*
X788780Y836930D03*
D19*
X1198880Y1062980D03*
X1249680Y1062980D03*
X1300480Y1062980D03*
X1173480Y1029980D03*
X1224280Y1029980D03*
X1275080Y1029980D03*
X1325880Y1029980D03*
X1351280Y1029980D03*
X1325880Y1062980D03*
X1300480Y1029980D03*
X1275080Y1062980D03*
X1249680Y1029980D03*
X1224280Y1062980D03*
X1198880Y1029980D03*
X1173480Y1062980D03*
X1351280Y1062980D03*
X1325880Y547380D03*
X1275080Y547380D03*
X1224280Y547380D03*
X1351280Y580380D03*
X1300480Y580380D03*
X1249680Y580380D03*
X1224280Y580380D03*
X1249680Y547380D03*
X1275080Y580380D03*
X1300480Y547380D03*
X1325880Y580380D03*
X1351280Y547380D03*
D28*
X743650Y672790D02*
X729550Y672790D01*
X729550Y690890D01*
X743650Y690890D01*
X743650Y672790D01*
X743650Y680325D02*
X729550Y680325D01*
X729550Y687860D02*
X743650Y687860D01*
X743650Y558790D02*
X729550Y558790D01*
X729550Y576890D01*
X743650Y576890D01*
X743650Y558790D01*
X743650Y566325D02*
X729550Y566325D01*
X729550Y573860D02*
X743650Y573860D01*
X790550Y672790D02*
X804650Y672790D01*
X790550Y672790D02*
X790550Y690890D01*
X804650Y690890D01*
X804650Y672790D01*
X804650Y680325D02*
X790550Y680325D01*
X790550Y687860D02*
X804650Y687860D01*
X804650Y558790D02*
X790550Y558790D01*
X790550Y576890D01*
X804650Y576890D01*
X804650Y558790D01*
X804650Y566325D02*
X790550Y566325D01*
X790550Y573860D02*
X804650Y573860D01*
D29*
X736600Y624840D03*
X782320Y624840D03*
D30*
X1319890Y697080D03*
X1319890Y710080D03*
X1301390Y703580D03*
D11*
X1319140Y728980D03*
X1302140Y728980D03*
X1319140Y678180D03*
X1302140Y678180D03*
D31*
X1178306Y713680D03*
X1178306Y721680D03*
X1178306Y729680D03*
X1178306Y737680D03*
X1178306Y745680D03*
X1178306Y753680D03*
X1178306Y761680D03*
X1178306Y769680D03*
D32*
X1163380Y784606D03*
X1155380Y784606D03*
X1147380Y784606D03*
X1139380Y784606D03*
X1131380Y784606D03*
X1123380Y784606D03*
X1115380Y784606D03*
X1107380Y784606D03*
D31*
X1092454Y769680D03*
X1092454Y761680D03*
X1092454Y753680D03*
X1092454Y745680D03*
X1092454Y737680D03*
X1092454Y729680D03*
X1092454Y721680D03*
X1092454Y713680D03*
D32*
X1107380Y698754D03*
X1115380Y698754D03*
X1123380Y698754D03*
X1131380Y698754D03*
X1139380Y698754D03*
X1147380Y698754D03*
X1155380Y698754D03*
X1163380Y698754D03*
D33*
X906479Y725780D03*
X906479Y716280D03*
X906479Y706780D03*
X932481Y706780D03*
X932481Y725780D03*
D11*
X927980Y741680D03*
X910980Y741680D03*
X870594Y916432D03*
X887594Y916432D03*
D24*
X1010680Y868680D03*
X980680Y868680D03*
D11*
X1004180Y849630D03*
X987180Y849630D03*
X817000Y868680D03*
X834000Y868680D03*
X1004180Y887730D03*
X987180Y887730D03*
D34*
X754989Y931866D03*
X754989Y938366D03*
X754989Y918866D03*
X754989Y925366D03*
D35*
X757739Y903870D03*
X757739Y960116D03*
D36*
X728189Y941966D03*
X728162Y922218D03*
D34*
X754989Y944866D03*
D24*
X1010680Y906780D03*
X980680Y906780D03*
D37*
X985520Y741680D03*
X995680Y741680D03*
X1005840Y741680D03*
D38*
X1388030Y675580D03*
X1388030Y731580D03*
D39*
X1351280Y688580D03*
X1351280Y698580D03*
X1351280Y708580D03*
X1351280Y718580D03*
D30*
X1265830Y710080D03*
X1265830Y697080D03*
X1284330Y703580D03*
D11*
X1266580Y728980D03*
X1283580Y728980D03*
X1266580Y678180D03*
X1283580Y678180D03*
D40*
X850960Y887730D03*
X850960Y900430D03*
X850960Y913130D03*
X850960Y925830D03*
X850960Y938530D03*
X850960Y951230D03*
X850960Y963930D03*
X850960Y976630D03*
X794960Y976630D03*
X794960Y963930D03*
X794960Y951230D03*
X794960Y938530D03*
X794960Y925830D03*
X794960Y913130D03*
X794960Y900430D03*
X794960Y887730D03*
D11*
X871356Y935482D03*
X888356Y935482D03*
X888864Y994410D03*
X871864Y994410D03*
D41*
X888860Y954212D03*
X888860Y977712D03*
X871360Y977712D03*
X871360Y954212D03*
D10*
X1788160Y724780D03*
X1788160Y707780D03*
D11*
X1720460Y927100D03*
X1703460Y927100D03*
X2008260Y876300D03*
X2025260Y876300D03*
X1720460Y811530D03*
X1703460Y811530D03*
D10*
X1788160Y778680D03*
X1788160Y761680D03*
D12*
X1649760Y673100D03*
X1621760Y673100D03*
D11*
X1525660Y800100D03*
X1542660Y800100D03*
D13*
X1648460Y620900D03*
X1648460Y572900D03*
D10*
X1470660Y814950D03*
X1470660Y797950D03*
D14*
X1486060Y817220D03*
X1486060Y798220D03*
X1507060Y807720D03*
D11*
X1703460Y831850D03*
X1720460Y831850D03*
X1466460Y836930D03*
X1449460Y836930D03*
D15*
X1538960Y731673D03*
X1538960Y754380D03*
X1538960Y777265D03*
D16*
X1479550Y754380D03*
D11*
X1574410Y711200D03*
X1557410Y711200D03*
X1557410Y736600D03*
X1574410Y736600D03*
D17*
X1572260Y563880D03*
X2092960Y614680D03*
X2092960Y894080D03*
X1584960Y1046480D03*
D18*
X2092960Y652780D03*
X1546860Y1059180D03*
D11*
X1525660Y815340D03*
X1542660Y815340D03*
D12*
X1553240Y836930D03*
X1525240Y836930D03*
D19*
X1772920Y1029980D03*
X1722120Y1029980D03*
X1671320Y1029980D03*
X1798320Y1062980D03*
X1747520Y1062980D03*
X1696720Y1062980D03*
X1645920Y1062980D03*
X1620520Y1062980D03*
X1645920Y1029980D03*
X1671320Y1062980D03*
X1696720Y1029980D03*
X1722120Y1062980D03*
X1747520Y1029980D03*
X1772920Y1062980D03*
X1798320Y1029980D03*
X1620520Y1029980D03*
X1823720Y1062980D03*
X1849120Y1062980D03*
X1823720Y1029980D03*
X1849120Y1029980D03*
X1737360Y580380D03*
X1788160Y580380D03*
X1838960Y580380D03*
X1711960Y547380D03*
X1762760Y547380D03*
X1813560Y547380D03*
X1864360Y547380D03*
X1889760Y547380D03*
X1864360Y580380D03*
X1838960Y547380D03*
X1813560Y580380D03*
X1788160Y547380D03*
X1762760Y580380D03*
X1737360Y547380D03*
X1711960Y580380D03*
X1889760Y580380D03*
D20*
X1920585Y750000D02*
X1935135Y750000D01*
X1935135Y762000D02*
X1920585Y762000D01*
X1920585Y774000D02*
X1935135Y774000D01*
D21*
X1927885Y761975D03*
D22*
X2080260Y830580D03*
X2080260Y805180D03*
D23*
X2105660Y817880D03*
X2054860Y817880D03*
X2054860Y792480D03*
X2105660Y792480D03*
X2105660Y843280D03*
X2054860Y843280D03*
D12*
X1621760Y762000D03*
X1649760Y762000D03*
D24*
X2001760Y895350D03*
X2031760Y895350D03*
X1696960Y946150D03*
X1726960Y946150D03*
D25*
X1511300Y1014730D03*
X1455420Y1014730D03*
X1511300Y1052830D03*
X1455420Y1052830D03*
D26*
X1592580Y600800D03*
X1592580Y643800D03*
D27*
X1487060Y836930D03*
X1505060Y836930D03*
D19*
X1915160Y1062980D03*
X1965960Y1062980D03*
X2016760Y1062980D03*
X1889760Y1029980D03*
X1940560Y1029980D03*
X1991360Y1029980D03*
X2042160Y1029980D03*
X2067560Y1029980D03*
X2042160Y1062980D03*
X2016760Y1029980D03*
X1991360Y1062980D03*
X1965960Y1029980D03*
X1940560Y1062980D03*
X1915160Y1029980D03*
X1889760Y1062980D03*
X2067560Y1062980D03*
X2042160Y547380D03*
X1991360Y547380D03*
X1940560Y547380D03*
X2067560Y580380D03*
X2016760Y580380D03*
X1965960Y580380D03*
X1940560Y580380D03*
X1965960Y547380D03*
X1991360Y580380D03*
X2016760Y547380D03*
X2042160Y580380D03*
X2067560Y547380D03*
D28*
X1459930Y672790D02*
X1445830Y672790D01*
X1445830Y690890D01*
X1459930Y690890D01*
X1459930Y672790D01*
X1459930Y680325D02*
X1445830Y680325D01*
X1445830Y687860D02*
X1459930Y687860D01*
X1459930Y558790D02*
X1445830Y558790D01*
X1445830Y576890D01*
X1459930Y576890D01*
X1459930Y558790D01*
X1459930Y566325D02*
X1445830Y566325D01*
X1445830Y573860D02*
X1459930Y573860D01*
X1506830Y672790D02*
X1520930Y672790D01*
X1506830Y672790D02*
X1506830Y690890D01*
X1520930Y690890D01*
X1520930Y672790D01*
X1520930Y680325D02*
X1506830Y680325D01*
X1506830Y687860D02*
X1520930Y687860D01*
X1520930Y558790D02*
X1506830Y558790D01*
X1506830Y576890D01*
X1520930Y576890D01*
X1520930Y558790D01*
X1520930Y566325D02*
X1506830Y566325D01*
X1506830Y573860D02*
X1520930Y573860D01*
D29*
X1452880Y624840D03*
X1498600Y624840D03*
D30*
X2036170Y697080D03*
X2036170Y710080D03*
X2017670Y703580D03*
D11*
X2035420Y728980D03*
X2018420Y728980D03*
X2035420Y678180D03*
X2018420Y678180D03*
D31*
X1894586Y713680D03*
X1894586Y721680D03*
X1894586Y729680D03*
X1894586Y737680D03*
X1894586Y745680D03*
X1894586Y753680D03*
X1894586Y761680D03*
X1894586Y769680D03*
D32*
X1879660Y784606D03*
X1871660Y784606D03*
X1863660Y784606D03*
X1855660Y784606D03*
X1847660Y784606D03*
X1839660Y784606D03*
X1831660Y784606D03*
X1823660Y784606D03*
D31*
X1808734Y769680D03*
X1808734Y761680D03*
X1808734Y753680D03*
X1808734Y745680D03*
X1808734Y737680D03*
X1808734Y729680D03*
X1808734Y721680D03*
X1808734Y713680D03*
D32*
X1823660Y698754D03*
X1831660Y698754D03*
X1839660Y698754D03*
X1847660Y698754D03*
X1855660Y698754D03*
X1863660Y698754D03*
X1871660Y698754D03*
X1879660Y698754D03*
D33*
X1622759Y725780D03*
X1622759Y716280D03*
X1622759Y706780D03*
X1648761Y706780D03*
X1648761Y725780D03*
D11*
X1644260Y741680D03*
X1627260Y741680D03*
X1586874Y916432D03*
X1603874Y916432D03*
D24*
X1726960Y868680D03*
X1696960Y868680D03*
D11*
X1720460Y849630D03*
X1703460Y849630D03*
X1533280Y868680D03*
X1550280Y868680D03*
X1720460Y887730D03*
X1703460Y887730D03*
D34*
X1471269Y931866D03*
X1471269Y938366D03*
X1471269Y918866D03*
X1471269Y925366D03*
D35*
X1474019Y903870D03*
X1474019Y960116D03*
D36*
X1444469Y941966D03*
X1444442Y922218D03*
D34*
X1471269Y944866D03*
D24*
X1726960Y906780D03*
X1696960Y906780D03*
D37*
X1701800Y741680D03*
X1711960Y741680D03*
X1722120Y741680D03*
D38*
X2104310Y675580D03*
X2104310Y731580D03*
D39*
X2067560Y688580D03*
X2067560Y698580D03*
X2067560Y708580D03*
X2067560Y718580D03*
D30*
X1982110Y710080D03*
X1982110Y697080D03*
X2000610Y703580D03*
D11*
X1982860Y728980D03*
X1999860Y728980D03*
X1982860Y678180D03*
X1999860Y678180D03*
D40*
X1567240Y887730D03*
X1567240Y900430D03*
X1567240Y913130D03*
X1567240Y925830D03*
X1567240Y938530D03*
X1567240Y951230D03*
X1567240Y963930D03*
X1567240Y976630D03*
X1511240Y976630D03*
X1511240Y963930D03*
X1511240Y951230D03*
X1511240Y938530D03*
X1511240Y925830D03*
X1511240Y913130D03*
X1511240Y900430D03*
X1511240Y887730D03*
D11*
X1587636Y935482D03*
X1604636Y935482D03*
X1605144Y994410D03*
X1588144Y994410D03*
D41*
X1605140Y954212D03*
X1605140Y977712D03*
X1587640Y977712D03*
X1587640Y954212D03*
D10*
X2504440Y724780D03*
X2504440Y707780D03*
D11*
X2436740Y927100D03*
X2419740Y927100D03*
X2724540Y876300D03*
X2741540Y876300D03*
X2436740Y811530D03*
X2419740Y811530D03*
D10*
X2504440Y778680D03*
X2504440Y761680D03*
D12*
X2366040Y673100D03*
X2338040Y673100D03*
D11*
X2241940Y800100D03*
X2258940Y800100D03*
D13*
X2364740Y620900D03*
X2364740Y572900D03*
D10*
X2186940Y814950D03*
X2186940Y797950D03*
D14*
X2202340Y817220D03*
X2202340Y798220D03*
X2223340Y807720D03*
D11*
X2419740Y831850D03*
X2436740Y831850D03*
X2182740Y836930D03*
X2165740Y836930D03*
D15*
X2255240Y731673D03*
X2255240Y754380D03*
X2255240Y777265D03*
D16*
X2195830Y754380D03*
D11*
X2290690Y711200D03*
X2273690Y711200D03*
X2273690Y736600D03*
X2290690Y736600D03*
D17*
X2288540Y563880D03*
X2809240Y614680D03*
X2809240Y894080D03*
X2301240Y1046480D03*
D18*
X2809240Y652780D03*
X2263140Y1059180D03*
D11*
X2241940Y815340D03*
X2258940Y815340D03*
D12*
X2269520Y836930D03*
X2241520Y836930D03*
D19*
X2489200Y1029980D03*
X2438400Y1029980D03*
X2387600Y1029980D03*
X2514600Y1062980D03*
X2463800Y1062980D03*
X2413000Y1062980D03*
X2362200Y1062980D03*
X2336800Y1062980D03*
X2362200Y1029980D03*
X2387600Y1062980D03*
X2413000Y1029980D03*
X2438400Y1062980D03*
X2463800Y1029980D03*
X2489200Y1062980D03*
X2514600Y1029980D03*
X2336800Y1029980D03*
X2540000Y1062980D03*
X2565400Y1062980D03*
X2540000Y1029980D03*
X2565400Y1029980D03*
X2453640Y580380D03*
X2504440Y580380D03*
X2555240Y580380D03*
X2428240Y547380D03*
X2479040Y547380D03*
X2529840Y547380D03*
X2580640Y547380D03*
X2606040Y547380D03*
X2580640Y580380D03*
X2555240Y547380D03*
X2529840Y580380D03*
X2504440Y547380D03*
X2479040Y580380D03*
X2453640Y547380D03*
X2428240Y580380D03*
X2606040Y580380D03*
D20*
X2636865Y750000D02*
X2651415Y750000D01*
X2651415Y762000D02*
X2636865Y762000D01*
X2636865Y774000D02*
X2651415Y774000D01*
D21*
X2644165Y761975D03*
D22*
X2796540Y830580D03*
X2796540Y805180D03*
D23*
X2821940Y817880D03*
X2771140Y817880D03*
X2771140Y792480D03*
X2821940Y792480D03*
X2821940Y843280D03*
X2771140Y843280D03*
D12*
X2338040Y762000D03*
X2366040Y762000D03*
D24*
X2718040Y895350D03*
X2748040Y895350D03*
X2413240Y946150D03*
X2443240Y946150D03*
D25*
X2227580Y1014730D03*
X2171700Y1014730D03*
X2227580Y1052830D03*
X2171700Y1052830D03*
D26*
X2308860Y600800D03*
X2308860Y643800D03*
D27*
X2203340Y836930D03*
X2221340Y836930D03*
D19*
X2631440Y1062980D03*
X2682240Y1062980D03*
X2733040Y1062980D03*
X2606040Y1029980D03*
X2656840Y1029980D03*
X2707640Y1029980D03*
X2758440Y1029980D03*
X2783840Y1029980D03*
X2758440Y1062980D03*
X2733040Y1029980D03*
X2707640Y1062980D03*
X2682240Y1029980D03*
X2656840Y1062980D03*
X2631440Y1029980D03*
X2606040Y1062980D03*
X2783840Y1062980D03*
X2758440Y547380D03*
X2707640Y547380D03*
X2656840Y547380D03*
X2783840Y580380D03*
X2733040Y580380D03*
X2682240Y580380D03*
X2656840Y580380D03*
X2682240Y547380D03*
X2707640Y580380D03*
X2733040Y547380D03*
X2758440Y580380D03*
X2783840Y547380D03*
D28*
X2176210Y672790D02*
X2162110Y672790D01*
X2162110Y690890D01*
X2176210Y690890D01*
X2176210Y672790D01*
X2176210Y680325D02*
X2162110Y680325D01*
X2162110Y687860D02*
X2176210Y687860D01*
X2176210Y558790D02*
X2162110Y558790D01*
X2162110Y576890D01*
X2176210Y576890D01*
X2176210Y558790D01*
X2176210Y566325D02*
X2162110Y566325D01*
X2162110Y573860D02*
X2176210Y573860D01*
X2223110Y672790D02*
X2237210Y672790D01*
X2223110Y672790D02*
X2223110Y690890D01*
X2237210Y690890D01*
X2237210Y672790D01*
X2237210Y680325D02*
X2223110Y680325D01*
X2223110Y687860D02*
X2237210Y687860D01*
X2237210Y558790D02*
X2223110Y558790D01*
X2223110Y576890D01*
X2237210Y576890D01*
X2237210Y558790D01*
X2237210Y566325D02*
X2223110Y566325D01*
X2223110Y573860D02*
X2237210Y573860D01*
D29*
X2169160Y624840D03*
X2214880Y624840D03*
D30*
X2752450Y697080D03*
X2752450Y710080D03*
X2733950Y703580D03*
D11*
X2751700Y728980D03*
X2734700Y728980D03*
X2751700Y678180D03*
X2734700Y678180D03*
D31*
X2610866Y713680D03*
X2610866Y721680D03*
X2610866Y729680D03*
X2610866Y737680D03*
X2610866Y745680D03*
X2610866Y753680D03*
X2610866Y761680D03*
X2610866Y769680D03*
D32*
X2595940Y784606D03*
X2587940Y784606D03*
X2579940Y784606D03*
X2571940Y784606D03*
X2563940Y784606D03*
X2555940Y784606D03*
X2547940Y784606D03*
X2539940Y784606D03*
D31*
X2525014Y769680D03*
X2525014Y761680D03*
X2525014Y753680D03*
X2525014Y745680D03*
X2525014Y737680D03*
X2525014Y729680D03*
X2525014Y721680D03*
X2525014Y713680D03*
D32*
X2539940Y698754D03*
X2547940Y698754D03*
X2555940Y698754D03*
X2563940Y698754D03*
X2571940Y698754D03*
X2579940Y698754D03*
X2587940Y698754D03*
X2595940Y698754D03*
D33*
X2339039Y725780D03*
X2339039Y716280D03*
X2339039Y706780D03*
X2365041Y706780D03*
X2365041Y725780D03*
D11*
X2360540Y741680D03*
X2343540Y741680D03*
X2303154Y916432D03*
X2320154Y916432D03*
D24*
X2443240Y868680D03*
X2413240Y868680D03*
D11*
X2436740Y849630D03*
X2419740Y849630D03*
X2249560Y868680D03*
X2266560Y868680D03*
X2436740Y887730D03*
X2419740Y887730D03*
D34*
X2187549Y931866D03*
X2187549Y938366D03*
X2187549Y918866D03*
X2187549Y925366D03*
D35*
X2190299Y903870D03*
X2190299Y960116D03*
D36*
X2160749Y941966D03*
X2160722Y922218D03*
D34*
X2187549Y944866D03*
D24*
X2443240Y906780D03*
X2413240Y906780D03*
D37*
X2418080Y741680D03*
X2428240Y741680D03*
X2438400Y741680D03*
D38*
X2820590Y675580D03*
X2820590Y731580D03*
D39*
X2783840Y688580D03*
X2783840Y698580D03*
X2783840Y708580D03*
X2783840Y718580D03*
D30*
X2698390Y710080D03*
X2698390Y697080D03*
X2716890Y703580D03*
D11*
X2699140Y728980D03*
X2716140Y728980D03*
X2699140Y678180D03*
X2716140Y678180D03*
D40*
X2283520Y887730D03*
X2283520Y900430D03*
X2283520Y913130D03*
X2283520Y925830D03*
X2283520Y938530D03*
X2283520Y951230D03*
X2283520Y963930D03*
X2283520Y976630D03*
X2227520Y976630D03*
X2227520Y963930D03*
X2227520Y951230D03*
X2227520Y938530D03*
X2227520Y925830D03*
X2227520Y913130D03*
X2227520Y900430D03*
X2227520Y887730D03*
D11*
X2303916Y935482D03*
X2320916Y935482D03*
X2321424Y994410D03*
X2304424Y994410D03*
D41*
X2321420Y954212D03*
X2321420Y977712D03*
X2303920Y977712D03*
X2303920Y954212D03*
D10*
X3220720Y724780D03*
X3220720Y707780D03*
D11*
X3153020Y927100D03*
X3136020Y927100D03*
X3440820Y876300D03*
X3457820Y876300D03*
X3153020Y811530D03*
X3136020Y811530D03*
D10*
X3220720Y778680D03*
X3220720Y761680D03*
D12*
X3082320Y673100D03*
X3054320Y673100D03*
D11*
X2958220Y800100D03*
X2975220Y800100D03*
D13*
X3081020Y620900D03*
X3081020Y572900D03*
D10*
X2903220Y814950D03*
X2903220Y797950D03*
D14*
X2918620Y817220D03*
X2918620Y798220D03*
X2939620Y807720D03*
D11*
X3136020Y831850D03*
X3153020Y831850D03*
X2899020Y836930D03*
X2882020Y836930D03*
D15*
X2971520Y731673D03*
X2971520Y754380D03*
X2971520Y777265D03*
D16*
X2912110Y754380D03*
D11*
X3006970Y711200D03*
X2989970Y711200D03*
X2989970Y736600D03*
X3006970Y736600D03*
D17*
X3004820Y563880D03*
X3525520Y614680D03*
X3525520Y894080D03*
X3017520Y1046480D03*
D18*
X3525520Y652780D03*
X2979420Y1059180D03*
D11*
X2958220Y815340D03*
X2975220Y815340D03*
D12*
X2985800Y836930D03*
X2957800Y836930D03*
D19*
X3205480Y1029980D03*
X3154680Y1029980D03*
X3103880Y1029980D03*
X3230880Y1062980D03*
X3180080Y1062980D03*
X3129280Y1062980D03*
X3078480Y1062980D03*
X3053080Y1062980D03*
X3078480Y1029980D03*
X3103880Y1062980D03*
X3129280Y1029980D03*
X3154680Y1062980D03*
X3180080Y1029980D03*
X3205480Y1062980D03*
X3230880Y1029980D03*
X3053080Y1029980D03*
X3256280Y1062980D03*
X3281680Y1062980D03*
X3256280Y1029980D03*
X3281680Y1029980D03*
X3169920Y580380D03*
X3220720Y580380D03*
X3271520Y580380D03*
X3144520Y547380D03*
X3195320Y547380D03*
X3246120Y547380D03*
X3296920Y547380D03*
X3322320Y547380D03*
X3296920Y580380D03*
X3271520Y547380D03*
X3246120Y580380D03*
X3220720Y547380D03*
X3195320Y580380D03*
X3169920Y547380D03*
X3144520Y580380D03*
X3322320Y580380D03*
D20*
X3353145Y750000D02*
X3367695Y750000D01*
X3367695Y762000D02*
X3353145Y762000D01*
X3353145Y774000D02*
X3367695Y774000D01*
D21*
X3360445Y761975D03*
D22*
X3512820Y830580D03*
X3512820Y805180D03*
D23*
X3538220Y817880D03*
X3487420Y817880D03*
X3487420Y792480D03*
X3538220Y792480D03*
X3538220Y843280D03*
X3487420Y843280D03*
D12*
X3054320Y762000D03*
X3082320Y762000D03*
D24*
X3434320Y895350D03*
X3464320Y895350D03*
X3129520Y946150D03*
X3159520Y946150D03*
D25*
X2943860Y1014730D03*
X2887980Y1014730D03*
X2943860Y1052830D03*
X2887980Y1052830D03*
D26*
X3025140Y600800D03*
X3025140Y643800D03*
D27*
X2919620Y836930D03*
X2937620Y836930D03*
D19*
X3347720Y1062980D03*
X3398520Y1062980D03*
X3449320Y1062980D03*
X3322320Y1029980D03*
X3373120Y1029980D03*
X3423920Y1029980D03*
X3474720Y1029980D03*
X3500120Y1029980D03*
X3474720Y1062980D03*
X3449320Y1029980D03*
X3423920Y1062980D03*
X3398520Y1029980D03*
X3373120Y1062980D03*
X3347720Y1029980D03*
X3322320Y1062980D03*
X3500120Y1062980D03*
X3474720Y547380D03*
X3423920Y547380D03*
X3373120Y547380D03*
X3500120Y580380D03*
X3449320Y580380D03*
X3398520Y580380D03*
X3373120Y580380D03*
X3398520Y547380D03*
X3423920Y580380D03*
X3449320Y547380D03*
X3474720Y580380D03*
X3500120Y547380D03*
D28*
X2892490Y672790D02*
X2878390Y672790D01*
X2878390Y690890D01*
X2892490Y690890D01*
X2892490Y672790D01*
X2892490Y680325D02*
X2878390Y680325D01*
X2878390Y687860D02*
X2892490Y687860D01*
X2892490Y558790D02*
X2878390Y558790D01*
X2878390Y576890D01*
X2892490Y576890D01*
X2892490Y558790D01*
X2892490Y566325D02*
X2878390Y566325D01*
X2878390Y573860D02*
X2892490Y573860D01*
X2939390Y672790D02*
X2953490Y672790D01*
X2939390Y672790D02*
X2939390Y690890D01*
X2953490Y690890D01*
X2953490Y672790D01*
X2953490Y680325D02*
X2939390Y680325D01*
X2939390Y687860D02*
X2953490Y687860D01*
X2953490Y558790D02*
X2939390Y558790D01*
X2939390Y576890D01*
X2953490Y576890D01*
X2953490Y558790D01*
X2953490Y566325D02*
X2939390Y566325D01*
X2939390Y573860D02*
X2953490Y573860D01*
D29*
X2885440Y624840D03*
X2931160Y624840D03*
D30*
X3468730Y697080D03*
X3468730Y710080D03*
X3450230Y703580D03*
D11*
X3467980Y728980D03*
X3450980Y728980D03*
X3467980Y678180D03*
X3450980Y678180D03*
D31*
X3327146Y713680D03*
X3327146Y721680D03*
X3327146Y729680D03*
X3327146Y737680D03*
X3327146Y745680D03*
X3327146Y753680D03*
X3327146Y761680D03*
X3327146Y769680D03*
D32*
X3312220Y784606D03*
X3304220Y784606D03*
X3296220Y784606D03*
X3288220Y784606D03*
X3280220Y784606D03*
X3272220Y784606D03*
X3264220Y784606D03*
X3256220Y784606D03*
D31*
X3241294Y769680D03*
X3241294Y761680D03*
X3241294Y753680D03*
X3241294Y745680D03*
X3241294Y737680D03*
X3241294Y729680D03*
X3241294Y721680D03*
X3241294Y713680D03*
D32*
X3256220Y698754D03*
X3264220Y698754D03*
X3272220Y698754D03*
X3280220Y698754D03*
X3288220Y698754D03*
X3296220Y698754D03*
X3304220Y698754D03*
X3312220Y698754D03*
D33*
X3055319Y725780D03*
X3055319Y716280D03*
X3055319Y706780D03*
X3081321Y706780D03*
X3081321Y725780D03*
D11*
X3076820Y741680D03*
X3059820Y741680D03*
X3019434Y916432D03*
X3036434Y916432D03*
D24*
X3159520Y868680D03*
X3129520Y868680D03*
D11*
X3153020Y849630D03*
X3136020Y849630D03*
X2965840Y868680D03*
X2982840Y868680D03*
X3153020Y887730D03*
X3136020Y887730D03*
D34*
X2903829Y931866D03*
X2903829Y938366D03*
X2903829Y918866D03*
X2903829Y925366D03*
D35*
X2906579Y903870D03*
X2906579Y960116D03*
D36*
X2877029Y941966D03*
X2877002Y922218D03*
D34*
X2903829Y944866D03*
D24*
X3159520Y906780D03*
X3129520Y906780D03*
D37*
X3134360Y741680D03*
X3144520Y741680D03*
X3154680Y741680D03*
D38*
X3536870Y675580D03*
X3536870Y731580D03*
D39*
X3500120Y688580D03*
X3500120Y698580D03*
X3500120Y708580D03*
X3500120Y718580D03*
D30*
X3414670Y710080D03*
X3414670Y697080D03*
X3433170Y703580D03*
D11*
X3415420Y728980D03*
X3432420Y728980D03*
X3415420Y678180D03*
X3432420Y678180D03*
D40*
X2999800Y887730D03*
X2999800Y900430D03*
X2999800Y913130D03*
X2999800Y925830D03*
X2999800Y938530D03*
X2999800Y951230D03*
X2999800Y963930D03*
X2999800Y976630D03*
X2943800Y976630D03*
X2943800Y963930D03*
X2943800Y951230D03*
X2943800Y938530D03*
X2943800Y925830D03*
X2943800Y913130D03*
X2943800Y900430D03*
X2943800Y887730D03*
D11*
X3020196Y935482D03*
X3037196Y935482D03*
X3037704Y994410D03*
X3020704Y994410D03*
D41*
X3037700Y954212D03*
X3037700Y977712D03*
X3020200Y977712D03*
X3020200Y954212D03*
D10*
X355600Y1263260D03*
X355600Y1246260D03*
D11*
X287900Y1465580D03*
X270900Y1465580D03*
X575700Y1414780D03*
X592700Y1414780D03*
X287900Y1350010D03*
X270900Y1350010D03*
D10*
X355600Y1317160D03*
X355600Y1300160D03*
D12*
X217200Y1211580D03*
X189200Y1211580D03*
D11*
X93100Y1338580D03*
X110100Y1338580D03*
D13*
X215900Y1159380D03*
X215900Y1111380D03*
D10*
X38100Y1353430D03*
X38100Y1336430D03*
D14*
X53500Y1355700D03*
X53500Y1336700D03*
X74500Y1346200D03*
D11*
X270900Y1370330D03*
X287900Y1370330D03*
X33900Y1375410D03*
X16900Y1375410D03*
D15*
X106400Y1270153D03*
X106400Y1292860D03*
X106400Y1315745D03*
D16*
X46990Y1292860D03*
D11*
X141850Y1249680D03*
X124850Y1249680D03*
X124850Y1275080D03*
X141850Y1275080D03*
D17*
X139700Y1102360D03*
X660400Y1153160D03*
X660400Y1432560D03*
X152400Y1584960D03*
D18*
X660400Y1191260D03*
X114300Y1597660D03*
D11*
X93100Y1353820D03*
X110100Y1353820D03*
D12*
X120680Y1375410D03*
X92680Y1375410D03*
D19*
X340360Y1568460D03*
X289560Y1568460D03*
X238760Y1568460D03*
X365760Y1601460D03*
X314960Y1601460D03*
X264160Y1601460D03*
X213360Y1601460D03*
X187960Y1601460D03*
X213360Y1568460D03*
X238760Y1601460D03*
X264160Y1568460D03*
X289560Y1601460D03*
X314960Y1568460D03*
X340360Y1601460D03*
X365760Y1568460D03*
X187960Y1568460D03*
X391160Y1601460D03*
X416560Y1601460D03*
X391160Y1568460D03*
X416560Y1568460D03*
X304800Y1118860D03*
X355600Y1118860D03*
X406400Y1118860D03*
X279400Y1085860D03*
X330200Y1085860D03*
X381000Y1085860D03*
X431800Y1085860D03*
X457200Y1085860D03*
X431800Y1118860D03*
X406400Y1085860D03*
X381000Y1118860D03*
X355600Y1085860D03*
X330200Y1118860D03*
X304800Y1085860D03*
X279400Y1118860D03*
X457200Y1118860D03*
D20*
X488025Y1288480D02*
X502575Y1288480D01*
X502575Y1300480D02*
X488025Y1300480D01*
X488025Y1312480D02*
X502575Y1312480D01*
D21*
X495325Y1300455D03*
D22*
X647700Y1369060D03*
X647700Y1343660D03*
D23*
X673100Y1356360D03*
X622300Y1356360D03*
X622300Y1330960D03*
X673100Y1330960D03*
X673100Y1381760D03*
X622300Y1381760D03*
D12*
X189200Y1300480D03*
X217200Y1300480D03*
D24*
X569200Y1433830D03*
X599200Y1433830D03*
X264400Y1484630D03*
X294400Y1484630D03*
D25*
X78740Y1553210D03*
X22860Y1553210D03*
X78740Y1591310D03*
X22860Y1591310D03*
D26*
X160020Y1139280D03*
X160020Y1182280D03*
D27*
X54500Y1375410D03*
X72500Y1375410D03*
D19*
X482600Y1601460D03*
X533400Y1601460D03*
X584200Y1601460D03*
X457200Y1568460D03*
X508000Y1568460D03*
X558800Y1568460D03*
X609600Y1568460D03*
X635000Y1568460D03*
X609600Y1601460D03*
X584200Y1568460D03*
X558800Y1601460D03*
X533400Y1568460D03*
X508000Y1601460D03*
X482600Y1568460D03*
X457200Y1601460D03*
X635000Y1601460D03*
X609600Y1085860D03*
X558800Y1085860D03*
X508000Y1085860D03*
X635000Y1118860D03*
X584200Y1118860D03*
X533400Y1118860D03*
X508000Y1118860D03*
X533400Y1085860D03*
X558800Y1118860D03*
X584200Y1085860D03*
X609600Y1118860D03*
X635000Y1085860D03*
D28*
X27370Y1211270D02*
X13270Y1211270D01*
X13270Y1229370D01*
X27370Y1229370D01*
X27370Y1211270D01*
X27370Y1218805D02*
X13270Y1218805D01*
X13270Y1226340D02*
X27370Y1226340D01*
X27370Y1097270D02*
X13270Y1097270D01*
X13270Y1115370D01*
X27370Y1115370D01*
X27370Y1097270D01*
X27370Y1104805D02*
X13270Y1104805D01*
X13270Y1112340D02*
X27370Y1112340D01*
X74270Y1211270D02*
X88370Y1211270D01*
X74270Y1211270D02*
X74270Y1229370D01*
X88370Y1229370D01*
X88370Y1211270D01*
X88370Y1218805D02*
X74270Y1218805D01*
X74270Y1226340D02*
X88370Y1226340D01*
X88370Y1097270D02*
X74270Y1097270D01*
X74270Y1115370D01*
X88370Y1115370D01*
X88370Y1097270D01*
X88370Y1104805D02*
X74270Y1104805D01*
X74270Y1112340D02*
X88370Y1112340D01*
D29*
X20320Y1163320D03*
X66040Y1163320D03*
D30*
X603610Y1235560D03*
X603610Y1248560D03*
X585110Y1242060D03*
D11*
X602860Y1267460D03*
X585860Y1267460D03*
X602860Y1216660D03*
X585860Y1216660D03*
D31*
X462026Y1252160D03*
X462026Y1260160D03*
X462026Y1268160D03*
X462026Y1276160D03*
X462026Y1284160D03*
X462026Y1292160D03*
X462026Y1300160D03*
X462026Y1308160D03*
D32*
X447100Y1323086D03*
X439100Y1323086D03*
X431100Y1323086D03*
X423100Y1323086D03*
X415100Y1323086D03*
X407100Y1323086D03*
X399100Y1323086D03*
X391100Y1323086D03*
D31*
X376174Y1308160D03*
X376174Y1300160D03*
X376174Y1292160D03*
X376174Y1284160D03*
X376174Y1276160D03*
X376174Y1268160D03*
X376174Y1260160D03*
X376174Y1252160D03*
D32*
X391100Y1237234D03*
X399100Y1237234D03*
X407100Y1237234D03*
X415100Y1237234D03*
X423100Y1237234D03*
X431100Y1237234D03*
X439100Y1237234D03*
X447100Y1237234D03*
D33*
X190199Y1264260D03*
X190199Y1254760D03*
X190199Y1245260D03*
X216201Y1245260D03*
X216201Y1264260D03*
D11*
X211700Y1280160D03*
X194700Y1280160D03*
X154314Y1454912D03*
X171314Y1454912D03*
D24*
X294400Y1407160D03*
X264400Y1407160D03*
D11*
X287900Y1388110D03*
X270900Y1388110D03*
X100720Y1407160D03*
X117720Y1407160D03*
X287900Y1426210D03*
X270900Y1426210D03*
D34*
X38709Y1470346D03*
X38709Y1476846D03*
X38709Y1457346D03*
X38709Y1463846D03*
D35*
X41459Y1442350D03*
X41459Y1498596D03*
D36*
X11909Y1480446D03*
X11882Y1460698D03*
D34*
X38709Y1483346D03*
D24*
X294400Y1445260D03*
X264400Y1445260D03*
D37*
X269240Y1280160D03*
X279400Y1280160D03*
X289560Y1280160D03*
D38*
X671750Y1214060D03*
X671750Y1270060D03*
D39*
X635000Y1227060D03*
X635000Y1237060D03*
X635000Y1247060D03*
X635000Y1257060D03*
D30*
X549550Y1248560D03*
X549550Y1235560D03*
X568050Y1242060D03*
D11*
X550300Y1267460D03*
X567300Y1267460D03*
X550300Y1216660D03*
X567300Y1216660D03*
D40*
X134680Y1426210D03*
X134680Y1438910D03*
X134680Y1451610D03*
X134680Y1464310D03*
X134680Y1477010D03*
X134680Y1489710D03*
X134680Y1502410D03*
X134680Y1515110D03*
X78680Y1515110D03*
X78680Y1502410D03*
X78680Y1489710D03*
X78680Y1477010D03*
X78680Y1464310D03*
X78680Y1451610D03*
X78680Y1438910D03*
X78680Y1426210D03*
D11*
X155076Y1473962D03*
X172076Y1473962D03*
X172584Y1532890D03*
X155584Y1532890D03*
D41*
X172580Y1492692D03*
X172580Y1516192D03*
X155080Y1516192D03*
X155080Y1492692D03*
D10*
X1071880Y1263260D03*
X1071880Y1246260D03*
D11*
X1004180Y1465580D03*
X987180Y1465580D03*
X1291980Y1414780D03*
X1308980Y1414780D03*
X1004180Y1350010D03*
X987180Y1350010D03*
D10*
X1071880Y1317160D03*
X1071880Y1300160D03*
D12*
X933480Y1211580D03*
X905480Y1211580D03*
D11*
X809380Y1338580D03*
X826380Y1338580D03*
D13*
X932180Y1159380D03*
X932180Y1111380D03*
D10*
X754380Y1353430D03*
X754380Y1336430D03*
D14*
X769780Y1355700D03*
X769780Y1336700D03*
X790780Y1346200D03*
D11*
X987180Y1370330D03*
X1004180Y1370330D03*
X750180Y1375410D03*
X733180Y1375410D03*
D15*
X822680Y1270153D03*
X822680Y1292860D03*
X822680Y1315745D03*
D16*
X763270Y1292860D03*
D11*
X858130Y1249680D03*
X841130Y1249680D03*
X841130Y1275080D03*
X858130Y1275080D03*
D17*
X855980Y1102360D03*
X1376680Y1153160D03*
X1376680Y1432560D03*
X868680Y1584960D03*
D18*
X1376680Y1191260D03*
X830580Y1597660D03*
D11*
X809380Y1353820D03*
X826380Y1353820D03*
D12*
X836960Y1375410D03*
X808960Y1375410D03*
D19*
X1056640Y1568460D03*
X1005840Y1568460D03*
X955040Y1568460D03*
X1082040Y1601460D03*
X1031240Y1601460D03*
X980440Y1601460D03*
X929640Y1601460D03*
X904240Y1601460D03*
X929640Y1568460D03*
X955040Y1601460D03*
X980440Y1568460D03*
X1005840Y1601460D03*
X1031240Y1568460D03*
X1056640Y1601460D03*
X1082040Y1568460D03*
X904240Y1568460D03*
X1107440Y1601460D03*
X1132840Y1601460D03*
X1107440Y1568460D03*
X1132840Y1568460D03*
X1021080Y1118860D03*
X1071880Y1118860D03*
X1122680Y1118860D03*
X995680Y1085860D03*
X1046480Y1085860D03*
X1097280Y1085860D03*
X1148080Y1085860D03*
X1173480Y1085860D03*
X1148080Y1118860D03*
X1122680Y1085860D03*
X1097280Y1118860D03*
X1071880Y1085860D03*
X1046480Y1118860D03*
X1021080Y1085860D03*
X995680Y1118860D03*
X1173480Y1118860D03*
D20*
X1204305Y1288480D02*
X1218855Y1288480D01*
X1218855Y1300480D02*
X1204305Y1300480D01*
X1204305Y1312480D02*
X1218855Y1312480D01*
D21*
X1211605Y1300455D03*
D22*
X1363980Y1369060D03*
X1363980Y1343660D03*
D23*
X1389380Y1356360D03*
X1338580Y1356360D03*
X1338580Y1330960D03*
X1389380Y1330960D03*
X1389380Y1381760D03*
X1338580Y1381760D03*
D12*
X905480Y1300480D03*
X933480Y1300480D03*
D24*
X1285480Y1433830D03*
X1315480Y1433830D03*
X980680Y1484630D03*
X1010680Y1484630D03*
D25*
X795020Y1553210D03*
X739140Y1553210D03*
X795020Y1591310D03*
X739140Y1591310D03*
D26*
X876300Y1139280D03*
X876300Y1182280D03*
D27*
X770780Y1375410D03*
X788780Y1375410D03*
D19*
X1198880Y1601460D03*
X1249680Y1601460D03*
X1300480Y1601460D03*
X1173480Y1568460D03*
X1224280Y1568460D03*
X1275080Y1568460D03*
X1325880Y1568460D03*
X1351280Y1568460D03*
X1325880Y1601460D03*
X1300480Y1568460D03*
X1275080Y1601460D03*
X1249680Y1568460D03*
X1224280Y1601460D03*
X1198880Y1568460D03*
X1173480Y1601460D03*
X1351280Y1601460D03*
X1325880Y1085860D03*
X1275080Y1085860D03*
X1224280Y1085860D03*
X1351280Y1118860D03*
X1300480Y1118860D03*
X1249680Y1118860D03*
X1224280Y1118860D03*
X1249680Y1085860D03*
X1275080Y1118860D03*
X1300480Y1085860D03*
X1325880Y1118860D03*
X1351280Y1085860D03*
D28*
X743650Y1211270D02*
X729550Y1211270D01*
X729550Y1229370D01*
X743650Y1229370D01*
X743650Y1211270D01*
X743650Y1218805D02*
X729550Y1218805D01*
X729550Y1226340D02*
X743650Y1226340D01*
X743650Y1097270D02*
X729550Y1097270D01*
X729550Y1115370D01*
X743650Y1115370D01*
X743650Y1097270D01*
X743650Y1104805D02*
X729550Y1104805D01*
X729550Y1112340D02*
X743650Y1112340D01*
X790550Y1211270D02*
X804650Y1211270D01*
X790550Y1211270D02*
X790550Y1229370D01*
X804650Y1229370D01*
X804650Y1211270D01*
X804650Y1218805D02*
X790550Y1218805D01*
X790550Y1226340D02*
X804650Y1226340D01*
X804650Y1097270D02*
X790550Y1097270D01*
X790550Y1115370D01*
X804650Y1115370D01*
X804650Y1097270D01*
X804650Y1104805D02*
X790550Y1104805D01*
X790550Y1112340D02*
X804650Y1112340D01*
D29*
X736600Y1163320D03*
X782320Y1163320D03*
D30*
X1319890Y1235560D03*
X1319890Y1248560D03*
X1301390Y1242060D03*
D11*
X1319140Y1267460D03*
X1302140Y1267460D03*
X1319140Y1216660D03*
X1302140Y1216660D03*
D31*
X1178306Y1252160D03*
X1178306Y1260160D03*
X1178306Y1268160D03*
X1178306Y1276160D03*
X1178306Y1284160D03*
X1178306Y1292160D03*
X1178306Y1300160D03*
X1178306Y1308160D03*
D32*
X1163380Y1323086D03*
X1155380Y1323086D03*
X1147380Y1323086D03*
X1139380Y1323086D03*
X1131380Y1323086D03*
X1123380Y1323086D03*
X1115380Y1323086D03*
X1107380Y1323086D03*
D31*
X1092454Y1308160D03*
X1092454Y1300160D03*
X1092454Y1292160D03*
X1092454Y1284160D03*
X1092454Y1276160D03*
X1092454Y1268160D03*
X1092454Y1260160D03*
X1092454Y1252160D03*
D32*
X1107380Y1237234D03*
X1115380Y1237234D03*
X1123380Y1237234D03*
X1131380Y1237234D03*
X1139380Y1237234D03*
X1147380Y1237234D03*
X1155380Y1237234D03*
X1163380Y1237234D03*
D33*
X906479Y1264260D03*
X906479Y1254760D03*
X906479Y1245260D03*
X932481Y1245260D03*
X932481Y1264260D03*
D11*
X927980Y1280160D03*
X910980Y1280160D03*
X870594Y1454912D03*
X887594Y1454912D03*
D24*
X1010680Y1407160D03*
X980680Y1407160D03*
D11*
X1004180Y1388110D03*
X987180Y1388110D03*
X817000Y1407160D03*
X834000Y1407160D03*
X1004180Y1426210D03*
X987180Y1426210D03*
D34*
X754989Y1470346D03*
X754989Y1476846D03*
X754989Y1457346D03*
X754989Y1463846D03*
D35*
X757739Y1442350D03*
X757739Y1498596D03*
D36*
X728189Y1480446D03*
X728162Y1460698D03*
D34*
X754989Y1483346D03*
D24*
X1010680Y1445260D03*
X980680Y1445260D03*
D37*
X985520Y1280160D03*
X995680Y1280160D03*
X1005840Y1280160D03*
D38*
X1388030Y1214060D03*
X1388030Y1270060D03*
D39*
X1351280Y1227060D03*
X1351280Y1237060D03*
X1351280Y1247060D03*
X1351280Y1257060D03*
D30*
X1265830Y1248560D03*
X1265830Y1235560D03*
X1284330Y1242060D03*
D11*
X1266580Y1267460D03*
X1283580Y1267460D03*
X1266580Y1216660D03*
X1283580Y1216660D03*
D40*
X850960Y1426210D03*
X850960Y1438910D03*
X850960Y1451610D03*
X850960Y1464310D03*
X850960Y1477010D03*
X850960Y1489710D03*
X850960Y1502410D03*
X850960Y1515110D03*
X794960Y1515110D03*
X794960Y1502410D03*
X794960Y1489710D03*
X794960Y1477010D03*
X794960Y1464310D03*
X794960Y1451610D03*
X794960Y1438910D03*
X794960Y1426210D03*
D11*
X871356Y1473962D03*
X888356Y1473962D03*
X888864Y1532890D03*
X871864Y1532890D03*
D41*
X888860Y1492692D03*
X888860Y1516192D03*
X871360Y1516192D03*
X871360Y1492692D03*
D10*
X1788160Y1263260D03*
X1788160Y1246260D03*
D11*
X1720460Y1465580D03*
X1703460Y1465580D03*
X2008260Y1414780D03*
X2025260Y1414780D03*
X1720460Y1350010D03*
X1703460Y1350010D03*
D10*
X1788160Y1317160D03*
X1788160Y1300160D03*
D12*
X1649760Y1211580D03*
X1621760Y1211580D03*
D11*
X1525660Y1338580D03*
X1542660Y1338580D03*
D13*
X1648460Y1159380D03*
X1648460Y1111380D03*
D10*
X1470660Y1353430D03*
X1470660Y1336430D03*
D14*
X1486060Y1355700D03*
X1486060Y1336700D03*
X1507060Y1346200D03*
D11*
X1703460Y1370330D03*
X1720460Y1370330D03*
X1466460Y1375410D03*
X1449460Y1375410D03*
D15*
X1538960Y1270153D03*
X1538960Y1292860D03*
X1538960Y1315745D03*
D16*
X1479550Y1292860D03*
D11*
X1574410Y1249680D03*
X1557410Y1249680D03*
X1557410Y1275080D03*
X1574410Y1275080D03*
D17*
X1572260Y1102360D03*
X2092960Y1153160D03*
X2092960Y1432560D03*
X1584960Y1584960D03*
D18*
X2092960Y1191260D03*
X1546860Y1597660D03*
D11*
X1525660Y1353820D03*
X1542660Y1353820D03*
D12*
X1553240Y1375410D03*
X1525240Y1375410D03*
D19*
X1772920Y1568460D03*
X1722120Y1568460D03*
X1671320Y1568460D03*
X1798320Y1601460D03*
X1747520Y1601460D03*
X1696720Y1601460D03*
X1645920Y1601460D03*
X1620520Y1601460D03*
X1645920Y1568460D03*
X1671320Y1601460D03*
X1696720Y1568460D03*
X1722120Y1601460D03*
X1747520Y1568460D03*
X1772920Y1601460D03*
X1798320Y1568460D03*
X1620520Y1568460D03*
X1823720Y1601460D03*
X1849120Y1601460D03*
X1823720Y1568460D03*
X1849120Y1568460D03*
X1737360Y1118860D03*
X1788160Y1118860D03*
X1838960Y1118860D03*
X1711960Y1085860D03*
X1762760Y1085860D03*
X1813560Y1085860D03*
X1864360Y1085860D03*
X1889760Y1085860D03*
X1864360Y1118860D03*
X1838960Y1085860D03*
X1813560Y1118860D03*
X1788160Y1085860D03*
X1762760Y1118860D03*
X1737360Y1085860D03*
X1711960Y1118860D03*
X1889760Y1118860D03*
D20*
X1920585Y1288480D02*
X1935135Y1288480D01*
X1935135Y1300480D02*
X1920585Y1300480D01*
X1920585Y1312480D02*
X1935135Y1312480D01*
D21*
X1927885Y1300455D03*
D22*
X2080260Y1369060D03*
X2080260Y1343660D03*
D23*
X2105660Y1356360D03*
X2054860Y1356360D03*
X2054860Y1330960D03*
X2105660Y1330960D03*
X2105660Y1381760D03*
X2054860Y1381760D03*
D12*
X1621760Y1300480D03*
X1649760Y1300480D03*
D24*
X2001760Y1433830D03*
X2031760Y1433830D03*
X1696960Y1484630D03*
X1726960Y1484630D03*
D25*
X1511300Y1553210D03*
X1455420Y1553210D03*
X1511300Y1591310D03*
X1455420Y1591310D03*
D26*
X1592580Y1139280D03*
X1592580Y1182280D03*
D27*
X1487060Y1375410D03*
X1505060Y1375410D03*
D19*
X1915160Y1601460D03*
X1965960Y1601460D03*
X2016760Y1601460D03*
X1889760Y1568460D03*
X1940560Y1568460D03*
X1991360Y1568460D03*
X2042160Y1568460D03*
X2067560Y1568460D03*
X2042160Y1601460D03*
X2016760Y1568460D03*
X1991360Y1601460D03*
X1965960Y1568460D03*
X1940560Y1601460D03*
X1915160Y1568460D03*
X1889760Y1601460D03*
X2067560Y1601460D03*
X2042160Y1085860D03*
X1991360Y1085860D03*
X1940560Y1085860D03*
X2067560Y1118860D03*
X2016760Y1118860D03*
X1965960Y1118860D03*
X1940560Y1118860D03*
X1965960Y1085860D03*
X1991360Y1118860D03*
X2016760Y1085860D03*
X2042160Y1118860D03*
X2067560Y1085860D03*
D28*
X1459930Y1211270D02*
X1445830Y1211270D01*
X1445830Y1229370D01*
X1459930Y1229370D01*
X1459930Y1211270D01*
X1459930Y1218805D02*
X1445830Y1218805D01*
X1445830Y1226340D02*
X1459930Y1226340D01*
X1459930Y1097270D02*
X1445830Y1097270D01*
X1445830Y1115370D01*
X1459930Y1115370D01*
X1459930Y1097270D01*
X1459930Y1104805D02*
X1445830Y1104805D01*
X1445830Y1112340D02*
X1459930Y1112340D01*
X1506830Y1211270D02*
X1520930Y1211270D01*
X1506830Y1211270D02*
X1506830Y1229370D01*
X1520930Y1229370D01*
X1520930Y1211270D01*
X1520930Y1218805D02*
X1506830Y1218805D01*
X1506830Y1226340D02*
X1520930Y1226340D01*
X1520930Y1097270D02*
X1506830Y1097270D01*
X1506830Y1115370D01*
X1520930Y1115370D01*
X1520930Y1097270D01*
X1520930Y1104805D02*
X1506830Y1104805D01*
X1506830Y1112340D02*
X1520930Y1112340D01*
D29*
X1452880Y1163320D03*
X1498600Y1163320D03*
D30*
X2036170Y1235560D03*
X2036170Y1248560D03*
X2017670Y1242060D03*
D11*
X2035420Y1267460D03*
X2018420Y1267460D03*
X2035420Y1216660D03*
X2018420Y1216660D03*
D31*
X1894586Y1252160D03*
X1894586Y1260160D03*
X1894586Y1268160D03*
X1894586Y1276160D03*
X1894586Y1284160D03*
X1894586Y1292160D03*
X1894586Y1300160D03*
X1894586Y1308160D03*
D32*
X1879660Y1323086D03*
X1871660Y1323086D03*
X1863660Y1323086D03*
X1855660Y1323086D03*
X1847660Y1323086D03*
X1839660Y1323086D03*
X1831660Y1323086D03*
X1823660Y1323086D03*
D31*
X1808734Y1308160D03*
X1808734Y1300160D03*
X1808734Y1292160D03*
X1808734Y1284160D03*
X1808734Y1276160D03*
X1808734Y1268160D03*
X1808734Y1260160D03*
X1808734Y1252160D03*
D32*
X1823660Y1237234D03*
X1831660Y1237234D03*
X1839660Y1237234D03*
X1847660Y1237234D03*
X1855660Y1237234D03*
X1863660Y1237234D03*
X1871660Y1237234D03*
X1879660Y1237234D03*
D33*
X1622759Y1264260D03*
X1622759Y1254760D03*
X1622759Y1245260D03*
X1648761Y1245260D03*
X1648761Y1264260D03*
D11*
X1644260Y1280160D03*
X1627260Y1280160D03*
X1586874Y1454912D03*
X1603874Y1454912D03*
D24*
X1726960Y1407160D03*
X1696960Y1407160D03*
D11*
X1720460Y1388110D03*
X1703460Y1388110D03*
X1533280Y1407160D03*
X1550280Y1407160D03*
X1720460Y1426210D03*
X1703460Y1426210D03*
D34*
X1471269Y1470346D03*
X1471269Y1476846D03*
X1471269Y1457346D03*
X1471269Y1463846D03*
D35*
X1474019Y1442350D03*
X1474019Y1498596D03*
D36*
X1444469Y1480446D03*
X1444442Y1460698D03*
D34*
X1471269Y1483346D03*
D24*
X1726960Y1445260D03*
X1696960Y1445260D03*
D37*
X1701800Y1280160D03*
X1711960Y1280160D03*
X1722120Y1280160D03*
D38*
X2104310Y1214060D03*
X2104310Y1270060D03*
D39*
X2067560Y1227060D03*
X2067560Y1237060D03*
X2067560Y1247060D03*
X2067560Y1257060D03*
D30*
X1982110Y1248560D03*
X1982110Y1235560D03*
X2000610Y1242060D03*
D11*
X1982860Y1267460D03*
X1999860Y1267460D03*
X1982860Y1216660D03*
X1999860Y1216660D03*
D40*
X1567240Y1426210D03*
X1567240Y1438910D03*
X1567240Y1451610D03*
X1567240Y1464310D03*
X1567240Y1477010D03*
X1567240Y1489710D03*
X1567240Y1502410D03*
X1567240Y1515110D03*
X1511240Y1515110D03*
X1511240Y1502410D03*
X1511240Y1489710D03*
X1511240Y1477010D03*
X1511240Y1464310D03*
X1511240Y1451610D03*
X1511240Y1438910D03*
X1511240Y1426210D03*
D11*
X1587636Y1473962D03*
X1604636Y1473962D03*
X1605144Y1532890D03*
X1588144Y1532890D03*
D41*
X1605140Y1492692D03*
X1605140Y1516192D03*
X1587640Y1516192D03*
X1587640Y1492692D03*
D10*
X2504440Y1263260D03*
X2504440Y1246260D03*
D11*
X2436740Y1465580D03*
X2419740Y1465580D03*
X2724540Y1414780D03*
X2741540Y1414780D03*
X2436740Y1350010D03*
X2419740Y1350010D03*
D10*
X2504440Y1317160D03*
X2504440Y1300160D03*
D12*
X2366040Y1211580D03*
X2338040Y1211580D03*
D11*
X2241940Y1338580D03*
X2258940Y1338580D03*
D13*
X2364740Y1159380D03*
X2364740Y1111380D03*
D10*
X2186940Y1353430D03*
X2186940Y1336430D03*
D14*
X2202340Y1355700D03*
X2202340Y1336700D03*
X2223340Y1346200D03*
D11*
X2419740Y1370330D03*
X2436740Y1370330D03*
X2182740Y1375410D03*
X2165740Y1375410D03*
D15*
X2255240Y1270153D03*
X2255240Y1292860D03*
X2255240Y1315745D03*
D16*
X2195830Y1292860D03*
D11*
X2290690Y1249680D03*
X2273690Y1249680D03*
X2273690Y1275080D03*
X2290690Y1275080D03*
D17*
X2288540Y1102360D03*
X2809240Y1153160D03*
X2809240Y1432560D03*
X2301240Y1584960D03*
D18*
X2809240Y1191260D03*
X2263140Y1597660D03*
D11*
X2241940Y1353820D03*
X2258940Y1353820D03*
D12*
X2269520Y1375410D03*
X2241520Y1375410D03*
D19*
X2489200Y1568460D03*
X2438400Y1568460D03*
X2387600Y1568460D03*
X2514600Y1601460D03*
X2463800Y1601460D03*
X2413000Y1601460D03*
X2362200Y1601460D03*
X2336800Y1601460D03*
X2362200Y1568460D03*
X2387600Y1601460D03*
X2413000Y1568460D03*
X2438400Y1601460D03*
X2463800Y1568460D03*
X2489200Y1601460D03*
X2514600Y1568460D03*
X2336800Y1568460D03*
X2540000Y1601460D03*
X2565400Y1601460D03*
X2540000Y1568460D03*
X2565400Y1568460D03*
X2453640Y1118860D03*
X2504440Y1118860D03*
X2555240Y1118860D03*
X2428240Y1085860D03*
X2479040Y1085860D03*
X2529840Y1085860D03*
X2580640Y1085860D03*
X2606040Y1085860D03*
X2580640Y1118860D03*
X2555240Y1085860D03*
X2529840Y1118860D03*
X2504440Y1085860D03*
X2479040Y1118860D03*
X2453640Y1085860D03*
X2428240Y1118860D03*
X2606040Y1118860D03*
D20*
X2636865Y1288480D02*
X2651415Y1288480D01*
X2651415Y1300480D02*
X2636865Y1300480D01*
X2636865Y1312480D02*
X2651415Y1312480D01*
D21*
X2644165Y1300455D03*
D22*
X2796540Y1369060D03*
X2796540Y1343660D03*
D23*
X2821940Y1356360D03*
X2771140Y1356360D03*
X2771140Y1330960D03*
X2821940Y1330960D03*
X2821940Y1381760D03*
X2771140Y1381760D03*
D12*
X2338040Y1300480D03*
X2366040Y1300480D03*
D24*
X2718040Y1433830D03*
X2748040Y1433830D03*
X2413240Y1484630D03*
X2443240Y1484630D03*
D25*
X2227580Y1553210D03*
X2171700Y1553210D03*
X2227580Y1591310D03*
X2171700Y1591310D03*
D26*
X2308860Y1139280D03*
X2308860Y1182280D03*
D27*
X2203340Y1375410D03*
X2221340Y1375410D03*
D19*
X2631440Y1601460D03*
X2682240Y1601460D03*
X2733040Y1601460D03*
X2606040Y1568460D03*
X2656840Y1568460D03*
X2707640Y1568460D03*
X2758440Y1568460D03*
X2783840Y1568460D03*
X2758440Y1601460D03*
X2733040Y1568460D03*
X2707640Y1601460D03*
X2682240Y1568460D03*
X2656840Y1601460D03*
X2631440Y1568460D03*
X2606040Y1601460D03*
X2783840Y1601460D03*
X2758440Y1085860D03*
X2707640Y1085860D03*
X2656840Y1085860D03*
X2783840Y1118860D03*
X2733040Y1118860D03*
X2682240Y1118860D03*
X2656840Y1118860D03*
X2682240Y1085860D03*
X2707640Y1118860D03*
X2733040Y1085860D03*
X2758440Y1118860D03*
X2783840Y1085860D03*
D28*
X2176210Y1211270D02*
X2162110Y1211270D01*
X2162110Y1229370D01*
X2176210Y1229370D01*
X2176210Y1211270D01*
X2176210Y1218805D02*
X2162110Y1218805D01*
X2162110Y1226340D02*
X2176210Y1226340D01*
X2176210Y1097270D02*
X2162110Y1097270D01*
X2162110Y1115370D01*
X2176210Y1115370D01*
X2176210Y1097270D01*
X2176210Y1104805D02*
X2162110Y1104805D01*
X2162110Y1112340D02*
X2176210Y1112340D01*
X2223110Y1211270D02*
X2237210Y1211270D01*
X2223110Y1211270D02*
X2223110Y1229370D01*
X2237210Y1229370D01*
X2237210Y1211270D01*
X2237210Y1218805D02*
X2223110Y1218805D01*
X2223110Y1226340D02*
X2237210Y1226340D01*
X2237210Y1097270D02*
X2223110Y1097270D01*
X2223110Y1115370D01*
X2237210Y1115370D01*
X2237210Y1097270D01*
X2237210Y1104805D02*
X2223110Y1104805D01*
X2223110Y1112340D02*
X2237210Y1112340D01*
D29*
X2169160Y1163320D03*
X2214880Y1163320D03*
D30*
X2752450Y1235560D03*
X2752450Y1248560D03*
X2733950Y1242060D03*
D11*
X2751700Y1267460D03*
X2734700Y1267460D03*
X2751700Y1216660D03*
X2734700Y1216660D03*
D31*
X2610866Y1252160D03*
X2610866Y1260160D03*
X2610866Y1268160D03*
X2610866Y1276160D03*
X2610866Y1284160D03*
X2610866Y1292160D03*
X2610866Y1300160D03*
X2610866Y1308160D03*
D32*
X2595940Y1323086D03*
X2587940Y1323086D03*
X2579940Y1323086D03*
X2571940Y1323086D03*
X2563940Y1323086D03*
X2555940Y1323086D03*
X2547940Y1323086D03*
X2539940Y1323086D03*
D31*
X2525014Y1308160D03*
X2525014Y1300160D03*
X2525014Y1292160D03*
X2525014Y1284160D03*
X2525014Y1276160D03*
X2525014Y1268160D03*
X2525014Y1260160D03*
X2525014Y1252160D03*
D32*
X2539940Y1237234D03*
X2547940Y1237234D03*
X2555940Y1237234D03*
X2563940Y1237234D03*
X2571940Y1237234D03*
X2579940Y1237234D03*
X2587940Y1237234D03*
X2595940Y1237234D03*
D33*
X2339039Y1264260D03*
X2339039Y1254760D03*
X2339039Y1245260D03*
X2365041Y1245260D03*
X2365041Y1264260D03*
D11*
X2360540Y1280160D03*
X2343540Y1280160D03*
X2303154Y1454912D03*
X2320154Y1454912D03*
D24*
X2443240Y1407160D03*
X2413240Y1407160D03*
D11*
X2436740Y1388110D03*
X2419740Y1388110D03*
X2249560Y1407160D03*
X2266560Y1407160D03*
X2436740Y1426210D03*
X2419740Y1426210D03*
D34*
X2187549Y1470346D03*
X2187549Y1476846D03*
X2187549Y1457346D03*
X2187549Y1463846D03*
D35*
X2190299Y1442350D03*
X2190299Y1498596D03*
D36*
X2160749Y1480446D03*
X2160722Y1460698D03*
D34*
X2187549Y1483346D03*
D24*
X2443240Y1445260D03*
X2413240Y1445260D03*
D37*
X2418080Y1280160D03*
X2428240Y1280160D03*
X2438400Y1280160D03*
D38*
X2820590Y1214060D03*
X2820590Y1270060D03*
D39*
X2783840Y1227060D03*
X2783840Y1237060D03*
X2783840Y1247060D03*
X2783840Y1257060D03*
D30*
X2698390Y1248560D03*
X2698390Y1235560D03*
X2716890Y1242060D03*
D11*
X2699140Y1267460D03*
X2716140Y1267460D03*
X2699140Y1216660D03*
X2716140Y1216660D03*
D40*
X2283520Y1426210D03*
X2283520Y1438910D03*
X2283520Y1451610D03*
X2283520Y1464310D03*
X2283520Y1477010D03*
X2283520Y1489710D03*
X2283520Y1502410D03*
X2283520Y1515110D03*
X2227520Y1515110D03*
X2227520Y1502410D03*
X2227520Y1489710D03*
X2227520Y1477010D03*
X2227520Y1464310D03*
X2227520Y1451610D03*
X2227520Y1438910D03*
X2227520Y1426210D03*
D11*
X2303916Y1473962D03*
X2320916Y1473962D03*
X2321424Y1532890D03*
X2304424Y1532890D03*
D41*
X2321420Y1492692D03*
X2321420Y1516192D03*
X2303920Y1516192D03*
X2303920Y1492692D03*
D10*
X3220720Y1263260D03*
X3220720Y1246260D03*
D11*
X3153020Y1465580D03*
X3136020Y1465580D03*
X3440820Y1414780D03*
X3457820Y1414780D03*
X3153020Y1350010D03*
X3136020Y1350010D03*
D10*
X3220720Y1317160D03*
X3220720Y1300160D03*
D12*
X3082320Y1211580D03*
X3054320Y1211580D03*
D11*
X2958220Y1338580D03*
X2975220Y1338580D03*
D13*
X3081020Y1159380D03*
X3081020Y1111380D03*
D10*
X2903220Y1353430D03*
X2903220Y1336430D03*
D14*
X2918620Y1355700D03*
X2918620Y1336700D03*
X2939620Y1346200D03*
D11*
X3136020Y1370330D03*
X3153020Y1370330D03*
X2899020Y1375410D03*
X2882020Y1375410D03*
D15*
X2971520Y1270153D03*
X2971520Y1292860D03*
X2971520Y1315745D03*
D16*
X2912110Y1292860D03*
D11*
X3006970Y1249680D03*
X2989970Y1249680D03*
X2989970Y1275080D03*
X3006970Y1275080D03*
D17*
X3004820Y1102360D03*
X3525520Y1153160D03*
X3525520Y1432560D03*
X3017520Y1584960D03*
D18*
X3525520Y1191260D03*
X2979420Y1597660D03*
D11*
X2958220Y1353820D03*
X2975220Y1353820D03*
D12*
X2985800Y1375410D03*
X2957800Y1375410D03*
D19*
X3205480Y1568460D03*
X3154680Y1568460D03*
X3103880Y1568460D03*
X3230880Y1601460D03*
X3180080Y1601460D03*
X3129280Y1601460D03*
X3078480Y1601460D03*
X3053080Y1601460D03*
X3078480Y1568460D03*
X3103880Y1601460D03*
X3129280Y1568460D03*
X3154680Y1601460D03*
X3180080Y1568460D03*
X3205480Y1601460D03*
X3230880Y1568460D03*
X3053080Y1568460D03*
X3256280Y1601460D03*
X3281680Y1601460D03*
X3256280Y1568460D03*
X3281680Y1568460D03*
X3169920Y1118860D03*
X3220720Y1118860D03*
X3271520Y1118860D03*
X3144520Y1085860D03*
X3195320Y1085860D03*
X3246120Y1085860D03*
X3296920Y1085860D03*
X3322320Y1085860D03*
X3296920Y1118860D03*
X3271520Y1085860D03*
X3246120Y1118860D03*
X3220720Y1085860D03*
X3195320Y1118860D03*
X3169920Y1085860D03*
X3144520Y1118860D03*
X3322320Y1118860D03*
D20*
X3353145Y1288480D02*
X3367695Y1288480D01*
X3367695Y1300480D02*
X3353145Y1300480D01*
X3353145Y1312480D02*
X3367695Y1312480D01*
D21*
X3360445Y1300455D03*
D22*
X3512820Y1369060D03*
X3512820Y1343660D03*
D23*
X3538220Y1356360D03*
X3487420Y1356360D03*
X3487420Y1330960D03*
X3538220Y1330960D03*
X3538220Y1381760D03*
X3487420Y1381760D03*
D12*
X3054320Y1300480D03*
X3082320Y1300480D03*
D24*
X3434320Y1433830D03*
X3464320Y1433830D03*
X3129520Y1484630D03*
X3159520Y1484630D03*
D25*
X2943860Y1553210D03*
X2887980Y1553210D03*
X2943860Y1591310D03*
X2887980Y1591310D03*
D26*
X3025140Y1139280D03*
X3025140Y1182280D03*
D27*
X2919620Y1375410D03*
X2937620Y1375410D03*
D19*
X3347720Y1601460D03*
X3398520Y1601460D03*
X3449320Y1601460D03*
X3322320Y1568460D03*
X3373120Y1568460D03*
X3423920Y1568460D03*
X3474720Y1568460D03*
X3500120Y1568460D03*
X3474720Y1601460D03*
X3449320Y1568460D03*
X3423920Y1601460D03*
X3398520Y1568460D03*
X3373120Y1601460D03*
X3347720Y1568460D03*
X3322320Y1601460D03*
X3500120Y1601460D03*
X3474720Y1085860D03*
X3423920Y1085860D03*
X3373120Y1085860D03*
X3500120Y1118860D03*
X3449320Y1118860D03*
X3398520Y1118860D03*
X3373120Y1118860D03*
X3398520Y1085860D03*
X3423920Y1118860D03*
X3449320Y1085860D03*
X3474720Y1118860D03*
X3500120Y1085860D03*
D28*
X2892490Y1211270D02*
X2878390Y1211270D01*
X2878390Y1229370D01*
X2892490Y1229370D01*
X2892490Y1211270D01*
X2892490Y1218805D02*
X2878390Y1218805D01*
X2878390Y1226340D02*
X2892490Y1226340D01*
X2892490Y1097270D02*
X2878390Y1097270D01*
X2878390Y1115370D01*
X2892490Y1115370D01*
X2892490Y1097270D01*
X2892490Y1104805D02*
X2878390Y1104805D01*
X2878390Y1112340D02*
X2892490Y1112340D01*
X2939390Y1211270D02*
X2953490Y1211270D01*
X2939390Y1211270D02*
X2939390Y1229370D01*
X2953490Y1229370D01*
X2953490Y1211270D01*
X2953490Y1218805D02*
X2939390Y1218805D01*
X2939390Y1226340D02*
X2953490Y1226340D01*
X2953490Y1097270D02*
X2939390Y1097270D01*
X2939390Y1115370D01*
X2953490Y1115370D01*
X2953490Y1097270D01*
X2953490Y1104805D02*
X2939390Y1104805D01*
X2939390Y1112340D02*
X2953490Y1112340D01*
D29*
X2885440Y1163320D03*
X2931160Y1163320D03*
D30*
X3468730Y1235560D03*
X3468730Y1248560D03*
X3450230Y1242060D03*
D11*
X3467980Y1267460D03*
X3450980Y1267460D03*
X3467980Y1216660D03*
X3450980Y1216660D03*
D31*
X3327146Y1252160D03*
X3327146Y1260160D03*
X3327146Y1268160D03*
X3327146Y1276160D03*
X3327146Y1284160D03*
X3327146Y1292160D03*
X3327146Y1300160D03*
X3327146Y1308160D03*
D32*
X3312220Y1323086D03*
X3304220Y1323086D03*
X3296220Y1323086D03*
X3288220Y1323086D03*
X3280220Y1323086D03*
X3272220Y1323086D03*
X3264220Y1323086D03*
X3256220Y1323086D03*
D31*
X3241294Y1308160D03*
X3241294Y1300160D03*
X3241294Y1292160D03*
X3241294Y1284160D03*
X3241294Y1276160D03*
X3241294Y1268160D03*
X3241294Y1260160D03*
X3241294Y1252160D03*
D32*
X3256220Y1237234D03*
X3264220Y1237234D03*
X3272220Y1237234D03*
X3280220Y1237234D03*
X3288220Y1237234D03*
X3296220Y1237234D03*
X3304220Y1237234D03*
X3312220Y1237234D03*
D33*
X3055319Y1264260D03*
X3055319Y1254760D03*
X3055319Y1245260D03*
X3081321Y1245260D03*
X3081321Y1264260D03*
D11*
X3076820Y1280160D03*
X3059820Y1280160D03*
X3019434Y1454912D03*
X3036434Y1454912D03*
D24*
X3159520Y1407160D03*
X3129520Y1407160D03*
D11*
X3153020Y1388110D03*
X3136020Y1388110D03*
X2965840Y1407160D03*
X2982840Y1407160D03*
X3153020Y1426210D03*
X3136020Y1426210D03*
D34*
X2903829Y1470346D03*
X2903829Y1476846D03*
X2903829Y1457346D03*
X2903829Y1463846D03*
D35*
X2906579Y1442350D03*
X2906579Y1498596D03*
D36*
X2877029Y1480446D03*
X2877002Y1460698D03*
D34*
X2903829Y1483346D03*
D24*
X3159520Y1445260D03*
X3129520Y1445260D03*
D37*
X3134360Y1280160D03*
X3144520Y1280160D03*
X3154680Y1280160D03*
D38*
X3536870Y1214060D03*
X3536870Y1270060D03*
D39*
X3500120Y1227060D03*
X3500120Y1237060D03*
X3500120Y1247060D03*
X3500120Y1257060D03*
D30*
X3414670Y1248560D03*
X3414670Y1235560D03*
X3433170Y1242060D03*
D11*
X3415420Y1267460D03*
X3432420Y1267460D03*
X3415420Y1216660D03*
X3432420Y1216660D03*
D40*
X2999800Y1426210D03*
X2999800Y1438910D03*
X2999800Y1451610D03*
X2999800Y1464310D03*
X2999800Y1477010D03*
X2999800Y1489710D03*
X2999800Y1502410D03*
X2999800Y1515110D03*
X2943800Y1515110D03*
X2943800Y1502410D03*
X2943800Y1489710D03*
X2943800Y1477010D03*
X2943800Y1464310D03*
X2943800Y1451610D03*
X2943800Y1438910D03*
X2943800Y1426210D03*
D11*
X3020196Y1473962D03*
X3037196Y1473962D03*
X3037704Y1532890D03*
X3020704Y1532890D03*
D41*
X3037700Y1492692D03*
X3037700Y1516192D03*
X3020200Y1516192D03*
X3020200Y1492692D03*
D18*
X93980Y1631315D03*
X3532505Y1631315D03*
D42*
X84925Y-20955D02*
X84928Y-20733D01*
X84936Y-20511D01*
X84950Y-20289D01*
X84969Y-20067D01*
X84993Y-19847D01*
X85023Y-19626D01*
X85058Y-19407D01*
X85099Y-19188D01*
X85145Y-18971D01*
X85196Y-18755D01*
X85253Y-18540D01*
X85315Y-18326D01*
X85382Y-18115D01*
X85454Y-17904D01*
X85532Y-17696D01*
X85614Y-17490D01*
X85702Y-17286D01*
X85794Y-17083D01*
X85892Y-16884D01*
X85994Y-16687D01*
X86101Y-16492D01*
X86213Y-16300D01*
X86330Y-16111D01*
X86451Y-15924D01*
X86577Y-15741D01*
X86707Y-15561D01*
X86842Y-15384D01*
X86980Y-15211D01*
X87123Y-15041D01*
X87271Y-14874D01*
X87422Y-14711D01*
X87577Y-14552D01*
X87736Y-14397D01*
X87899Y-14246D01*
X88066Y-14098D01*
X88236Y-13955D01*
X88409Y-13817D01*
X88586Y-13682D01*
X88766Y-13552D01*
X88949Y-13426D01*
X89136Y-13305D01*
X89325Y-13188D01*
X89517Y-13076D01*
X89712Y-12969D01*
X89909Y-12867D01*
X90108Y-12769D01*
X90311Y-12677D01*
X90515Y-12589D01*
X90721Y-12507D01*
X90929Y-12429D01*
X91140Y-12357D01*
X91351Y-12290D01*
X91565Y-12228D01*
X91780Y-12171D01*
X91996Y-12120D01*
X92213Y-12074D01*
X92432Y-12033D01*
X92651Y-11998D01*
X92872Y-11968D01*
X93092Y-11944D01*
X93314Y-11925D01*
X93536Y-11911D01*
X93758Y-11903D01*
X93980Y-11900D01*
X94202Y-11903D01*
X94424Y-11911D01*
X94646Y-11925D01*
X94868Y-11944D01*
X95088Y-11968D01*
X95309Y-11998D01*
X95528Y-12033D01*
X95747Y-12074D01*
X95964Y-12120D01*
X96180Y-12171D01*
X96395Y-12228D01*
X96609Y-12290D01*
X96820Y-12357D01*
X97031Y-12429D01*
X97239Y-12507D01*
X97445Y-12589D01*
X97649Y-12677D01*
X97852Y-12769D01*
X98051Y-12867D01*
X98248Y-12969D01*
X98443Y-13076D01*
X98635Y-13188D01*
X98824Y-13305D01*
X99011Y-13426D01*
X99194Y-13552D01*
X99374Y-13682D01*
X99551Y-13817D01*
X99724Y-13955D01*
X99894Y-14098D01*
X100061Y-14246D01*
X100224Y-14397D01*
X100383Y-14552D01*
X100538Y-14711D01*
X100689Y-14874D01*
X100837Y-15041D01*
X100980Y-15211D01*
X101118Y-15384D01*
X101253Y-15561D01*
X101383Y-15741D01*
X101509Y-15924D01*
X101630Y-16111D01*
X101747Y-16300D01*
X101859Y-16492D01*
X101966Y-16687D01*
X102068Y-16884D01*
X102166Y-17083D01*
X102258Y-17286D01*
X102346Y-17490D01*
X102428Y-17696D01*
X102506Y-17904D01*
X102578Y-18115D01*
X102645Y-18326D01*
X102707Y-18540D01*
X102764Y-18755D01*
X102815Y-18971D01*
X102861Y-19188D01*
X102902Y-19407D01*
X102937Y-19626D01*
X102967Y-19847D01*
X102991Y-20067D01*
X103010Y-20289D01*
X103024Y-20511D01*
X103032Y-20733D01*
X103035Y-20955D01*
X103032Y-21177D01*
X103024Y-21399D01*
X103010Y-21621D01*
X102991Y-21843D01*
X102967Y-22063D01*
X102937Y-22284D01*
X102902Y-22503D01*
X102861Y-22722D01*
X102815Y-22939D01*
X102764Y-23155D01*
X102707Y-23370D01*
X102645Y-23584D01*
X102578Y-23795D01*
X102506Y-24006D01*
X102428Y-24214D01*
X102346Y-24420D01*
X102258Y-24624D01*
X102166Y-24827D01*
X102068Y-25026D01*
X101966Y-25223D01*
X101859Y-25418D01*
X101747Y-25610D01*
X101630Y-25799D01*
X101509Y-25986D01*
X101383Y-26169D01*
X101253Y-26349D01*
X101118Y-26526D01*
X100980Y-26699D01*
X100837Y-26869D01*
X100689Y-27036D01*
X100538Y-27199D01*
X100383Y-27358D01*
X100224Y-27513D01*
X100061Y-27664D01*
X99894Y-27812D01*
X99724Y-27955D01*
X99551Y-28093D01*
X99374Y-28228D01*
X99194Y-28358D01*
X99011Y-28484D01*
X98824Y-28605D01*
X98635Y-28722D01*
X98443Y-28834D01*
X98248Y-28941D01*
X98051Y-29043D01*
X97852Y-29141D01*
X97649Y-29233D01*
X97445Y-29321D01*
X97239Y-29403D01*
X97031Y-29481D01*
X96820Y-29553D01*
X96609Y-29620D01*
X96395Y-29682D01*
X96180Y-29739D01*
X95964Y-29790D01*
X95747Y-29836D01*
X95528Y-29877D01*
X95309Y-29912D01*
X95088Y-29942D01*
X94868Y-29966D01*
X94646Y-29985D01*
X94424Y-29999D01*
X94202Y-30007D01*
X93980Y-30010D01*
X93758Y-30007D01*
X93536Y-29999D01*
X93314Y-29985D01*
X93092Y-29966D01*
X92872Y-29942D01*
X92651Y-29912D01*
X92432Y-29877D01*
X92213Y-29836D01*
X91996Y-29790D01*
X91780Y-29739D01*
X91565Y-29682D01*
X91351Y-29620D01*
X91140Y-29553D01*
X90929Y-29481D01*
X90721Y-29403D01*
X90515Y-29321D01*
X90311Y-29233D01*
X90108Y-29141D01*
X89909Y-29043D01*
X89712Y-28941D01*
X89517Y-28834D01*
X89325Y-28722D01*
X89136Y-28605D01*
X88949Y-28484D01*
X88766Y-28358D01*
X88586Y-28228D01*
X88409Y-28093D01*
X88236Y-27955D01*
X88066Y-27812D01*
X87899Y-27664D01*
X87736Y-27513D01*
X87577Y-27358D01*
X87422Y-27199D01*
X87271Y-27036D01*
X87123Y-26869D01*
X86980Y-26699D01*
X86842Y-26526D01*
X86707Y-26349D01*
X86577Y-26169D01*
X86451Y-25986D01*
X86330Y-25799D01*
X86213Y-25610D01*
X86101Y-25418D01*
X85994Y-25223D01*
X85892Y-25026D01*
X85794Y-24827D01*
X85702Y-24624D01*
X85614Y-24420D01*
X85532Y-24214D01*
X85454Y-24006D01*
X85382Y-23795D01*
X85315Y-23584D01*
X85253Y-23370D01*
X85196Y-23155D01*
X85145Y-22939D01*
X85099Y-22722D01*
X85058Y-22503D01*
X85023Y-22284D01*
X84993Y-22063D01*
X84969Y-21843D01*
X84950Y-21621D01*
X84936Y-21399D01*
X84928Y-21177D01*
X84925Y-20955D01*
D43*
X93980Y-20955D03*
M02*
