M48
;GenerationSoftware,Autodesk,EAGLE,9.6.2*%
;CreationDate,2020-09-04T21:03:39Z*%
FMAT,2
ICI,OFF
METRIC,TZ,000.000
T4C0.381
T3C1.800
T2C2.032
T1C3.302
%
G90
M71
T1
X280924Y89408
X13970Y2540
X66040Y7620
X66040Y35560
X15240Y50800
X137668Y115316
X85598Y110236
X209296Y89408
X157226Y56388
X85598Y2540
X137668Y7620
X137668Y35560
X86868Y50800
X15240Y158496
X66040Y143256
X352552Y89408
X85598Y56388
X157226Y2540
X209296Y7620
X209296Y35560
X158496Y50800
X66040Y115316
X13970Y110236
X137668Y61468
X137668Y89408
X228854Y2540
X280924Y7620
X280924Y35560
X230124Y50800
X301752Y104648
X352552Y61468
X86868Y104648
X280924Y61468
X300482Y2540
X352552Y7620
X352552Y35560
X301752Y50800
X300482Y56388
X230124Y104648
X228854Y56388
X209296Y61468
X13970Y56388
X66040Y61468
X66040Y89408
X15240Y104648
X158496Y104648
X137668Y143256
X86868Y158496
X157226Y110236
X209296Y115316
X209296Y143256
X158496Y158496
X228854Y110236
X280924Y115316
X280924Y143256
X230124Y158496
X300482Y110236
X352552Y115316
X352552Y143256
X301752Y158496
T2
X73660Y8636
X145288Y62484
X149860Y62484
X216916Y62484
X221488Y62484
X288544Y62484
X293116Y62484
X2032Y116332
X6604Y116332
X293116Y116332
X2032Y8636
X73660Y116332
X78232Y116332
X6604Y8636
X78232Y8636
X145288Y8636
X149860Y8636
X145288Y116332
X149860Y116332
X216916Y8636
X221488Y8636
X288544Y8636
X293116Y8636
X216916Y116332
X221488Y116332
X2032Y62484
X6604Y62484
X73660Y62484
X78232Y62484
X288544Y116332
T3
X64770Y29210
X279654Y83058
X279654Y80518
X136398Y136906
X136398Y134366
X208026Y83058
X208026Y80518
X351282Y29210
X279654Y26670
X64770Y83058
X279654Y29210
X208026Y136906
X208026Y134366
X351282Y83058
X351282Y80518
X136398Y80518
X136398Y83058
X208026Y26670
X208026Y29210
X279654Y136906
X279654Y134366
X136398Y26670
X136398Y29210
X64770Y136906
X64770Y134366
X64770Y80518
X351282Y26670
X351282Y136906
X351282Y134366
X64770Y26670
T4
X137668Y25400
X77978Y33020
X85598Y29845
X85598Y32893
X84328Y26670
X81280Y35560
X81788Y45720
X90805Y38354
X95377Y13462
X107188Y15240
X110998Y19812
X88875Y46787
X90068Y43358
X86157Y40615
X113938Y18269
X104648Y22860
X100838Y25400
X135128Y25400
X123698Y13970
X127508Y21590
X95758Y39370
X97536Y42418
X105918Y25781
X105918Y8890
X95758Y20320
X137668Y16510
X100825Y7099
X113525Y7099
X77597Y41529
X75057Y31115
X76581Y3429
X72517Y26543
X119399Y19920
X127508Y22860
X137668Y30480
X112268Y21590
X103378Y21590
X129286Y15240
X97409Y34925
X97218Y27876
X97409Y31115
X72898Y43942
X75819Y43942
X72898Y34798
X124968Y13970
X133858Y13970
X166624Y34544
X205486Y50800
X165202Y36830
X202946Y50800
X186944Y18066
X190246Y25527
X168148Y41402
X202946Y2667
X165989Y42291
X205486Y2540
X182753Y26543
X209296Y27940
X180594Y27432
X206756Y30480
X180873Y24917
X206756Y27940
X145796Y21729
X148336Y24269
X148336Y19189
X145796Y19824
X180086Y2540
X160528Y18034
X167386Y10160
X148336Y49530
X208026Y39370
X183896Y17780
X191008Y18542
X185166Y2667
X170942Y50800
X186690Y20955
X192786Y25400
X178943Y25400
X145288Y5207
X172466Y44450
X210566Y22860
X161036Y19812
X160655Y15240
X209296Y25400
X149606Y33020
X157226Y29845
X157226Y32893
X155956Y26670
X152908Y35560
X153416Y45720
X162433Y38354
X167005Y13462
X178816Y15240
X182626Y19812
X160503Y46787
X161696Y43358
X157785Y40615
X185566Y18269
X176276Y22860
X172466Y25400
X206756Y25400
X195326Y13970
X199136Y21590
X167386Y39370
X169164Y42418
X177546Y25781
X177546Y8890
X167386Y20320
X209296Y16510
X172453Y7099
X185153Y7099
X149225Y41529
X146685Y31115
X148209Y3429
X144145Y26543
X191027Y19920
X199136Y22860
X209296Y30480
X183896Y21590
X175006Y21590
X200914Y15240
X169037Y34925
X168847Y27876
X169037Y31115
X144526Y43942
X147447Y43942
X144526Y34798
X196596Y13970
X205486Y13970
X238252Y34544
X277114Y50800
X236830Y36830
X274574Y50800
X258572Y18066
X261874Y25527
X239776Y41402
X274574Y2667
X237617Y42291
X277114Y2540
X254381Y26543
X280924Y27940
X252222Y27432
X278384Y30480
X252501Y24917
X278384Y27940
X217424Y21729
X219964Y24269
X219964Y19189
X217424Y19824
X251714Y2540
X232156Y18034
X239014Y10160
X219964Y49530
X279654Y39370
X255524Y17780
X262636Y18542
X256794Y2667
X242570Y50800
X258318Y20955
X264414Y25400
X250571Y25400
X216916Y5207
X244094Y44450
X282194Y22860
X232664Y19812
X232283Y15240
X280924Y25400
X221234Y33020
X228854Y29845
X228854Y32893
X227584Y26670
X224536Y35560
X225044Y45720
X234061Y38354
X238633Y13462
X250444Y15240
X254254Y19812
X232131Y46787
X233324Y43358
X229413Y40615
X257194Y18269
X247904Y22860
X244094Y25400
X278384Y25400
X266954Y13970
X270764Y21590
X239014Y39370
X240792Y42418
X249174Y25781
X249174Y8890
X239014Y20320
X280924Y16510
X244081Y7099
X256781Y7099
X220853Y41529
X218313Y31115
X219837Y3429
X215773Y26543
X262655Y19920
X270764Y22860
X280924Y30480
X255524Y21590
X246634Y21590
X272542Y15240
X240665Y34925
X240474Y27876
X240665Y31115
X216154Y43942
X219075Y43942
X216154Y34798
X268224Y13970
X277114Y13970
X309880Y34544
X348742Y50800
X308458Y36830
X346202Y50800
X330200Y18066
X333502Y25527
X311404Y41402
X346202Y2667
X309245Y42291
X348742Y2540
X326009Y26543
X352552Y27940
X323850Y27432
X350012Y30480
X324129Y24917
X350012Y27940
X289052Y21729
X291592Y24269
X291592Y19189
X289052Y19824
X323342Y2540
X303784Y18034
X310642Y10160
X291592Y49530
X351282Y39370
X327152Y17780
X334264Y18542
X328422Y2667
X314198Y50800
X329946Y20955
X336042Y25400
X322199Y25400
X288544Y5207
X315722Y44450
X353822Y22860
X304292Y19812
X303911Y15240
X352552Y25400
X292862Y33020
X300482Y29845
X300482Y32893
X299212Y26670
X296164Y35560
X296672Y45720
X305689Y38354
X310261Y13462
X322072Y15240
X325882Y19812
X303759Y46787
X304952Y43358
X301041Y40615
X328822Y18269
X319532Y22860
X315722Y25400
X350012Y25400
X338582Y13970
X342392Y21590
X310642Y39370
X312420Y42418
X320802Y25781
X320802Y8890
X310642Y20320
X352552Y16510
X315709Y7099
X328409Y7099
X292481Y41529
X289941Y31115
X291465Y3429
X287401Y26543
X334283Y19920
X342392Y22860
X352552Y30480
X327152Y21590
X318262Y21590
X344170Y15240
X312293Y34925
X312103Y27876
X312293Y31115
X287782Y43942
X290703Y43942
X287782Y34798
X339852Y13970
X348742Y13970
X23368Y88392
X62230Y104648
X21946Y90678
X59690Y104648
X43688Y71914
X46990Y79375
X24892Y95250
X59690Y56515
X22733Y96139
X62230Y56388
X39497Y80391
X66040Y81788
X37338Y81280
X63500Y84328
X37617Y78765
X63500Y81788
X2540Y75577
X5080Y78117
X5080Y73037
X2540Y73672
X36830Y56388
X17272Y71882
X24130Y64008
X5080Y103378
X64770Y93218
X40640Y71628
X47752Y72390
X41910Y56515
X27686Y104648
X43434Y74803
X49530Y79248
X35687Y79248
X2032Y59055
X29210Y98298
X67310Y76708
X17780Y73660
X17399Y69088
X66040Y79248
X6350Y86868
X13970Y83693
X13970Y86741
X12700Y80518
X9652Y89408
X10160Y99568
X19177Y92202
X23749Y67310
X35560Y69088
X39370Y73660
X17247Y100635
X18440Y97206
X14529Y94463
X42310Y72117
X33020Y76708
X29210Y79248
X63500Y79248
X52070Y67818
X55880Y75438
X24130Y93218
X25908Y96266
X34290Y79629
X34290Y62738
X24130Y74168
X66040Y70358
X29197Y60947
X41897Y60947
X5969Y95377
X3429Y84963
X4953Y57277
X889Y80391
X47771Y73768
X55880Y76708
X66040Y84328
X40640Y75438
X31750Y75438
X57658Y69088
X25781Y88773
X25590Y81725
X25781Y84963
X1270Y97790
X4191Y97790
X1270Y88646
X53340Y67818
X62230Y67818
X94996Y88392
X133858Y104648
X93574Y90678
X131318Y104648
X115316Y71914
X118618Y79375
X96520Y95250
X131318Y56515
X94361Y96139
X133858Y56388
X111125Y80391
X137668Y81788
X108966Y81280
X135128Y84328
X109245Y78765
X135128Y81788
X74168Y75577
X76708Y78117
X76708Y73037
X74168Y73672
X108458Y56388
X88900Y71882
X95758Y64008
X76708Y103378
X136398Y93218
X112268Y71628
X119380Y72390
X113538Y56515
X99314Y104648
X115062Y74803
X121158Y79248
X107315Y79248
X73660Y59055
X100838Y98298
X138938Y76708
X89408Y73660
X89027Y69088
X137668Y79248
X77978Y86868
X85598Y83693
X85598Y86741
X84328Y80518
X81280Y89408
X81788Y99568
X90805Y92202
X95377Y67310
X107188Y69088
X110998Y73660
X88875Y100635
X90068Y97206
X86157Y94463
X113938Y72117
X104648Y76708
X100838Y79248
X135128Y79248
X123698Y67818
X127508Y75438
X95758Y93218
X97536Y96266
X105918Y79629
X105918Y62738
X95758Y74168
X137668Y70358
X100825Y60947
X113525Y60947
X77597Y95377
X75057Y84963
X76581Y57277
X72517Y80391
X119399Y73768
X127508Y76708
X137668Y84328
X112268Y75438
X103378Y75438
X129286Y69088
X97409Y88773
X97218Y81725
X97409Y84963
X72898Y97790
X75819Y97790
X72898Y88646
X124968Y67818
X133858Y67818
X166624Y88392
X205486Y104648
X165202Y90678
X202946Y104648
X186944Y71914
X190246Y79375
X168148Y95250
X202946Y56515
X165989Y96139
X205486Y56388
X182753Y80391
X209296Y81788
X180594Y81280
X206756Y84328
X180873Y78765
X206756Y81788
X145796Y75577
X148336Y78117
X148336Y73037
X145796Y73672
X180086Y56388
X160528Y71882
X167386Y64008
X148336Y103378
X208026Y93218
X183896Y71628
X191008Y72390
X185166Y56515
X170942Y104648
X186690Y74803
X192786Y79248
X178943Y79248
X145288Y59055
X172466Y98298
X210566Y76708
X161036Y73660
X160655Y69088
X209296Y79248
X149606Y86868
X157226Y83693
X157226Y86741
X155956Y80518
X152908Y89408
X153416Y99568
X162433Y92202
X167005Y67310
X178816Y69088
X182626Y73660
X160503Y100635
X161696Y97206
X157785Y94463
X185566Y72117
X176276Y76708
X172466Y79248
X206756Y79248
X195326Y67818
X199136Y75438
X167386Y93218
X169164Y96266
X177546Y79629
X177546Y62738
X167386Y74168
X209296Y70358
X172453Y60947
X185153Y60947
X149225Y95377
X146685Y84963
X148209Y57277
X144145Y80391
X191027Y73768
X199136Y76708
X209296Y84328
X183896Y75438
X175006Y75438
X200914Y69088
X169037Y88773
X168847Y81725
X169037Y84963
X144526Y97790
X147447Y97790
X144526Y88646
X196596Y67818
X205486Y67818
X238252Y88392
X277114Y104648
X236830Y90678
X274574Y104648
X258572Y71914
X261874Y79375
X239776Y95250
X274574Y56515
X237617Y96139
X277114Y56388
X254381Y80391
X280924Y81788
X252222Y81280
X278384Y84328
X252501Y78765
X278384Y81788
X217424Y75577
X219964Y78117
X219964Y73037
X217424Y73672
X251714Y56388
X232156Y71882
X239014Y64008
X219964Y103378
X279654Y93218
X255524Y71628
X262636Y72390
X256794Y56515
X242570Y104648
X258318Y74803
X264414Y79248
X250571Y79248
X216916Y59055
X244094Y98298
X282194Y76708
X232664Y73660
X232283Y69088
X280924Y79248
X221234Y86868
X228854Y83693
X228854Y86741
X227584Y80518
X224536Y89408
X225044Y99568
X234061Y92202
X238633Y67310
X250444Y69088
X254254Y73660
X232131Y100635
X233324Y97206
X229413Y94463
X257194Y72117
X247904Y76708
X244094Y79248
X278384Y79248
X266954Y67818
X270764Y75438
X239014Y93218
X240792Y96266
X249174Y79629
X249174Y62738
X239014Y74168
X280924Y70358
X244081Y60947
X256781Y60947
X220853Y95377
X218313Y84963
X219837Y57277
X215773Y80391
X262655Y73768
X270764Y76708
X280924Y84328
X255524Y75438
X246634Y75438
X272542Y69088
X240665Y88773
X240474Y81725
X240665Y84963
X216154Y97790
X219075Y97790
X216154Y88646
X268224Y67818
X277114Y67818
X309880Y88392
X348742Y104648
X308458Y90678
X346202Y104648
X330200Y71914
X333502Y79375
X311404Y95250
X346202Y56515
X309245Y96139
X348742Y56388
X326009Y80391
X352552Y81788
X323850Y81280
X350012Y84328
X324129Y78765
X350012Y81788
X289052Y75577
X291592Y78117
X291592Y73037
X289052Y73672
X323342Y56388
X303784Y71882
X310642Y64008
X291592Y103378
X351282Y93218
X327152Y71628
X334264Y72390
X328422Y56515
X314198Y104648
X329946Y74803
X336042Y79248
X322199Y79248
X288544Y59055
X315722Y98298
X353822Y76708
X304292Y73660
X303911Y69088
X352552Y79248
X292862Y86868
X300482Y83693
X300482Y86741
X299212Y80518
X296164Y89408
X296672Y99568
X305689Y92202
X310261Y67310
X322072Y69088
X325882Y73660
X303759Y100635
X304952Y97206
X301041Y94463
X328822Y72117
X319532Y76708
X315722Y79248
X350012Y79248
X338582Y67818
X342392Y75438
X310642Y93218
X312420Y96266
X320802Y79629
X320802Y62738
X310642Y74168
X352552Y70358
X315709Y60947
X328409Y60947
X292481Y95377
X289941Y84963
X291465Y57277
X287401Y80391
X334283Y73768
X342392Y76708
X352552Y84328
X327152Y75438
X318262Y75438
X344170Y69088
X312293Y88773
X312103Y81725
X312293Y84963
X287782Y97790
X290703Y97790
X287782Y88646
X339852Y67818
X348742Y67818
X23368Y142240
X62230Y158496
X21946Y144526
X59690Y158496
X43688Y125762
X46990Y133223
X24892Y149098
X59690Y110363
X22733Y149987
X62230Y110236
X39497Y134239
X66040Y135636
X37338Y135128
X63500Y138176
X37617Y132613
X63500Y135636
X2540Y129425
X5080Y131965
X5080Y126885
X2540Y127520
X36830Y110236
X17272Y125730
X24130Y117856
X5080Y157226
X64770Y147066
X40640Y125476
X47752Y126238
X41910Y110363
X27686Y158496
X43434Y128651
X49530Y133096
X35687Y133096
X2032Y112903
X29210Y152146
X67310Y130556
X17780Y127508
X17399Y122936
X66040Y133096
X6350Y140716
X13970Y137541
X13970Y140589
X12700Y134366
X9652Y143256
X10160Y153416
X19177Y146050
X23749Y121158
X35560Y122936
X39370Y127508
X17247Y154483
X18440Y151054
X14529Y148311
X42310Y125965
X33020Y130556
X29210Y133096
X63500Y133096
X52070Y121666
X55880Y129286
X24130Y147066
X25908Y150114
X34290Y133477
X34290Y116586
X24130Y128016
X66040Y124206
X29197Y114795
X41897Y114795
X5969Y149225
X3429Y138811
X4953Y111125
X889Y134239
X47771Y127616
X55880Y130556
X66040Y138176
X40640Y129286
X31750Y129286
X57658Y122936
X25781Y142621
X25590Y135573
X25781Y138811
X1270Y151638
X4191Y151638
X1270Y142494
X53340Y121666
X62230Y121666
X94996Y142240
X133858Y158496
X93574Y144526
X131318Y158496
X115316Y125762
X118618Y133223
X96520Y149098
X131318Y110363
X94361Y149987
X133858Y110236
X111125Y134239
X137668Y135636
X108966Y135128
X135128Y138176
X109245Y132613
X135128Y135636
X74168Y129425
X76708Y131965
X76708Y126885
X74168Y127520
X108458Y110236
X88900Y125730
X95758Y117856
X76708Y157226
X136398Y147066
X112268Y125476
X119380Y126238
X113538Y110363
X99314Y158496
X115062Y128651
X121158Y133096
X107315Y133096
X73660Y112903
X100838Y152146
X138938Y130556
X89408Y127508
X89027Y122936
X137668Y133096
X77978Y140716
X85598Y137541
X85598Y140589
X84328Y134366
X81280Y143256
X81788Y153416
X90805Y146050
X95377Y121158
X107188Y122936
X110998Y127508
X88875Y154483
X90068Y151054
X86157Y148311
X113938Y125965
X104648Y130556
X100838Y133096
X135128Y133096
X123698Y121666
X127508Y129286
X95758Y147066
X97536Y150114
X105918Y133477
X105918Y116586
X95758Y128016
X137668Y124206
X100825Y114795
X113525Y114795
X77597Y149225
X75057Y138811
X76581Y111125
X72517Y134239
X119399Y127616
X127508Y130556
X137668Y138176
X112268Y129286
X103378Y129286
X129286Y122936
X97409Y142621
X97218Y135573
X97409Y138811
X72898Y151638
X75819Y151638
X72898Y142494
X124968Y121666
X133858Y121666
X166624Y142240
X205486Y158496
X165202Y144526
X202946Y158496
X186944Y125762
X190246Y133223
X168148Y149098
X202946Y110363
X165989Y149987
X205486Y110236
X182753Y134239
X209296Y135636
X180594Y135128
X206756Y138176
X180873Y132613
X206756Y135636
X145796Y129425
X148336Y131965
X148336Y126885
X145796Y127520
X180086Y110236
X160528Y125730
X167386Y117856
X148336Y157226
X208026Y147066
X183896Y125476
X191008Y126238
X185166Y110363
X23368Y34544
X186690Y128651
X192786Y133096
X178943Y133096
X145288Y112903
X172466Y152146
X210566Y130556
X161036Y127508
X160655Y122936
X209296Y133096
X149606Y140716
X157226Y137541
X157226Y140589
X155956Y134366
X152908Y143256
X153416Y153416
X162433Y146050
X167005Y121158
X178816Y122936
X182626Y127508
X160503Y154483
X161696Y151054
X157785Y148311
X185566Y125965
X176276Y130556
X172466Y133096
X206756Y133096
X195326Y121666
X199136Y129286
X167386Y147066
X169164Y150114
X177546Y133477
X177546Y116586
X167386Y128016
X209296Y124206
X172453Y114795
X185153Y114795
X149225Y149225
X146685Y138811
X148209Y111125
X144145Y134239
X191027Y127616
X199136Y130556
X209296Y138176
X183896Y129286
X175006Y129286
X200914Y122936
X169037Y142621
X168847Y135573
X169037Y138811
X144526Y151638
X147447Y151638
X144526Y142494
X196596Y121666
X205486Y121666
X238252Y142240
X277114Y158496
X236830Y144526
X274574Y158496
X258572Y125762
X261874Y133223
X239776Y149098
X274574Y110363
X237617Y149987
X277114Y110236
X254381Y134239
X280924Y135636
X252222Y135128
X278384Y138176
X252501Y132613
X278384Y135636
X217424Y129425
X219964Y131965
X219964Y126885
X217424Y127520
X251714Y110236
X232156Y125730
X239014Y117856
X219964Y157226
X279654Y147066
X255524Y125476
X262636Y126238
X256794Y110363
X242570Y158496
X258318Y128651
X264414Y133096
X250571Y133096
X216916Y112903
X244094Y152146
X282194Y130556
X232664Y127508
X232283Y122936
X280924Y133096
X221234Y140716
X228854Y137541
X228854Y140589
X227584Y134366
X224536Y143256
X225044Y153416
X234061Y146050
X238633Y121158
X250444Y122936
X254254Y127508
X232131Y154483
X233324Y151054
X229413Y148311
X257194Y125965
X247904Y130556
X244094Y133096
X278384Y133096
X266954Y121666
X270764Y129286
X239014Y147066
X240792Y150114
X249174Y133477
X249174Y116586
X239014Y128016
X280924Y124206
X244081Y114795
X256781Y114795
X220853Y149225
X218313Y138811
X219837Y111125
X215773Y134239
X262655Y127616
X270764Y130556
X280924Y138176
X255524Y129286
X246634Y129286
X272542Y122936
X240665Y142621
X240474Y135573
X240665Y138811
X216154Y151638
X219075Y151638
X216154Y142494
X268224Y121666
X277114Y121666
X309880Y142240
X348742Y158496
X308458Y144526
X346202Y158496
X330200Y125762
X333502Y133223
X311404Y149098
X346202Y110363
X309245Y149987
X348742Y110236
X326009Y134239
X352552Y135636
X323850Y135128
X350012Y138176
X324129Y132613
X350012Y135636
X289052Y129425
X291592Y131965
X291592Y126885
X289052Y127520
X323342Y110236
X303784Y125730
X310642Y117856
X291592Y157226
X351282Y147066
X327152Y125476
X334264Y126238
X328422Y110363
X314198Y158496
X329946Y128651
X336042Y133096
X322199Y133096
X170942Y158496
X315722Y152146
X353822Y130556
X304292Y127508
X303911Y122936
X352552Y133096
X292862Y140716
X300482Y137541
X300482Y140589
X299212Y134366
X296164Y143256
X296672Y153416
X305689Y146050
X310261Y121158
X322072Y122936
X325882Y127508
X303759Y154483
X304952Y151054
X301041Y148311
X328822Y125965
X319532Y130556
X315722Y133096
X350012Y133096
X338582Y121666
X342392Y129286
X310642Y147066
X312420Y150114
X320802Y133477
X320802Y116586
X310642Y128016
X352552Y124206
X315709Y114795
X328409Y114795
X292481Y149225
X289941Y138811
X291465Y111125
X287401Y134239
X334283Y127616
X342392Y130556
X352552Y138176
X327152Y129286
X318262Y129286
X344170Y122936
X312293Y142621
X312103Y135573
X312293Y138811
X287782Y151638
X290703Y151638
X287782Y142494
X339852Y121666
X348742Y121666
X62230Y50800
X21946Y36830
X59690Y50800
X43688Y18066
X46990Y25527
X24892Y41402
X59690Y2667
X22733Y42291
X62230Y2540
X39497Y26543
X66040Y27940
X37338Y27432
X63500Y30480
X37617Y24917
X63500Y27940
X2540Y21729
X5080Y24269
X5080Y19189
X2540Y19824
X36830Y2540
X17272Y18034
X24130Y10160
X5080Y49530
X64770Y39370
X40640Y17780
X47752Y18542
X41910Y2667
X27686Y50800
X43434Y20955
X49530Y25400
X35687Y25400
X2032Y5207
X29210Y44450
X67310Y22860
X17780Y19812
X17399Y15240
X66040Y25400
X6350Y33020
X13970Y29845
X13970Y32893
X12700Y26670
X9652Y35560
X10160Y45720
X19177Y38354
X23749Y13462
X35560Y15240
X39370Y19812
X17247Y46787
X18440Y43358
X14529Y40615
X42310Y18269
X33020Y22860
X29210Y25400
X63500Y25400
X52070Y13970
X55880Y21590
X24130Y39370
X25908Y42418
X34290Y25781
X34290Y8890
X24130Y20320
X66040Y16510
X29197Y7099
X41897Y7099
X5969Y41529
X3429Y31115
X4953Y3429
X889Y26543
X47771Y19920
X55880Y22860
X66040Y30480
X40640Y21590
X31750Y21590
X57658Y15240
X25781Y34925
X25590Y27876
X25781Y31115
X1270Y43942
X4191Y43942
X1270Y34798
X53340Y13970
X62230Y13970
X94996Y34544
X133858Y50800
X93574Y36830
X131318Y50800
X115316Y18066
X118618Y25527
X96520Y41402
X131318Y2667
X94361Y42291
X133858Y2540
X111125Y26543
X137668Y27940
X108966Y27432
X135128Y30480
X109245Y24917
X135128Y27940
X74168Y21729
X76708Y24269
X76708Y19189
X74168Y19824
X108458Y2540
X88900Y18034
X95758Y10160
X76708Y49530
X136398Y39370
X112268Y17780
X119380Y18542
X113538Y2667
X99314Y50800
X115062Y20955
X121158Y25400
X107315Y25400
X73660Y5207
X100838Y44450
X138938Y22860
X89408Y19812
X89027Y15240
X288544Y112903
M30